<ttFont>
          <CharString index="0">
            rmoveto
            -84 callsubr
            181 678 38 78 callgsubr
            142 6 rlinecurve
            12 188 callgsubr
            -96 -2 -94 -107 -102 2 -55 hflex1
            -13 -32 callsubr
            -170 -643 rlineto
            -32 -122 -19 -97 -81 vvcurveto
            -85 21 -66 51 -57 vhcurveto
            -80 69 113 -31 133 hhcurveto
            170 152 76 115 98 hvcurveto
            -12 callsubr
            159 616 rcurveline
            37 150 39 41 140 callsubr
            -47 -4 -76 -2 -70 -69 -91 2 -47 hflex1
            257 callsubr
            -5 47 -24 -77 vvcurveto
            -25 -5 -30 -9 -36 vhcurveto
            endchar
          </CharString>
          <CharString index="1">
            -78 callgsubr
            195 0 143 hflex1
            16 96 21 99 14 47 15 65 20 60 14 43 rrcurveto
            -47 hlineto
            -271 -100 -104 -92 -222 130 callsubr
            -39 11 60 -66 callsubr
            hvcurveto
            105 389 rlineto
            169 hlineto
            118 27 -60 -75 -30 -4 -32 -5 -32 hvcurveto
            47 hlineto
            20 135 21 55 14 60 14 59 15 55 45 136 rrcurveto
            -47 hlineto
            -82 -33 -57 -148 -142 hhcurveto
            -191 hlineto
            103 381 rlineto
            return
          </CharString>
          <CharString index="2">
            -4 -102 -2 -95 -104 callgsubr
            return
          </CharString>
          <CharString index="3">
            rmoveto
            -30 hlineto
            -824 -1029 -63 -79 -82 -91 -78 -20 rlinecurve
            -41 vlineto
            35 4 96 2 47 74 72 -2 41 hflex1
            41 vlineto
            -88 7 -36 33 48 vvcurveto
            45 31 58 50 61 vhcurveto
            140 174 rlineto
            519 hlineto
            31 -254 rlineto
            2 -15 1 -13 -12 vvcurveto
            -104 -62 -23 -117 -5 vhcurveto
            -10 callgsubr
            54 4 94 2 98 78 90 188 callsubr
            11 41 -41 2 -47 31 -13 98 rlinecurve
            -228 336 rmoveto
            -481 hlineto
            418 519 rlineto
            endchar
          </CharString>
          <CharString index="4">
            rmoveto
            -76 -27 -18 -33 -23 hhcurveto
            hintmask 10101100
            -16 -21 14 23 -30 hvcurveto
            53 -74 -66 33 -121 hhcurveto
            -231 -225 -123 -236 -182 137 -86 141 -96 hvcurveto
            123 -84 115 -84 -152 vvcurveto
            -153 -121 -66 -176 -238 -100 121 193 52 9 47 9 52 vhcurveto
            -41 hlineto
            hintmask 01101100
            -61 -284 -41 -119 -37 -88 rrcurveto
            41 hlineto
            77 33 16 33 37 hhcurveto
            hintmask 10101100
            8 27 -2 -28 37 hvcurveto
            -41 53 74 -54 166 hhcurveto
            235 281 109 248 176 -142 90 -153 100 hvcurveto
            -146 94 -120 84 146 vvcurveto
            147 125 70 157 213 82 -127 -152 -34 -4 -41 -8 -39 vhcurveto
            41 hlineto
            hintmask 10011100
            55 callgsubr
            72 rrcurveto
            endchar
          </CharString>
          <CharString index="5">
            -91 callgsubr
            102 -2 64 hflex1
            return
          </CharString>
          <CharString index="6">
            rmoveto
            -21 -58 -15 -56 -48 vvcurveto
            -73 36 -52 107 94 101 52 159 57 vhcurveto
            53 150 rlineto
            -39 hlineto
            -28 227 callsubr
            -60 -45 -51 -55 hhcurveto
            -33 -16 19 218 callgsubr
            11 30 hvcurveto
            219 621 rlineto
            18 52 16 57 49 vvcurveto
            72 -33 56 -103 -84 -109 -39 -172 -61 vhcurveto
            -53 -149 rlineto
            38 230 callgsubr
            141 53 45 68 64 hhcurveto
            29 15 -18 -34 -20 -5 -25 -10 -30 hvcurveto
            endchar
          </CharString>
          <CharString index="7">
            rmoveto
            -98 -70 -59 -72 -53 hvcurveto
            -122 -158 -123 -408 -98 -361 -388 964 rcurveline
            -47 -4 -58 127 callsubr
            125 -5 37 -12 -4 -78 rlinecurve
            -122 -537 -118 -413 -108 -161 -45 -64 -54 -40 -73 -3 rrcurveto
            -4 hlineto
            34 33 31 49 47 vvcurveto
            35 -16 45 -62 272 callgsubr
            27 -50 96 109 59 66 63 52 vhcurveto
            117 146 137 526 107 465 466 -1124 269 callgsubr
            653 131 379 121 170 43 59 49 43 216 callsubr
            -30 -31 -52 -47 vvcurveto
            -34 17 -46 127 callgsubr
            return
          </CharString>
          <CharString index="8">
            rmoveto
            -86 -32 -25 -36 -24 hhcurveto
            -10 -10 7 11 -11 hvcurveto
            hintmask 10101000
            67 -64 -65 66 -177 hhcurveto
            -516 -377 -561 -465 -318 177 -164 301 180 94 60 73 113 hvcurveto
            12 18 14 6 11 hhcurveto
            hintmask 01101000
            16 8 -15 -37 -19 -2 -22 -4 -29 hvcurveto
            45 hlineto
            19 104 34 140 68 248 rrcurveto
            -45 hlineto
            -66 -160 -45 -90 -73 -74 rrcurveto
            hintmask 10101000
            -105 -103 -147 -55 -115 hhcurveto
            -180 -113 133 269 456 330 576 354 113 104 -58 -102 52 hvcurveto
            21 -44 11 -52 -67 vvcurveto
            -41 -4 -46 -8 -53 vhcurveto
            45 hlineto
            hintmask 10011000
            47 219 43 145 41 107 rrcurveto
            endchar
          </CharString>
          <CharString index="9">
            121 callgsubr
            -42 -59 -49 -70 -49 hvcurveto
            -55 -111 -77 -37 -115 hhcurveto
            hintmask 0111110110000000
            -195 -73 219 -201 hhcurveto
            -154 -94 -107 -145 -158 113 -61 104 -19 274 callgsubr
            -94 19 -53 49 82 vvcurveto
            84 47 51 92 vhcurveto
            176 88 -115 175 hhcurveto
            114 125 43 68 115 hvcurveto
            -553 -459 rlineto
            -268 hlineto
            -15 -41 rlineto
            233 hlineto
            -558 -463 rlineto
            -111 -42 -43 -50 -34 vvcurveto
            -11 4 -9 8 -7 vhcurveto
            -7 8 10 -4 11 hhcurveto
            43 60 49 70 49 hvcurveto
            56 110 78 36 115 hhcurveto
            hintmask 1011101110000000
            194 74 -219 201 hhcurveto
            153 94 107 145 158 -112 61 -105 19 hvcurveto
            -8 -41 rlineto
            94 -19 54 -49 -82 vvcurveto
            -84 -47 -51 -93 vhcurveto
            -176 -88 115 -174 hhcurveto
            -115 -125 -43 -68 -114 hvcurveto
            563 467 rlineto
            270 hlineto
            17 292 callsubr
            549 455 rlineto
            110 42 43 50 34 vvcurveto
            114 callsubr
          </CharString>
          <CharString index="10">
            rmoveto
            -313 178 -179 303 514 342 564 450 315 -180 179 -303 -516 -338 -564 -452 vhcurveto
            835 979 rmoveto
            166 117 -160 -268 -494 -301 -512 -318 -166 -116 160 268 54 callgsubr
            hvcurveto
            endchar
          </CharString>
          <CharString index="11">
            rmoveto
            -72 -86 2 4 -75 309 callsubr
            104 -2 54 -20 -69 vvcurveto
            -44 -22 -64 -46 -92 vhcurveto
            -400 -812 -146 931 rlineto
            -4 25 -2 22 18 vvcurveto
            84 45 18 116 5 vhcurveto
            8 41 rlineto
            -57 280 callsubr
            -69 -64 2 -49 229 callsubr
            37 -2 39 -25 16 -104 rlinecurve
            46 -292 -429 -726 -115 977 rlineto
            -2 20 -1 18 15 vvcurveto
            92 39 22 79 5 vhcurveto
            8 41 rlineto
            -49 -4 -82 -2 -90 -78 -69 2 -56 229 callsubr
            43 -2 55 -23 15 -106 rlinecurve
            162 -1288 rlineto
            32 hlineto
            556 933 147 -933 rlineto
            33 hlineto
            612 1241 63 131 74 35 57 12 271 callgsubr
            -43 -43 -2 -70 hhcurveto
            endchar
          </CharString>
          <CharString index="12">
            -12 -62 -86 callsubr
            return
          </CharString>
          <CharString index="13">
            -51 -18 -68 -8 -68 -2 -31 -122 rcurveline
            -526 -143 -223 -368 -158 hhcurveto
            -43 -22 22 48 26 6 34 14 42 hvcurveto
            195 586 rlineto
            18 56 15 56 47 vvcurveto
            return
          </CharString>
          <CharString index="14">
            41 -90 callgsubr
            return
          </CharString>
          <CharString index="15">
            rmoveto
            264 callsubr
            301 217 -110 104 -170 -383 -209 -487 -301 vhcurveto
            580 747 rmoveto
            77 39 -53 -125 -366 -182 -484 -221 205 callgsubr
            220 hvcurveto
            endchar
          </CharString>
          <CharString index="16">
            8 -93 callsubr
            return
          </CharString>
          <CharString index="17">
            142 135 122 316 135 hvcurveto
            -37 -149 rlineto
            -15 -56 -17 -57 -50 vvcurveto
            -27 5 -24 12 -21 vhcurveto
            -33 21 41 -21 51 hhcurveto
            80 96 49 164 60 hvcurveto
            51 183 callsubr
            -158 -51 -53 -51 -53 hhcurveto
            -35 -11 23 28 27 10 258 callgsubr
            -449 -139 rmoveto
            -45 -26 41 117 362 237 485 180 hvcurveto
            return
          </CharString>
          <CharString index="18">
            1720 rmoveto
            98 -53 78 -51 186 -35 9 29 rcurveline
            -140 55 -76 92 -69 119 rrcurveto
            -37 hlineto
            -104 -104 -179 -101 -198 -61 10 -29 rcurveline
            147 33 168 61 107 45 rrcurveto
            return
          </CharString>
          <CharString index="19">
            12 61 vvcurveto
            -66 callsubr
            vhcurveto
            return
          </CharString>
          <CharString index="20">
            rmoveto
            6 30 8 33 43 vvcurveto
            66 -24 63 -66 -61 -19 -53 -39 -147 135 -56 142 190 162 131 191 106 -53 90 -68 105 vhcurveto
            -80 119 -43 43 94 vvcurveto
            123 76 71 102 vhcurveto
            hintmask 11110100
            41 35 -8 -16 27 hvcurveto
            -35 -43 -23 -45 -49 vvcurveto
            -52 37 -34 45 70 25 67 39 146 -134 32 -116 -174 -144 -116 -174 -125 70 -86 63 -86 vhcurveto
            hintmask 11111000
            19 callgsubr
          </CharString>
          <CharString index="21">
            174 callgsubr
            -42 vhcurveto
            return
          </CharString>
          <CharString index="22">
            rmoveto
            -88 -91 -70 -63 -63 hvcurveto
            -141 -142 -138 -205 -104 -262 rrcurveto
            451 -49 -68 291 -225 hhcurveto
            -117 -43 -60 -119 -41 hvcurveto
            -67 -198 rlineto
            45 hlineto
            57 168 rlineto
            69 23 28 27 47 hhcurveto
            143 63 -369 -302 33 hvcurveto
            -120 -478 -37 -149 -35 32 callsubr
            -10 -41 rlineto
            59 4 103 2 106 94 99 -2 61 33 callgsubr
            -99 35 callsubr
            119 475 rlineto
            return
          </CharString>
          <CharString index="23">
            -305 -80 -143 -225 -305 hhcurveto
            -183 -59 94 141 80 19 95 26 102 hvcurveto
            return
          </CharString>
          <CharString index="24">
            rmoveto
            7 -8 -10 4 -9 hhcurveto
            -37 -46 -50 -70 -45 hvcurveto
            -55 -109 -78 -37 -114 -211 -90 219 -218 hhcurveto
            -153 -90 -106 -146 6 hvcurveto
            4 -157 115 -62 106 -18 6 41 rcurveline
            -94 18 -55 49 -2 82 rrcurveto
            84 -4 45 51 92 192 101 -114 190 hhcurveto
            115 117 55 68 112 hvcurveto
            -216 -180 -162 -132 -119 -297 rrcurveto
            -267 hlineto
            -6 -41 rlineto
            258 hlineto
            -12 -33 -12 -34 -11 -37 -67 -225 rcurveline
            hintmask 11111000
            -320 -96 -39 -186 -226 hhcurveto
            -28 -25 4 6 -18 hvcurveto
            44 20 38 37 48 vvcurveto
            47 -36 38 -50 -67 -46 -59 -57 -79 86 -38 123 258 164 170 205 61 vhcurveto
            144 481 4 12 rlineto
            211 hlineto
            6 41 rlineto
            -205 hlineto
            87 283 78 185 181 147 rrcurveto
            108 41 42 37 28 vvcurveto
            hintmask 11110100
            10 -5 8 -8 7 vhcurveto
            endchar
          </CharString>
          <CharString index="25">
            169 callsubr
            80 74 74 81 60 -41 47 -63 -78 -75 -74 -83 vhcurveto
            return
          </CharString>
          <CharString index="26">
            -41 rlineto
            98 -4 40 -95 callsubr
            return
          </CharString>
          <CharString index="27">
            74 63 68 67 58 -45 45 -57 -74 return
          </CharString>
          <CharString index="28">
            -51 callsubr
            435 hmoveto
            -60 41 -45 61 -56 callsubr
            vhcurveto
            return
          </CharString>
          <CharString index="29">
            -44 callgsubr
            hintmask 10101100
            47 219 43 145 41 107 rrcurveto
            -45 hlineto
            -87 -30 -25 -36 -26 hhcurveto
            -12 -12 7 12 -12 hvcurveto
            hintmask 10110100
            73 -75 -82 60 -179 hhcurveto
            -534 -363 -576 -463 -299 181 -170 335 134 108 43 68 107 hvcurveto
            31 49 12 4 16 hhcurveto
            hintmask 01110100
            -69 callsubr
            hintmask 10110100
            -14 -51 -21 -43 -59 -35 rrcurveto
            -29 -50 -86 -35 -98 hhcurveto
            endchar
          </CharString>
          <CharString index="30">
            273 callgsubr
            -62 hvcurveto
            -49 callgsubr
            98 -4 38 -12 -60 vvcurveto
            -18 -3 -22 -6 -27 vhcurveto
            -885 -815 211 782 39 150 33 20 141 6 rlinecurve
            10 41 rlineto
            -65 -4 -103 -2 -94 -106 -99 2 -55 hflex1
            131 callgsubr
            94 102 -2 62 205 callsubr
            15 2 19 5 22 vhcurveto
            884 812 -208 -769 60 callgsubr
            107 callgsubr
            66 4 102 2 95 106 98 -2 56 hflex1
            10 41 rlineto
            -98 35 callsubr
            108 callsubr
            -4 -59 200 callsubr
          </CharString>
          <CharString index="31">
            rmoveto
            -129 163 -45 97 -60 63 rrcurveto
            24 -22 -35 20 -32 hhcurveto
            -17 -17 -6 -15 -12 hvcurveto
            -10 -13 -4 -14 -14 vvcurveto
            -30 19 -30 20 -20 59 callsubr
            return
          </CharString>
          <CharString index="32">
            149 41 31 21 139 hhcurveto
            150 hlineto
            157 49 -42 -115 -44 -7 -54 -11 -67 hvcurveto
            47 hlineto
            4 31 11 47 14 49 return
          </CharString>
          <CharString index="33">
            1475 rmoveto
            80 callgsubr
            -36 hlineto
            -97 -137 -161 -137 -183 -78 10 -28 rcurveline
            132 53 133 86 94 74 rrcurveto
            return
          </CharString>
          <CharString index="34">
            rmoveto
            -25 -76 rlineto
            hintmask 11011100
            -158 -51 -53 -51 -53 hhcurveto
            -35 -11 23 28 27 10 258 callgsubr
            256 905 rlineto
            -32 callgsubr
            -701 -297 19 callsubr
          </CharString>
          <CharString index="35">
            -149 -33 115 callgsubr
            return
          </CharString>
          <CharString index="36">
            rmoveto
            163 callgsubr
            hvcurveto
            29 -25 rlineto
            88 88 77 27 72 hhcurveto
            60 36 -25 -51 -86 -77 -66 -113 -41 hvcurveto
            -53 2 -37 -10 -26 vvcurveto
            -21 20 -6 17 14 21 4 16 30 vhcurveto
            hintmask 11100000
            72 -2 41 -30 -74 vvcurveto
            -188 -268 -113 -236 -19 vhcurveto
            -36 vlineto
            256 18 371 117 205 vvcurveto
            108 -109 39 -114 4 vhcurveto
            hintmask 11010000
            114 27 170 90 117 vvcurveto
            75 -69 35 -95 vhcurveto
            endchar
          </CharString>
          <CharString index="37">
            21 callgsubr
            36 143 rlineto
            496 143 235 377 161 hhcurveto
            51 15 -32 -39 -35 -12 -40 -9 -26 hvcurveto
            -194 -586 rlineto
            -21 -61 -14 -55 -44 vvcurveto
            return
          </CharString>
          <CharString index="38">
            23 8 -30 -33 -18 -3 -20 -3 -16 hvcurveto
            41 hlineto
            109 406 41 151 18 18 92 7 124 callsubr
            -49 -5 -76 -2 -90 -92 -123 2 -71 225 callgsubr
            124 -5 48 -14 -72 vvcurveto
            -27 -6 -34 -12 -45 vhcurveto
            -47 -180 rlineto
            return
          </CharString>
          <CharString index="39">
            -6 -65 -82 -47 -63 -19 14 -35 rcurveline
            115 41 86 72 119 vvcurveto
            69 -41 52 -72 return
          </CharString>
          <CharString index="40">
            1569 -60 callgsubr
            -12 -21 hvcurveto
            -96 -58 -63 callsubr
            return
          </CharString>
          <CharString index="41">
            -45 callsubr
            43 return
          </CharString>
          <CharString index="42">
            66 callgsubr
            198 callsubr
            491 55 callsubr
            -43 47 hintmask 11111010
            594 192 callgsubr
            hintmask 11111100
            434 hmoveto
            -56 callsubr
            -60 41 -45 61 hvcurveto
            -194 -31 callgsubr
            hintmask 11111010
            -62 callsubr
            hintmask 11111100
            57 callsubr
          </CharString>
          <CharString index="43">
            -10 -81 callsubr
            return
          </CharString>
          <CharString index="44">
            -22 callgsubr
            14 -23 rcurveline
            -65 callgsubr
            return
          </CharString>
          <CharString index="45">
            157 62 -47 -125 -41 -7 -49 -12 -59 hvcurveto
            47 hlineto
            7 34 14 56 14 57 13 43 26 90 35 88 rrcurveto
            return
          </CharString>
          <CharString index="46">
            -129 164 -45 96 -60 64 rrcurveto
            24 -22 -35 19 -32 hhcurveto
            -17 -17 -6 -14 -12 hvcurveto
            -10 -13 -4 -14 -14 vvcurveto
            -30 19 -31 20 -19 vhcurveto
            return
          </CharString>
          <CharString index="47">
            89 -29 43 -43 113 1077 154 callsubr
            -67 200 1102 200 hintmask 00000000
            hintmask 10010100
            1313 1274 rmoveto
            -64 -63 -23 -49 -62 hvcurveto
            -110 -88 -131 -182 -101 -193 -24 215 rcurveline
            150 -17 -53 170 -199 hhcurveto
            -116 -82 -68 -151 -51 hvcurveto
            -54 -158 rlineto
            41 hlineto
            35 104 rlineto
            hintmask 10101000
            111 39 43 49 82 hhcurveto
            109 38 -106 -127 15 hvcurveto
            39 -349 -149 -276 -161 -173 -112 -73 rlinecurve
            -41 -28 -43 -13 -47 -2 rrcurveto
            -6 hlineto
            39 36 26 55 40 vvcurveto
            40 -21 38 -57 -88 -34 -92 -54 -57 32 -49 90 64 63 27 45 62 vhcurveto
            123 91 156 183 111 195 25 -221 rcurveline
            -150 17 53 -170 199 hhcurveto
            116 82 68 151 52 hvcurveto
            53 158 rlineto
            -41 hlineto
            -35 282 callgsubr
            -108 -39 106 127 -15 hvcurveto
            -40 362 133 263 142 173 99 73 rlinecurve
            41 26 43 15 47 191 callgsubr
            -39 -36 -26 -55 -40 vvcurveto
            -40 21 -38 57 88 34 92 55 vhcurveto
            hintmask 10010100
            57 -32 48 -90 vhcurveto
            endchar
          </CharString>
          <CharString index="48">
            rmoveto
            -55 hlineto
            -60 -58 -55 -16 -72 hhcurveto
            hintmask 10001011
            -157 -52 88 -143 hhcurveto
            -174 -64 -107 -108 -105 74 -65 125 -29 hvcurveto
            12 31 rlineto
            -94 18 -67 56 73 vvcurveto
            70 43 33 69 vhcurveto
            105 73 -66 99 hhcurveto
            hintmask 01110011
            75 68 33 74 117 hvcurveto
            -924 -973 rlineto
            55 hlineto
            59 58 55 17 72 hhcurveto
            hintmask 10001011
            157 52 -88 143 hhcurveto
            174 64 106 109 104 -74 66 -125 28 hvcurveto
            -12 -30 rlineto
            94 -19 67 -55 -74 vvcurveto
            -69 -43 -33 -69 vhcurveto
            -105 -73 65 -99 hhcurveto
            hintmask 00101011
            -75 -68 -32 -74 -117 hvcurveto
            endchar
          </CharString>
          <CharString index="49">
            -39 -149 -33 -28 callgsubr
            return
          </CharString>
          <CharString index="50">
            rmoveto
            92 -80 41 -105 -161 -164 -99 -141 -84 53 -56 61 -51 vhcurveto
            -158 -69 -147 -102 -140 vvcurveto
            -116 105 -45 117 vhcurveto
            hintmask 11111000
            200 178 122 152 102 -77 63 -76 61 hvcurveto
            hintmask 11110100
            106 54 148 89 127 vvcurveto
            -283 -247 rmoveto
            -60 51 -52 52 76 vvcurveto
            86 79 72 109 70 30 -29 -57 -100 -88 -99 -88 -52 vhcurveto
            hintmask 11111000
            -178 -482 rmoveto
            -92 -31 45 67 119 97 116 121 59 hvcurveto
            71 -58 72 -58 -94 vvcurveto
            -108 -109 -88 -129 vhcurveto
            endchar
          </CharString>
          <CharString index="51">
            -80 callsubr
            -63 -70 -63 return
          </CharString>
          <CharString index="52">
            90 334 41 151 18 19 96 6 rlinecurve
            9 41 rlineto
            -50 -4 -73 -2 -90 -93 -124 2 -72 229 callsubr
            rlineto
            123 -6 49 -13 -72 vvcurveto
            -26 -7 -35 -12 -45 vhcurveto
            -37 -137 rlineto
            return
          </CharString>
          <CharString index="53">
            -127 -34 -183 -37 -106 hhcurveto
            -240 -115 103 217 297 183 608 454 138 120 -59 -101 58 hvcurveto
            22 -43 6 -49 -57 vvcurveto
            -49 -4 -52 -6 -53 vhcurveto
            45 hlineto
            return
          </CharString>
          <CharString index="54">
            rmoveto
            -86 -47 -74 -59 -56 12 callsubr
            168 58 33 88 88 vvcurveto
            67 229 callgsubr
          </CharString>
          <CharString index="55">
            rlineto
            -84 callsubr
            return
          </CharString>
          <CharString index="56">
            rmoveto
            -60 41 -45 62 -80 callsubr
            -64 -70 -63 vhcurveto
            return
          </CharString>
          <CharString index="57">
            -12 -60 75 callgsubr
            return
          </CharString>
          <CharString index="58">
            rmoveto
            239 355 291 461 399 -283 164 -356 -551 -439 -524 -551 -434 273 -189 381 182 154 49 72 102 hvcurveto
            -14 27 rlineto
            -80 -133 -142 -31 -147 hhcurveto
            -353 -262 168 422 555 449 479 502 321 275 -145 -379 -453 -349 -250 -137 -40 -20 14 39 18 4 23 9 29 hvcurveto
            217 752 rlineto
            hintmask 1011111011000000
            -23 -53 -68 -6 -63 hhcurveto
            -29 -104 rlineto
            97 -7 -49 36 -79 hhcurveto
            -254 -278 -367 -311 -139 55 -109 156 hvcurveto
            hintmask 1011111101000000
            134 89 81 166 80 hvcurveto
            -9 -32 -10 -42 -40 vvcurveto
            hintmask 1101111101000000
            -69 30 -64 118 vhcurveto
            hintmask 1011111011000000
            -363 62 rmoveto
            -69 -37 63 135 287 168 332 198 69 41 -40 -104 1 hvcurveto
            -68 -242 rlineto
            -283 -105 -93 -148 -105 hhcurveto
            endchar
          </CharString>
          <CharString index="59">
            -218 -29 95 -95 174 762 174 -94 94 hstemhm
            -70 1139 hintmask 10011000
            979 1081 rmoveto
            -68 -59 -34 -91 -78 hvcurveto
            -81 -91 -54 -96 -38 -87 -23 211 rcurveline
            143 -17 -57 45 -96 hhcurveto
            -89 -86 -45 -164 -59 hvcurveto
            -51 -149 rlineto
            39 hlineto
            26 294 callgsubr
            56 41 33 41 hhcurveto
            34 25 -22 -72 10 hvcurveto
            44 -395 rlineto
            hintmask 01011000
            -56 -131 -97 -161 -120 -110 rrcurveto
            21 -27 -41 28 -61 hhcurveto
            -62 -45 -47 -51 hvcurveto
            hintmask 10101000
            -47 31 -29 62 63 61 41 86 82 vhcurveto
            109 116 66 115 43 97 30 -266 rcurveline
            -144 17 69 -45 84 hhcurveto
            88 86 45 164 60 hvcurveto
            276 callgsubr
            -41 -32 -41 hhcurveto
            -35 -24 22 72 -11 hvcurveto
            -48 438 45 117 70 145 105 96 rlinecurve
            -20 25 43 -29 62 hhcurveto
            65 43 47 52 hvcurveto
            hintmask 10011000
            47 -39 28 -51 vhcurveto
            endchar
          </CharString>
          <CharString index="60">
            -197 73 callgsubr
            243 callsubr
            552 172 78 166 hintmask 10111110
            74 callgsubr
            185 632 rlineto
            345 hlineto
            13 41 rlineto
            -346 hlineto
            100 342 -102 -53 -117 -29 -150 -2 rlinecurve
            -12 -43 rlineto
            102 39 -25 -54 -16 -4 -19 -6 -21 hvcurveto
            -24 -80 rlineto
            -185 295 callgsubr
            185 hlineto
            hintmask 01111110
            -369 -1245 rlineto
            178 hlineto
            75 257 rlineto
            454 152 197 305 151 hhcurveto
            51 16 -32 -38 -34 -12 -40 -10 -28 hvcurveto
            -194 -586 rlineto
            -21 -61 -13 -55 -45 vvcurveto
            hintmask 10111110
            267 callgsubr
          </CharString>
          <CharString index="61">
            98 -8 -51 55 -72 hhcurveto
            -310 -295 -534 -328 -145 64 -103 129 hvcurveto
            return
          </CharString>
          <CharString index="62">
            24 6 32 11 return
          </CharString>
          <CharString index="63">
            -181 109 callgsubr
            hstemhm
            20 181 121 170 264 182 -4 166 hintmask 00000000
            hintmask 11110100
            1100 1262 rmoveto
            149 -125 68 -164 -242 -247 -148 -229 -149 91 -99 98 -96 vhcurveto
            -227 -98 -264 -180 -244 vvcurveto
            -187 154 -78 209 vhcurveto
            hintmask 11111000
            305 250 164 260 185 -126 118 -118 113 hvcurveto
            hintmask 11110100
            180 96 226 153 202 vvcurveto
            -429 -429 rmoveto
            -95 93 -84 93 128 vvcurveto
            174 129 121 153 107 53 -60 -114 -174 -125 -168 -138 -93 vhcurveto
            hintmask 11111000
            85 -481 rmoveto
            -219 -172 -125 -183 -151 -49 86 123 210 139 201 195 107 vhcurveto
            110 -106 111 -107 -170 vvcurveto
            endchar
          </CharString>
          <CharString index="64">
            1376 rmoveto
            135 80 139 39 97 68 rrcurveto
            33 23 34 36 35 vvcurveto
            11 -3 10 -7 10 vhcurveto
            18 -13 -17 6 -19 153 callgsubr
            -371 -25 rmoveto
            135 80 140 39 96 68 rrcurveto
            36 25 30 32 35 vvcurveto
            9 -2 10 -5 9 vhcurveto
            21 -12 -19 8 -20 153 callgsubr
            return
          </CharString>
          <CharString index="65">
            vvcurveto
            -72 52 -47 100 88 90 35 82 86 vhcurveto
            -22 35 rlineto
            -27 -35 -68 -27 -55 hhcurveto
            -51 -29 25 51 return
          </CharString>
          <CharString index="66">
            -35 callsubr
            380 1368 rlineto
            238 hlineto
            13 41 rlineto
            -239 hlineto
            36 131 rlineto
            254 72 127 75 143 hhcurveto
            102 39 -33 -56 -17 -4 -20 -6 -21 hvcurveto
            -385 185 callsubr
            return
          </CharString>
          <CharString index="67">
            1229 rmoveto
            131 172 88 57 41 78 rrcurveto
            11 21 6 22 20 vvcurveto
            29 -13 26 -27 13 vhcurveto
            7 -15 -15 4 -15 hhcurveto
            -33 -32 -18 -38 -23 hvcurveto
            -47 -78 2 -104 -82 -199 rrcurveto
            return
          </CharString>
          <CharString index="68">
            -106 -98 2 -56 hflex1
            -64 callsubr
            return
          </CharString>
          <CharString index="69">
            90 callsubr
            hintmask 10110110
            -54 callsubr
            hintmask 10101110
            56 238 41 133 34 100 rrcurveto
            -45 hlineto
            -87 -30 -25 -36 -26 hhcurveto
            -11 -12 7 12 -12 hvcurveto
            hintmask 10110110
            73 -76 -82 60 -178 hhcurveto
            -535 -305 -490 -385 -274 180 -154 336 133 94 23 55 91 hvcurveto
            hintmask 01110110
            27 43 38 20 27 hhcurveto
            23 8 -24 -28 -15 -3 -15 -3 -14 hvcurveto
            endchar
          </CharString>
          <CharString index="70">
            -39 -149 -35 -21 -131 -6 rlinecurve
            -6 -41 rlineto
            53 296 callgsubr
            88 138 -6 61 hflex1
            563 return
          </CharString>
          <CharString index="71">
            rmoveto
            -51 -30 -33 -15 -49 -75 -62 33 -75 hhcurveto
            -10 -11 -1 -1 -11 hvcurveto
            -119 -381 25 -23 rlineto
            23 49 41 16 72 hhcurveto
            82 32 -43 -63 -184 -272 -119 -203 -8 hvcurveto
            -37 vlineto
            230 12 372 115 227 vvcurveto
            92 -63 58 -139 -74 -56 -17 -20 -45 vhcurveto
            86 276 rlineto
            6 56 65 -49 66 hhcurveto
            78 65 53 82 41 hvcurveto
            endchar
          </CharString>
          <CharString index="72">
            hlineto
            -386 -1397 53 18 65 9 66 2 rlinecurve
            return
          </CharString>
          <CharString index="73">
            46 callgsubr
            379 1368 rlineto
            return
          </CharString>
          <CharString index="74">
            1393 rmoveto
            104 104 178 100 199 62 -10 29 rcurveline
            -148 -33 -168 -62 -106 -45 -98 54 -78 51 -187 35 -8 -29 rcurveline
            139 -55 76 -93 70 -118 rrcurveto
            return
          </CharString>
          <CharString index="75">
            87 callsubr
            -95 callsubr
            return
          </CharString>
          <CharString index="76">
            78 callgsubr
            141 6 return
          </CharString>
          <CharString index="77">
            rmoveto
            39 -159 131 -271 119 -98 -153 -113 -211 -290 -84 -179 rrcurveto
            37 hlineto
            170 234 178 192 217 154 rrcurveto
            2 vlineto
            -172 133 -127 186 -107 209 rrcurveto
            return
          </CharString>
          <CharString index="78">
            -26 4 -20 8 -17 vhcurveto
            -37 19 43 -19 43 hhcurveto
            return
          </CharString>
          <CharString index="79">
            rmoveto
            61 -26 59 -64 -94 -94 -102 -88 -43 28 -29 49 37 37 23 29 33 vhcurveto
            -8 278 callsubr
            10 -28 rcurveline
            189 92 112 153 142 vvcurveto
            return
          </CharString>
          <CharString index="80">
            -89 0 41 541 41 786 39 hstem
            1063 207 vstem
            862 1448 rmoveto
            -102 -98 -4 -99 hhcurveto
            -90 -106 147 callsubr
            105 -1 34 -22 -55 vvcurveto
            -26 -7 -32 -11 -40 vhcurveto
            110 callgsubr
            -10 callsubr
            -108 3 -33 20 50 vvcurveto
            26 9 34 11 43 vhcurveto
            97 365 rlineto
            61 hlineto
            458 314 235 322 186 -133 123 -275 hvcurveto
            -414 -825 rmoveto
            162 610 50 callgsubr
            -305 -139 -243 -406 hvcurveto
            endchar
          </CharString>
          <CharString index="81">
            16 24 8 25 22 vvcurveto
            26 -10 22 -23 14 vhcurveto
            11 -16 -18 6 -17 hhcurveto
            -31 -30 -17 -31 -25 hvcurveto
            -43 -61 -4 -88 -76 -160 return
          </CharString>
          <CharString index="82">
            1628 rmoveto
            51 callgsubr
            139 callsubr
            97 106 60 151 64 hvcurveto
            -37 10 rlineto
            -86 -47 -47 -32 -50 -141 -26 149 -187 hhcurveto
            return
          </CharString>
          <CharString index="83">
            118 59 -38 91 hhcurveto
            119 66 63 76 25 -9 22 -12 19 hvcurveto
            -35 -15 rlineto
            7 -12 2 -14 -13 vvcurveto
            -45 -41 -26 -56 vhcurveto
            -67 -123 37 -68 hhcurveto
            return
          </CharString>
          <CharString index="84">
            10 41 rlineto
            return
          </CharString>
          <CharString index="85">
            -26 -76 rlineto
            -164 -58 -49 -45 -51 hhcurveto
            -36 -12 19 30 21 6 27 9 30 hvcurveto
            199 598 rlineto
            17 52 13 54 48 vvcurveto
            88 -41 67 -124 -171 -139 -127 -341 -153 vhcurveto
            return
          </CharString>
          <CharString index="86">
            rlineto
            -12 -43 -7 -39 -35 vvcurveto
            -104 57 -66 126 125 96 54 178 60 vhcurveto
            43 129 rlineto
            -39 hlineto
            -29 -80 rlineto
            return
          </CharString>
          <CharString index="87">
            149 31 21 39 callsubr
            return
          </CharString>
          <CharString index="88">
            rmoveto
            -76 -74 2 4 -39 hvcurveto
            -49 callgsubr
            91 -2 35 -19 -37 vvcurveto
            -27 -20 -38 -32 -49 vhcurveto
            -516 -706 -160 706 rlineto
            -8 36 -5 29 23 vvcurveto
            64 37 16 95 4 vhcurveto
            -23 callsubr
            -59 -4 -80 -2 -107 -78 -90 2 -53 hflex1
            -10 -41 39 -2 84 -28 24 -101 rlinecurve
            234 -925 rlineto
            -98 -78 -76 -46 -125 hhcurveto
            -28 -33 242 callgsubr
            38 47 vvcurveto
            47 -36 39 -50 -66 -46 -59 -58 -79 86 -38 122 199 69 106 176 122 vhcurveto
            591 820 62 94 72 35 43 2 124 callsubr
            -4 -37 -47 -2 -49 hhcurveto
            endchar
          </CharString>
          <CharString index="89">
            155 355 175 185 112 84 32 22 41 21 39 191 callgsubr
            -36 -35 -29 -50 -43 vvcurveto
            -41 17 -40 61 85 36 87 55 vhcurveto
            return
          </CharString>
          <CharString index="90">
            39 -30 53 35 35 14 18 20 return
          </CharString>
          <CharString index="91">
            73 40 -70 -108 -14 -1 -15 -1 -16 hvcurveto
            -38 -149 rlineto
            return
          </CharString>
          <CharString index="92">
            1753 rmoveto
            -98 53 -78 52 -187 34 -8 -28 rcurveline
            139 -56 76 -92 70 -119 rrcurveto
            37 hlineto
            104 105 178 100 199 62 -10 28 rcurveline
            -148 -32 -168 -62 -106 -45 rrcurveto
            return
          </CharString>
          <CharString index="93">
            11 22 27 4 14 hhcurveto
            39 19 -17 -32 -82 -105 -23 -43 -67 -37 19 8 -19 hvcurveto
            -14 -31 rlineto
            -22 27 61 -23 76 hhcurveto
            106 146 51 119 51 -33 31 -55 -29 -33 -6 -8 -22 hvcurveto
            return
          </CharString>
          <CharString index="94">
            hhcurveto
            96 107 59 152 63 hvcurveto
            -37 10 rlineto
            -86 -47 -47 -33 -49 return
          </CharString>
          <CharString index="95">
            88 104 63 140 50 190 return
          </CharString>
          <CharString index="96">
            rmoveto
            294 -191 158 -387 -78 -137 -4 -2 -94 vhcurveto
            -17 -16 -1 -17 hhcurveto
            -76 -77 4 3 -47 hvcurveto
            -6 -41 rlineto
            103 -1 35 -19 -56 vvcurveto
            -25 -7 -33 -12 -42 vhcurveto
            191 callsubr
            18 callgsubr
            hvcurveto
            -942 -756 rmoveto
            -95 -30 22 52 26 7 34 11 42 hvcurveto
            215 819 rlineto
            142 37 37 34 125 hhcurveto
            311 127 -121 -243 -471 -219 -336 -526 hvcurveto
            endchar
          </CharString>
          <CharString index="97">
            -39 -149 -33 -21 -139 -6 rlinecurve
            -9 -41 rlineto
            171 callsubr
            return
          </CharString>
          <CharString index="98">
            192 172 117 59 76 80 rrcurveto
            return
          </CharString>
          <CharString index="99">
            -26 5 -23 11 -18 vhcurveto
            -37 23 41 -23 65 hhcurveto
            84 105 39 172 59 hvcurveto
            return
          </CharString>
          <CharString index="100">
            rmoveto
            -97 -137 -161 -137 -183 -78 10 -28 rcurveline
            132 53 133 86 94 74 80 callgsubr
            return
          </CharString>
          <CharString index="101">
            rmoveto
            -143 92 -70 144 282 152 324 201 145 -92 70 -144 -282 -152 -326 -201 vhcurveto
            424 490 rmoveto
            66 32 -37 -82 -246 -125 -301 -151 -66 -32 37 82 244 125 303 151 hvcurveto
            return
          </CharString>
          <CharString index="102">
            66 4 117 2 116 272 callsubr
            72 hflex1
            43 callsubr
            return
          </CharString>
          <CharString index="103">
            150 31 20 141 6 return
          </CharString>
          <CharString index="104">
            rmoveto
            59 -60 88 88 rlineto
            -53 66 86 -31 92 hhcurveto
            92 84 33 53 67 hvcurveto
            91 -90 57 60 -90 88 rlineto
            53 65 33 84 94 vvcurveto
            93 -33 84 -53 67 vhcurveto
            92 92 -57 58 -93 -93 rlineto
            56 -67 -84 33 -92 hhcurveto
            -92 -86 -33 -53 -66 hvcurveto
            -90 90 -57 -58 90 -90 rlineto
            -56 -67 -32 -86 -93 vvcurveto
            -94 32 -84 54 -65 vhcurveto
            -2 243 rmoveto
            170 137 144 168 166 137 -146 -168 -170 -137 -141 -166 -166 -139 141 170 vhcurveto
            endchar
          </CharString>
          <CharString index="105">
            198 109 callgsubr
            hstem
            111 217 901 219 vstem
            return
          </CharString>
          <CharString index="106">
            1049 430 -85 callgsubr
            return
          </CharString>
          <CharString index="107">
            252 callgsubr
            -102 -2 -95 -39 callsubr
            return
          </CharString>
          <CharString index="108">
            -91 -36 callgsubr
            return
          </CharString>
          <CharString index="109">
            vhcurveto
            110 callgsubr
            -17 callgsubr
            return
          </CharString>
          <CharString index="110">
            25 callgsubr
            -216 291 callsubr
            -38 -31 -27 -141 hhcurveto
            -326 hlineto
            -98 -41 14 63 24 6 33 12 42 hvcurveto
            230 callsubr
            39 150 33 20 139 6 rlinecurve
            8 41 rlineto
            -63 54 callsubr
            -57 222 callsubr
            191 callsubr
            -39 -149 -27 -21 -141 -6 227 callgsubr
            59 4 94 2 107 return
          </CharString>
          <CharString index="111">
            -39 hlineto
            -615 -547 -10 -36 rlineto
            387 hlineto
            -70 -240 rlineto
            107 hlineto
            70 240 rlineto
            116 hlineto
            23 83 rlineto
            return
          </CharString>
          <CharString index="112">
            7 -31 -36 3 -38 hhcurveto
            -342 -120 -272 -150 -149 112 -70 166 -4 hvcurveto
            return
          </CharString>
          <CharString index="113">
            rmoveto
            152 125 84 136 61 hvcurveto
            -29 10 rlineto
            -88 -55 -76 -31 -75 -193 -84 160 -209 hhcurveto
            -151 -125 -84 -135 -62 hvcurveto
            29 -11 rlineto
            88 55 76 31 76 192 84 -160 209 hhcurveto
            endchar
          </CharString>
          <CharString index="114">
            -9 callgsubr
            99 369 rlineto
            26 hlineto
            11 hlineto
            246 -12 60 -64 -156 vvcurveto
            -18 -1 -19 -1 -20 vhcurveto
            -8 -129 rlineto
            return
          </CharString>
          <CharString index="115">
            34 14 56 14 57 13 43 26 90 35 88 rrcurveto
            -6 -135 return
          </CharString>
          <CharString index="116">
            rmoveto
            -1 -10 0 -10 -9 vvcurveto
            -148 112 -114 151 162 144 129 162 16 vhcurveto
            1 11 1 11 10 vvcurveto
            147 -113 114 -151 -162 -141 -131 -162 -19 vhcurveto
            endchar
          </CharString>
          <CharString index="117">
            1573 rmoveto
            52 callsubr
            125 23 -149 166 -13 callsubr
            -125 -23 150 -165 hhcurveto
            return
          </CharString>
          <CharString index="118">
            -142 -29 41 -5 -21 1249 39 -14 -20 hstemhm
            246 166 350 211 return
          </CharString>
          <CharString index="119">
            -17 callsubr
            hvcurveto
            -6 -65 -82 -47 -63 -19 14 -35 rcurveline
            return
          </CharString>
          <CharString index="120">
            25 callsubr
            10 41 rlineto
            return
          </CharString>
          <CharString index="121">
            39 172 32 callgsubr
            return
          </CharString>
          <CharString index="122">
            44 -29 164 -135 -21 211 60 356 41 348 60 55 164 -8 -20 hstemhm
            221 78 return
          </CharString>
          <CharString index="123">
            -38 callgsubr
            58 4 return
          </CharString>
          <CharString index="124">
            -37 callsubr
            408 485 512 return
          </CharString>
          <CharString index="125">
            hvcurveto
            -49 callgsubr
            5 callgsubr
            return
          </CharString>
          <CharString index="126">
            rmoveto
            -45 -26 41 117 362 237 485 180 hvcurveto
            hintmask 11010100
            -16 callsubr
            hintmask 11011100
            27 callgsubr
          </CharString>
          <CharString index="127">
            -68 2 -43 hflex1
            -64 callsubr
            return
          </CharString>
          <CharString index="128">
            65 -64 93 -47 165 -135 return
          </CharString>
          <CharString index="129">
            rrcurveto
            16 23 20 12 33 hhcurveto
            4 hlineto
            -37 -34 -29 -53 -39 vvcurveto
            -42 22 -41 58 88 31 95 48 60 return
          </CharString>
          <CharString index="130">
            -170 -61 -62 -35 -59 hhcurveto
            -50 -39 24 57 13 2 16 5 17 hvcurveto
            return
          </CharString>
          <CharString index="131">
            -41 187 callgsubr
            -104 -52 -98 hhcurveto
            -86 -58 58 139 return
          </CharString>
          <CharString index="132">
            -40 callgsubr
            rlinecurve
            return
          </CharString>
          <CharString index="133">
            -35 callsubr
            379 1368 rlineto
            239 hlineto
            13 41 rlineto
            -241 hlineto
            1 2 55 209 43 139 101 57 rlinecurve
            21 35 65 32 59 hhcurveto
            25 hlineto
            100 36 -31 -55 -18 -4 -20 -7 -23 hvcurveto
            158 callsubr
            return
          </CharString>
          <CharString index="134">
            35 61 43 51 34 22 rrcurveto
            8 13 22 12 15 hhcurveto
            5 4 -1 -3 3 hvcurveto
            return
          </CharString>
          <CharString index="135">
            rmoveto
            134 504 50 callgsubr
            -245 -133 -197 -391 hvcurveto
            return
          </CharString>
          <CharString index="136">
            -515 -29 41 1032 37 224 callgsubr
            -21 177 hintmask 11111000
            return
          </CharString>
          <CharString index="137">
            -375 -399 34 801 37 571 37 -10 -20 28 191 -189 -20 155 54 return
          </CharString>
          <CharString index="138">
            rmoveto
            -285 -105 -78 -98 -256 130 callsubr
            -40 130 callgsubr
            12 43 hvcurveto
            return
          </CharString>
          <CharString index="139">
            115 callgsubr
            rlinecurve
            return
          </CharString>
          <CharString index="140">
            71 callsubr
            293 callgsubr
            return
          </CharString>
          <CharString index="141">
            77 -29 37 13 -21 1442 146 callgsubr
            return
          </CharString>
          <CharString index="142">
            4 -38 -88 callsubr
            return
          </CharString>
          <CharString index="143">
            -6 -121 -168 0 -119 hhcurveto
            endchar
          </CharString>
          <CharString index="144">
            245 27 161 201 185 vvcurveto
            113 -57 67 -96 30 vhcurveto
            return
          </CharString>
          <CharString index="145">
            -4 -102 -2 -95 -106 -98 2 -58 hflex1
            return
          </CharString>
          <CharString index="146">
            141 112 callsubr
            return
          </CharString>
          <CharString index="147">
            hlineto
            -396 -1397 53 18 65 9 66 2 rlinecurve
            389 1368 rlineto
            389 hlineto
            -229 -754 rlineto
            -21 -58 -16 -57 -48 vvcurveto
            -73 36 -51 107 94 101 52 159 57 vhcurveto
            53 150 rlineto
            -39 hlineto
            -28 227 callsubr
            -60 -45 -51 -55 hhcurveto
            -33 -14 18 218 callgsubr
            9 31 hvcurveto
            return
          </CharString>
          <CharString index="148">
            183 callsubr
            -156 -53 -45 -53 -53 hhcurveto
            -32 -14 13 31 11 2 13 3 16 hvcurveto
            return
          </CharString>
          <CharString index="149">
            rmoveto
            -59 -31 57 121 328 219 491 262 47 44 -30 -74 18 hvcurveto
            -76 -284 rlineto
            -329 -105 -199 -280 -120 hhcurveto
            endchar
          </CharString>
          <CharString index="150">
            98 callgsubr
            27 6 34 12 43 vhcurveto
            return
          </CharString>
          <CharString index="151">
            108 -29 60 659 45 139 127 -75 155 0 -20 22 -20 215 callgsubr
            213 47 333 45 hintmask 1100011111000000
            return
          </CharString>
          <CharString index="152">
            -384 -12 133 -100 -21 76 110 680 111 -45 133 -12 -20 return
          </CharString>
          <CharString index="153">
            -46 0 82 callsubr
            return
          </CharString>
          <CharString index="154">
            97 83 callgsubr
            64 -98 hvcurveto
            -45 -332 rmoveto
            -62 -63 41 82 86 78 80 84 63 68 -41 -78 -98 -82 -72 -86 hvcurveto
            return
          </CharString>
          <CharString index="155">
            -730 165 callgsubr
            1186 75 hstemhm
            -303 188 445 171 hintmask 10111000
            return
          </CharString>
          <CharString index="156">
            383 217 512 310 194 -84 94 -129 hvcurveto
            return
          </CharString>
          <CharString index="157">
            7 callgsubr
            -65 -131 return
          </CharString>
          <CharString index="158">
            170 207 100 178 106 vvcurveto
            6 0 7 -2 4 vhcurveto
            return
          </CharString>
          <CharString index="159">
            -97 -106 -60 -151 -64 40 callgsubr
            32 49 return
          </CharString>
          <CharString index="160">
            hstem
            94 219 881 219 vstem
            return
          </CharString>
          <CharString index="161">
            -4 -103 -2 -94 -106 -99 2 return
          </CharString>
          <CharString index="162">
            240 195 239 return
          </CharString>
          <CharString index="163">
            -51 -18 -68 -8 -68 -2 rrcurveto
            -390 hlineto
            1 2 62 229 49 143 119 78 rlinecurve
            33 51 69 33 95 hhcurveto
            55 42 -5 -13 36 hvcurveto
            -59 -13 -52 -53 -10 -62 rrcurveto
            -2 -9 -1 -10 -9 vvcurveto
            -58 43 -45 60 80 74 74 81 24 -7 22 -11 18 vhcurveto
            return
          </CharString>
          <CharString index="164">
            -6 -135 -178 0 -131 hhcurveto
            endchar
          </CharString>
          <CharString index="165">
            57 18 39 43 60 289 callsubr
            -56 -77 -125 157 -31 109 162 188 67 175 129 vhcurveto
            return
          </CharString>
          <CharString index="166">
            vhcurveto
            21 callsubr
            rrcurveto
            return
          </CharString>
          <CharString index="167">
            32 164 rlineto
            4 20 2 18 17 vvcurveto
            149 -145 51 -156 6 vhcurveto
            245 57 4 303 118 94 22 callsubr
            -31 49 -90 vhcurveto
            endchar
          </CharString>
          <CharString index="168">
            -17 -20 -10 -29 -24 vvcurveto
            -37 23 -23 35 61 53 60 59 return
          </CharString>
          <CharString index="169">
            vstem
            252 631 rmoveto
            166 100 231 260 92 160 rrcurveto
            -36 hlineto
            -183 -209 -190 -174 -234 -135 rrcurveto
            -4 vlineto
            148 -133 108 -185 88 -209 rrcurveto
            37 hlineto
            -33 160 -100 270 -94 99 rrcurveto
            return
          </CharString>
          <CharString index="170">
            79 callsubr
            -199 1934 -199 199 hintmask 11110100
            return
          </CharString>
          <CharString index="171">
            -12 callgsubr
            10 41 rlineto
            return
          </CharString>
          <CharString index="172">
            98 -4 38 -50 callsubr
            -11 -43 vhcurveto
            return
          </CharString>
          <CharString index="173">
            -224 -29 66 1005 39 -28 -20 return
          </CharString>
          <CharString index="174">
            -7 0 121 callsubr
            return
          </CharString>
          <CharString index="175">
            41 205 rlineto
            4 19 2 18 17 vvcurveto
            148 -143 52 -155 7 vhcurveto
            240 52 -2 267 117 94 22 callsubr
            -32 49 -89 vhcurveto
            return
          </CharString>
          <CharString index="176">
            vstem
            272 1151 rmoveto
            33 -160 101 -270 94 -98 -166 -101 -232 -260 -92 -160 rrcurveto
            37 hlineto
            182 209 191 174 233 136 rrcurveto
            2 vlineto
            -147 133 -109 186 -88 209 rrcurveto
            return
          </CharString>
          <CharString index="177">
            1550 rmoveto
            205 200 74 156 158 hvcurveto
            -29 24 rlineto
            -135 -143 -174 -76 -203 hhcurveto
            -78 -73 17 20 -29 hvcurveto
            57 19 39 45 59 289 callsubr
            -55 -76 -127 178 -31 117 vhcurveto
            return
          </CharString>
          <CharString index="178">
            hhcurveto
            49 callsubr
            return
          </CharString>
          <CharString index="179">
            -410 -29 86 983 41 hstem
            37 190 420 230 vstem
            return
          </CharString>
          <CharString index="180">
            -217 111 -105 170 return
          </CharString>
          <CharString index="181">
            32 11 43 vhcurveto
            270 1016 13 callsubr
            return
          </CharString>
          <CharString index="182">
            -49 24 -39 26 -27 vhcurveto
            -34 -67 -78 -11 -118 hhcurveto
            return
          </CharString>
          <CharString index="183">
            rmoveto
            188 189 79 170 145 hvcurveto
            -29 25 rlineto
            -147 -131 -162 -84 -186 hhcurveto
            -78 -74 16 20 -28 hvcurveto
            57 19 39 45 59 vvcurveto
            58 -35 28 -53 -74 -63 -55 -76 -127 178 -30 117 vhcurveto
            return
          </CharString>
          <CharString index="184">
            hstemhm
            18 181 355 150 25 25 return
          </CharString>
          <CharString index="185">
            39 -18 29 -45 -35 -37 -25 -61 -14 vhcurveto
            -21 -86 6 -61 -26 -201 rrcurveto
            28 hlineto
            82 192 80 82 92 vvcurveto
            return
          </CharString>
          <CharString index="186">
            61 callgsubr
            hstemhm
            -150 199 return
          </CharString>
          <CharString index="187">
            -91 callsubr
            103 389 rlineto
            return
          </CharString>
          <CharString index="188">
            1012 rmoveto
            276 hlineto
            6 41 rlineto
            -271 hlineto
            97 340 return
          </CharString>
          <CharString index="189">
            47 76 callgsubr
            return
          </CharString>
          <CharString index="190">
            -29 150 callgsubr
            return
          </CharString>
          <CharString index="191">
            39 149 30 21 142 176 callsubr
            -60 -65 6 -152 hflex1
            -98 0 -43 -6 -41 -82 -65 2 -43 hflex1
            -11 -32 callsubr
            return
          </CharString>
          <CharString index="192">
            68 -27 53 -91 170 callsubr
            -23 -27 -26 -9 -31 -6 -20 120 callgsubr
            134 530 rlineto
            return
          </CharString>
          <CharString index="193">
            rrcurveto
            -35 hlineto
            -94 -207 -135 -119 -195 -57 195 -58 135 -118 94 -207 rrcurveto
            35 hlineto
            return
          </CharString>
          <CharString index="194">
            178 callsubr
            39 return
          </CharString>
          <CharString index="195">
            -47 24 -41 27 -27 vhcurveto
            -31 -64 -59 -14 -105 hhcurveto
            return
          </CharString>
          <CharString index="196">
            1245 rmoveto
            83 callgsubr
            64 -98 -123 -100 -92 -119 -102 73 -62 97 hvcurveto
            45 332 rmoveto
            63 68 -41 -78 -98 -82 -72 -86 -62 -63 41 82 86 78 80 84 hvcurveto
            return
          </CharString>
          <CharString index="197">
            rmoveto
            -55 callsubr
            return
          </CharString>
          <CharString index="198">
            65 -29 76 -47 41 647 41 680 39 hstemhm
            822 192 -171 191 29 207 hintmask 01110010
            return
          </CharString>
          <CharString index="199">
            41 1114 164 callgsubr
            158 192 return
          </CharString>
          <CharString index="200">
            123 127 86 39 39 return
          </CharString>
          <CharString index="201">
            vhcurveto
            -12 -45 rlineto
            -197 295 callgsubr
            198 hlineto
            -43 -164 rlineto
            -198 295 callgsubr
            199 hlineto
            -21 -80 -53 -196 -45 -99 -47 -92 rlinecurve
            -129 -39 -74 -71 -39 vvcurveto
            -17 8 -4 return
          </CharString>
          <CharString index="202">
            -3 -12 -2 -11 -10 vvcurveto
            -49 35 -29 62 29 51 6 14 41 vhcurveto
            184 68 129 227 86 306 152 536 rcurveline
            17 61 11 55 45 vvcurveto
            93 -44 55 -119 vhcurveto
            endchar
          </CharString>
          <CharString index="203">
            -27 -103 rlineto
            -16 -64 -10 -53 -42 vvcurveto
            -83 45 -45 84 82 104 45 166 51 vhcurveto
            48 150 rlineto
            return
          </CharString>
          <CharString index="204">
            -115 -119 -176 -65 -129 hhcurveto
            return
          </CharString>
          <CharString index="205">
            -310 -385 176 1196 94 return
          </CharString>
          <CharString index="206">
            -58 -17 callsubr
            return
          </CharString>
          <CharString index="207">
            -51 -18 -67 -8 -68 -2 -14 -51 rcurveline
            2 10 rlineto
            -566 -176 -209 -409 -162 hhcurveto
            -33 -12 27 38 31 8 38 12 38 hvcurveto
            195 586 rlineto
            18 56 15 56 47 vvcurveto
            return
          </CharString>
          <CharString index="208">
            151 57 50 58 59 hhcurveto
            32 10 -21 -27 -26 -10 -32 -7 -21 hvcurveto
            -275 -879 rlineto
            176 hlineto
            158 545 rlineto
            184 -15 67 -49 -105 vvcurveto
            -22 -3 -25 -6 -28 vhcurveto
            return
          </CharString>
          <CharString index="209">
            1602 rmoveto
            172 229 127 106 107 hvcurveto
            -21 23 rlineto
            -78 -131 -180 -41 -141 hhcurveto
            211 callsubr
            return
          </CharString>
          <CharString index="210">
            hlineto
            317 88 -92 -180 -264 -135 -152 return
          </CharString>
          <CharString index="211">
            1473 rmoveto
            12 51 rlineto
            -721 hlineto
            -12 -51 rlineto
            return
          </CharString>
          <CharString index="212">
            -590 109 callsubr
            return
          </CharString>
          <CharString index="213">
            -53 -108 -29 -150 -2 return
          </CharString>
          <CharString index="214">
            -416 -29 86 985 39 return
          </CharString>
          <CharString index="215">
            163 callsubr
            33 20 184 callsubr
            return
          </CharString>
          <CharString index="216">
            0 166 callsubr
            return
          </CharString>
          <CharString index="217">
            77 0 41 1325 154 callsubr
            199 1349 -198 198 hintmask 11010000
            return
          </CharString>
          <CharString index="218">
            102 307 callgsubr
            return
          </CharString>
          <CharString index="219">
            6 158 callgsubr
            return
          </CharString>
          <CharString index="220">
            -186 -188 57 -211 hhcurveto
            -41 -105 -2 -45 -84 hvcurveto
            -78 -41 -28 -59 -59 vvcurveto
            -62 33 -41 57 72 30 64 55 41 -16 49 -21 29 vhcurveto
            24 43 74 11 72 hhcurveto
            return
          </CharString>
          <CharString index="221">
            11 -4 9 -8 7 vhcurveto
            endchar
          </CharString>
          <CharString index="222">
            -35 -385 33 835 41 486 59 55 164 hstemhm
            43 199 -76 80 hintmask 11110100
            return
          </CharString>
          <CharString index="223">
            12 0 41 1120 154 callsubr
            164 1268 -199 199 hintmask 11010000
            return
          </CharString>
          <CharString index="224">
            1284 rmoveto
            -80 callsubr
            -64 -70 -63 -60 41 -45 62 hvcurveto
            return
          </CharString>
          <CharString index="225">
            560 11 271 callsubr
            hstem
            147 1864 vstem
            return
          </CharString>
          <CharString index="226">
            41 1319 41 20 37 hstemhm
            203 192 return
          </CharString>
          <CharString index="227">
            41 426 41 752 -20 return
          </CharString>
          <CharString index="228">
            273 callsubr
            870 -20 return
          </CharString>
          <CharString index="229">
            102 -29 72 1366 41 return
          </CharString>
          <CharString index="230">
            -6 -32 -11 -43 vhcurveto
            return
          </CharString>
          <CharString index="231">
            rlinecurve
            -23 callsubr
            return
          </CharString>
          <CharString index="232">
            9 callgsubr
            -62 callsubr
            return
          </CharString>
          <CharString index="233">
            rmoveto
            -64 -47 30 84 -36 hvcurveto
            55 211 rlineto
            366 122 182 307 118 268 callsubr
            -195 306 callsubr
          </CharString>
          <CharString index="234">
            -2 -61 -72 186 callgsubr
            return
          </CharString>
          <CharString index="235">
            rmoveto
            205 callgsubr
            213 54 34 -10 -20 26 hvcurveto
            6 -46 3 -49 -53 vvcurveto
            -366 -182 -484 -221 vhcurveto
            endchar
          </CharString>
          <CharString index="236">
            260 0 119 return
          </CharString>
          <CharString index="237">
            hhcurveto
            -149 hlineto
            -99 return
          </CharString>
          <CharString index="238">
            rmoveto
            -67 -60 39 110 57 16 77 40 100 hvcurveto
            9 24 rlineto
            76 53 89 39 70 hhcurveto
            98 35 -71 -103 -217 -158 -131 -125 hvcurveto
            endchar
          </CharString>
          <CharString index="239">
            rmoveto
            -70 -30 -57 -55 hvcurveto
            return
          </CharString>
          <CharString index="240">
            -385 49 154 49 return
          </CharString>
          <CharString index="241">
            286 callgsubr
            126 477 rlineto
            46 hlineto
            285 80 -86 -166 -252 -117 -143 -315 hvcurveto
            endchar
          </CharString>
          <CharString index="242">
            51 150 rlineto
            return
          </CharString>
          <CharString index="243">
            23 callsubr
            endchar
          </CharString>
          <CharString index="244">
            -49 33 -31 69 27 43 4 25 45 vhcurveto
            147 82 66 229 68 246 rrcurveto
            199 55 59 286 158 hhcurveto
            77 40 -69 -107 return
          </CharString>
          <CharString index="245">
            57 -244 hhcurveto
            -47 -135 -2 -45 -93 hvcurveto
            -84 -41 -24 -63 -56 vvcurveto
            -61 31 -41 59 72 30 63 56 41 -16 49 -21 28 vhcurveto
            29 44 return
          </CharString>
          <CharString index="246">
            141 27 -150 186 hhcurveto
            return
          </CharString>
          <CharString index="247">
            141 6 11 41 rcurveline
            return
          </CharString>
          <CharString index="248">
            1081 rmoveto
            -37 -37 -10 -37 -49 hvcurveto
            -144 -107 39 -296 -326 -23 286 1020 rcurveline
            -102 -53 -125 -29 -150 -2 rrcurveto
            return
          </CharString>
          <CharString index="249">
            hmoveto
            -292 hlineto
            392 347 rlineto
            endchar
          </CharString>
          <CharString index="250">
            1511 332 rmoveto
            -26 -76 rlineto
            -152 -53 -48 -57 -59 hhcurveto
            -33 -10 24 28 27 9 31 5 17 hvcurveto
            254 907 rlineto
            return
          </CharString>
          <CharString index="251">
            67 39 -45 -90 -147 -94 -322 -176 -70 -37 47 90 146 return
          </CharString>
          <CharString index="252">
            127 102 285 147 174 vvcurveto
            return
          </CharString>
          <CharString index="253">
            294 callsubr
            -49 callgsubr
            return
          </CharString>
          <CharString index="254">
            2 4 -56 hvcurveto
            -49 callgsubr
            return
          </CharString>
          <CharString index="255">
            -123 -270 0 return
          </CharString>
          <CharString index="256">
            39 -20 callsubr
            return
          </CharString>
          <CharString index="257">
            98 379 rrcurveto
            148 39 29 28 133 hhcurveto
            29 hlineto
            98 41 -12 -63 -25 -6 -33 -12 -43 hvcurveto
            191 callsubr
            rlineto
            return
          </CharString>
          <CharString index="258">
            87 -41 67 -124 -179 -145 -140 -379 -161 vhcurveto
            299 1066 -102 -53 -125 -29 -150 -2 rlinecurve
            return
          </CharString>
          <CharString index="259">
            251 0 41 668 41 659 41 hstem
            -68 1747 vstem
            return
          </CharString>
          <CharString index="260">
            -185 84 -86 129 145 129 109 281 133 return
          </CharString>
          <CharString index="261">
            113 -43 43 hstemhm
            return
          </CharString>
          <CharString index="262">
            -111 -39 -43 -49 return
          </CharString>
          <CharString index="263">
            332 rmoveto
            -27 -76 rlineto
            189 callgsubr
            return
          </CharString>
          <CharString index="264">
            40 callgsubr
            33 return
          </CharString>
          <CharString index="265">
            -334 -1108 -27 callgsubr
            return
          </CharString>
          <CharString index="266">
            hvcurveto
            53 39 41 51 61 vvcurveto
            51 -28 45 -64 -70 -30 -57 -55 -47 24 -41 27 -27 vhcurveto
            -31 -51 -49 -14 -95 hhcurveto
            return
          </CharString>
          <CharString index="267">
            108 -6 99 hflex1
            131 117 6 77 76 109 129 hflex
            94 133 4 84 hhcurveto
            endchar
          </CharString>
          <CharString index="268">
            hlineto
            126 55 -47 -130 -40 -5 return
          </CharString>
          <CharString index="269">
            -296 148 callgsubr
            return
          </CharString>
          <CharString index="270">
            219 811 39 150 return
          </CharString>
          <CharString index="271">
            12 47 31 307 callsubr
            return
          </CharString>
          <CharString index="272">
            69 43 -24 -39 27 hvcurveto
            return
          </CharString>
          <CharString index="273">
            187 callsubr
            41 return
          </CharString>
          <CharString index="274">
            37 -29 -20 hstemhm
            return
          </CharString>
          <CharString index="275">
            64 39 76 63 76 vvcurveto
            47 -31 31 -53 -78 -70 -66 -73 -41 23 -27 41 -8 vhcurveto
            -41 -33 -92 -37 -84 hhcurveto
            return
          </CharString>
          <CharString index="276">
            -59 42 -46 61 return
          </CharString>
          <CharString index="277">
            -36 callgsubr
            33 10 return
          </CharString>
          <CharString index="278">
            58 53 callgsubr
            return
          </CharString>
          <CharString index="279">
            33 31 24 41 39 vvcurveto
            37 -22 26 -45 -68 -53 -63 -62 return
          </CharString>
          <CharString index="280">
            -6 rlinecurve
            -10 callgsubr
            return
          </CharString>
          <CharString index="281">
            1239 rmoveto
            return
          </CharString>
          <CharString index="282">
            39 callsubr
            -66 -4 -108 -2 -76 -131 -82 6 -60 hflex1
            -69 -109 -8 return
          </CharString>
          <CharString index="283">
            124 callgsubr
            -59 -4 -99 -2 -106 return
          </CharString>
          <CharString index="284">
            hstem
            167 185 vstem
            return
          </CharString>
          <CharString index="285">
            -41 rlineto
            99 -4 return
          </CharString>
          <CharString index="286">
            -29 callsubr
            84 104 14 callsubr
            return
          </CharString>
          <CharString index="287">
            31 28 14 31 8 27 rrcurveto
            2 9 2 8 8 vvcurveto
            36 -24 27 -43 -57 -46 -51 -43 -14 vhcurveto
            return
          </CharString>
          <CharString index="288">
            117 74 115 172 122 -6 107 hintmask 11110100
            return
          </CharString>
          <CharString index="289">
            1407 rmoveto
            13 51 rlineto
            -639 hlineto
            -12 -51 rlineto
            return
          </CharString>
          <CharString index="290">
            150 rlineto
            -39 hlineto
            -25 -76 rlineto
            return
          </CharString>
          <CharString index="291">
            141 124 callgsubr
            return
          </CharString>
          <CharString index="292">
            -1366 rlineto
            178 hlineto
            return
          </CharString>
          <CharString index="293">
            106 -6 105 hflex1
            return
          </CharString>
          <CharString index="294">
            41 1163 return
          </CharString>
          <CharString index="295">
            -2 55 hflex1
            return
          </CharString>
          <CharString index="296">
            -20 195 callsubr
            return
          </CharString>
          <CharString index="297">
            rmoveto
            -740 hlineto
            -30 -119 rlineto
            739 hlineto
            endchar
          </CharString>
          <CharString index="298">
            -215 -811 return
          </CharString>
          <CharString index="299">
            -70 -45 hvcurveto
            -35 -94 -109 -37 -92 -213 -135 199 -223 hhcurveto
            -123 -86 return
          </CharString>
          <CharString index="300">
            1305 rmoveto
            88 66 84 73 60 -41 45 -64 -88 -63 -86 -72 -59 41 -45 61 hvcurveto
            return
          </CharString>
          <CharString index="301">
            10 -13 -15 5 -17 hhcurveto
            -26 -29 -13 -33 -29 hvcurveto
            14 callgsubr
            return
          </CharString>
          <CharString index="302">
            105 callgsubr
            293 157 callgsubr
            return
          </CharString>
          <CharString index="303">
            -8 callsubr
            endchar
          </CharString>
          <CharString index="304">
            29 281 63 hstemhm
            592 123 -58 119 return
          </CharString>
          <CharString index="305">
            131 238 hstemhm
            return
          </CharString>
          <CharString index="306">
            6 rmoveto
            -109 -112 37 41 -17 hvcurveto
            72 18 45 58 59 vvcurveto
            53 -35 27 -49 return
          </CharString>
          <CharString index="307">
            -98 -2 -107 hhcurveto
            endchar
          </CharString>
          <CharString index="308">
            -112 6 -47 hflex1
            -11 -43 rlineto
            86 40 -19 -60 -19 -4 -22 -7 -27 hvcurveto
            return
          </CharString>
          <CharString index="309">
            hflex1
            41 vlineto
            -140 6 -26 21 149 vvcurveto
            1387 vlineto
            149 26 return
          </CharString>
          <CharString index="310">
            -23 -6 27 29 5 0 4 1 4 hvcurveto
            1 19 2 19 2 12 rrcurveto
            -43 hlineto
            return
          </CharString>
          <CharString index="311">
            1546 rmoveto
            23 -31 -62 30 -100 hhcurveto
            -143 -162 -38 -105 -113 hvcurveto
            return
          </CharString>
          <CharString index="312">
            185 callgsubr
            -38 12 61 vvcurveto
            return
          </CharString>
          <CharString index="313">
            185 callgsubr
            -39 12 60 vvcurveto
            return
          </CharString>
          <CharString index="314">
            270 225 callsubr
            return
          </CharString>
          <CharString index="315">
            56 -28 54 -86 vhcurveto
            endchar
          </CharString>
          <CharString index="316">
            vvcurveto
            -45 callsubr
            return
          </CharString>
          <CharString index="317">
            167 callsubr
            86 return
          </CharString>
          <CharString index="318">
            -150 -90 26 231 callgsubr
            -10 rlineto
            -131 28 105 -106 176 hhcurveto
            return
          </CharString>
          <CharString index="319">
            224 callsubr
            -41 187 callgsubr
            -104 -52 return
          </CharString>
          <CharString index="320">
            rmoveto
            1 2 53 200 52 113 98 66 rlinecurve
            28 43 59 21 70 hhcurveto
            return
          </CharString>
          <CharString index="321">
            -39 238 callsubr
            return
          </CharString>
          <CharString index="322">
            64 4 102 2 94 107 98 -2 return
          </CharString>
          <CharString index="323">
            76 191 callgsubr
            -35 return
          </CharString>
          <CharString index="324">
            -29 76 1454 43 return
          </CharString>
          <CharString index="325">
            -205 0 41 1362 41 -41 47 hstemhm
            -72 1325 hintmask 11010000
            return
          </CharString>
          <CharString index="326">
            hvcurveto
            80 14 74 60 79 vvcurveto
            43 -27 37 -57 -90 -56 -86 -78 -108 return
          </CharString>
          <CharString index="327">
            -29 37 13 -21 592 119 49 119 563 167 callsubr
            return
          </CharString>
          <CharString index="328">
            -4 hlineto
            118 callgsubr
            return
          </CharString>
          <CharString index="329">
            hflex1
            25 callgsubr
            return
          </CharString>
          <CharString index="330" raw="1">
            f7801d50 0b  
          </CharString>
          <CharString index="331">
            174 158 138 137 80 hvcurveto
            return
          </CharString>
          <CharString index="332">
            1016 39 149 return
          </CharString>
          <CharString index="333">
            -21 1419 41 return
          </CharString>
          <CharString index="334">
            -76 rlineto
            -158 return
          </CharString>
          <CharString index="335">
            182 199 108 170 102 vvcurveto
            6 0 6 -2 5 vhcurveto
            return
          </CharString>
          <CharString index="336">
            hflex1
            -8 -41 return
          </CharString>
          <CharString index="337">
            215 811 return
          </CharString>
          <CharString index="338">
            rmoveto
            -38 hlineto
            -27 -76 rlineto
            hintmask 10111110
            -164 -57 -50 -45 -51 hhcurveto
            return
          </CharString>
          <CharString index="339">
            149 195 80 129 53 -33 19 -37 -55 -37 -43 -41 return
          </CharString>
          <CharString index="340">
            hstemhm
            339 149 98 165 -119 162 80 199 return
          </CharString>
          <CharString index="341">
            1673 132 callsubr
            return
          </CharString>
          <CharString index="342">
            241 callgsubr
            -4 -59 return
          </CharString>
          <CharString index="343">
            -185 -29 66 -66 76 987 47 return
          </CharString>
          <CharString index="344">
            -6 -117 -154 0 -112 hhcurveto
            return
          </CharString>
          <CharString index="345">
            -149 -31 -21 -141 -6 return
          </CharString>
          <CharString index="346">
            257 293 callsubr
            return
          </CharString>
          <CharString index="347">
            -423 21 -21 1030 51 return
          </CharString>
          <CharString index="348">
            142 124 callgsubr
            return
          </CharString>
          <CharString index="349">
            148 227 225 vstem
            return
          </CharString>
          <CharString index="350">
            164 41 215 43 hstemhm
            return
          </CharString>
          <CharString index="351">
            0 47 1157 41 return
          </CharString>
          <CharString index="352">
            25 226 callgsubr
            return
          </CharString>
          <CharString index="353">
            4 -39 12 60 vvcurveto
            return
          </CharString>
          <CharString index="354">
            53 293 53 vstem
            return
          </CharString>
          <CharString index="355">
            117 117 return
          </CharString>
          <CharString index="356">
            rmoveto
            69 -91 144 -96 147 -59 25 28 rcurveline
            -156 return
          </CharString>
          <CharString index="357">
            106 1 -21 480 33 98 32 438 -20 44 -20 hstemhm
            return
          </CharString>
          <CharString index="358">
            rmoveto
            -59 -37 57 121 307 195 512 231 return
          </CharString>
          <CharString index="359">
            64 callsubr
            -59 -4 return
          </CharString>
          <CharString index="360">
            133 callgsubr
            62 callgsubr
            return
          </CharString>
          <CharString index="361">
            rrcurveto
            35 vlineto
            -207 -96 -115 -111 -61 -164 rrcurveto
            return
          </CharString>
          <CharString index="362">
            8 -28 rcurveline
            148 59 159 96 103 91 rrcurveto
            endchar
          </CharString>
          <CharString index="363">
            6 10 41 rcurveline
            return
          </CharString>
          <CharString index="364">
            -49 callgsubr
            104 return
          </CharString>
          <CharString index="365">
            -12 rlinecurve
            33 28 16 33 4 21 rrcurveto
            3 9 1 9 return
          </CharString>
          <CharString index="366">
            -45 -12 -33 rrcurveto
            45 hlineto
            299 123 139 90 return
          </CharString>
          <CharString index="367">
            -240 -29 76 -26 -21 1038 43 420 43 hstemhm
            return
          </CharString>
          <CharString index="368">
            -62 164 -114 111 -207 96 rrcurveto
            -35 vlineto
            return
          </CharString>
          <CharString index="369">
            hlineto
            -138 -299 rlineto
            49 hlineto
            138 299 rlineto
            return
          </CharString>
          <CharString index="370">
            1139 1464 rmoveto
            -75 -27 -18 -33 -23 hhcurveto
            return
          </CharString>
          <CharString index="371">
            73 callsubr
            383 208 488 return
          </CharString>
          <CharString index="372">
            hlineto
            88 -6 18 -43 -54 -40 -10 -46 -40 vvcurveto
            45 hlineto
            return
          </CharString>
          <CharString index="373">
            hlineto
            140 303 rlineto
            -49 hlineto
            -140 -303 rlineto
            return
          </CharString>
          <CharString index="374">
            132 callsubr
            hintmask 11111100
            return
          </CharString>
          <CharString index="375">
            hhcurveto
            59 37 -58 -120 -308 return
          </CharString>
          <CharString index="376">
            1927 43 hstem
            return
          </CharString>
          <CharString index="377">
            -8 -21 1110 -20 return
          </CharString>
          <CharString index="378">
            -21 1214 41 return
          </CharString>
          <CharString index="379">
            248 callsubr
            -2 return
          </CharString>
          <CharString index="380">
            41 508 41 return
          </CharString>
          <CharString index="381">
            hflex1
            285 262 115 252 213 return
          </CharString>
          <CharString index="382">
            86 285 callgsubr
            return
          </CharString>
          <CharString index="383">
            1098 1260 rmoveto
            -76 -27 -18 -33 -23 hhcurveto
            return
          </CharString>
          <CharString index="384">
            47 688 35 639 return
          </CharString>
          <CharString index="385">
            -93 -80 -98 -129 -78 return
          </CharString>
          <CharString index="386">
            -12 -62 -54 callgsubr
            return
          </CharString>
          <CharString index="387">
            -4 -98 -2 -107 return
          </CharString>
          <CharString index="388">
            2 -49 hflex1
            return
          </CharString>
          <CharString index="389">
            hvcurveto
            hintmask 01111110
            21 callgsubr
            return
          </CharString>
          <CharString index="390">
            249 216 135 -84 78 -144 hvcurveto
            return
          </CharString>
          <CharString index="391">
            vvcurveto
            42 -26 17 -39 -47 -57 -24 -86 -29 vhcurveto
            return
          </CharString>
          <CharString index="392">
            -31 51 hhcurveto
            31 33 12 31 29 -27 14 -47 return
          </CharString>
          <CharString index="393">
            -195 57 -135 119 -94 207 rrcurveto
            return
          </CharString>
          <CharString index="394">
            -264 -135 -152 -359 hvcurveto
            endchar
          </CharString>
          <CharString index="395">
            hlineto
            -8 -39 rlineto
            166 hlineto
            return
          </CharString>
          <CharString index="396">
            vvcurveto
            57 -35 29 -53 -74 -63 return
          </CharString>
          <CharString index="397">
            hlineto
            8 39 rlineto
            -166 hlineto
            return
          </CharString>
          <CharString index="398">
            -811 rlineto
            -149 return
          </CharString>
          <CharString index="399">
            41 rlineto
            -238 hlineto
            return
          </CharString>
          <CharString index="400">
            0 41 565 41 return
          </CharString>
          <CharString index="401">
            2 4 -55 hvcurveto
            return
          </CharString>
          <CharString index="402">
            -360 219 return
          </CharString>
          <CharString index="403">
            -656 -111 39 1389 39 hstem
            return
          </CharString>
          <CharString index="404">
            71 31 64 55 41 -16 49 -21 29 vhcurveto
            return
          </CharString>
          <CharString index="405">
            -45 -60 -47 -41 -55 -14 vhcurveto
            -3 -10 -1 return
          </CharString>
          <CharString index="406">
            rmoveto
            -13 -40 rlineto
            704 hlineto
            14 40 rlineto
            return
          </CharString>
          <CharString index="407">
            -681 -371 39 1874 39 hstem
            return
          </CharString>
          <CharString index="408">
            336 hstem
            119 833 vstem
            514 return
          </CharString>
          <CharString index="409">
            96 137 100 159 151 164 return
          </CharString>
          <CharString index="410">
            -303 -172 -180 -289 -80 hvcurveto
            return
          </CharString>
          <CharString index="411">
            131 -111 71 -165 vhcurveto
            endchar
          </CharString>
          <CharString index="412">
            70 71 43 -24 39 -35 33 vhcurveto
            endchar
          </CharString>
          <CharString index="413">
            -512 -231 hvcurveto
            endchar
          </CharString>
          <CharString index="414">
            99 35 96 rrcurveto
            return
          </CharString>
          <CharString index="415">
            272 1016 return
          </CharString>
          <CharString index="416">
            hvcurveto
            -10 callgsubr
            return
          </CharString>
        <CharString name=".notdef">
          -144 0 61 1459 61 hstem
          123 74 757 74 vstem
          1028 1581 rmoveto
          -905 -1581 905 hlineto
          -74 61 rmoveto
          -757 1459 757 hlineto
          endchar
        </CharString>
        <CharString name="A">
          67 callsubr
          hstem
          -178 1311 vstem
          950 1460 -103 callgsubr
        </CharString>
        <CharString name="AE">
          542 0 41 -41 82 callsubr
          hstemhm
          -164 187 -187 2077 hintmask 01101010
          1489 248 callgsubr
          hintmask 01110010
          -68 -111 0 1 -119 hvcurveto
          122 138 rlineto
          -53 hlineto
          hintmask 01101010
          -122 -137 rlineto
          -81 -82 2 2 -74 hvcurveto
          -10 -41 103 -5 39 -13 -4 -69 rlinecurve
          -1017 -1150 rlineto
          hintmask 10101100
          -75 -86 -62 -43 -39 -2 rrcurveto
          hintmask 01101100
          -41 vlineto
          33 4 55 2 49 68 72 -2 37 hflex1
          hintmask 10101100
          253 callgsubr
          457 516 rlineto
          333 hlineto
          -131 -492 rlineto
          hintmask 01101010
          -39 -149 -32 -21 -140 -6 -8 -41 rcurveline
          201 6 266 0 123 137 187 0 139 hflex1
          14 104 25 107 14 51 14 57 15 219 callgsubr
          -97 -38 11 59 24 7 33 11 43 hvcurveto
          210 callgsubr
          223 266 callgsubr
          25 135 12 56 17 59 22 86 13 57 34 107 rrcurveto
          -45 hlineto
          -119 -45 -43 -110 -123 hhcurveto
          -220 246 callgsubr
          rlineto
          149 39 31 21 135 hhcurveto
          190 161 callsubr
          -48 -10 -57 hvcurveto
          45 hlineto
          4 31 9 47 14 49 14 47 29 307 callsubr
          -6 -129 -170 0 -125 hhcurveto
          -606 -694 rmoveto
          -308 hlineto
          441 497 -4 -14 rlineto
          endchar
        </CharString>
        <CharString name="Aacute">
          67 callsubr
          hstem
          -178 1526 vstem
          1344 1884 rmoveto
          25 -11 -22 9 -25 hhcurveto
          -27 -30 -11 -13 -21 hvcurveto
          -96 -57 -63 callsubr
          35 19 37 35 36 vvcurveto
          7 -1 6 -3 7 vhcurveto
          -394 -424 -103 callgsubr
        </CharString>
        <CharString name="Abreve">
          67 callsubr
          162 137 hstem
          -178 1630 vstem
          944 102 callsubr
          6 -142 -103 callgsubr
        </CharString>
        <CharString name="Acircumflex">
          67 callsubr
          hstem
          -178 1512 vstem
          1012 1876 rmoveto
          -104 -104 -179 -101 -198 -61 10 -29 rcurveline
          147 33 168 61 107 45 98 -53 78 -51 186 -35 9 29 rcurveline
          -140 55 -76 92 -69 119 rrcurveto
          -99 -416 -103 callgsubr
        </CharString>
        <CharString name="Adieresis">
          67 callsubr
          141 238 hstemhm
          606 55 callsubr
          hintmask 00000000
          hintmask 11111100
          709 1581 rmoveto
          -80 callsubr
          -64 -70 -63 -60 41 -45 62 hvcurveto
          10 callgsubr
          -228 -359 -103 callgsubr
        </CharString>
        <CharString name="Agrave">
          67 callsubr
          hstem
          -178 1311 vstem
          670 1821 rmoveto
          21 callsubr
          21 20 rcurveline
          -61 callsubr
          280 -361 -103 callgsubr
        </CharString>
        <CharString name="Amacron">
          67 callsubr
          237 52 hstem
          -178 1482 vstem
          1304 1729 rmoveto
          -721 hlineto
          -12 -52 rlineto
          721 hlineto
          -342 -217 -103 callgsubr
        </CharString>
        <CharString name="Aogonek">
          -7 -385 98 287 121 callsubr
          hstem
          725 156 vstem
          1119 -233 rmoveto
          -27 -35 -68 -27 -55 hhcurveto
          -51 -29 25 51 288 callgsubr
          hvcurveto
          18 -1 9 41 -41 2 -52 31 -8 98 rlinecurve
          -82 1288 rlineto
          -30 hlineto
          -883 -1241 -84 -119 -66 -47 -55 -12 227 callgsubr
          43 4 41 2 69 72 86 -2 76 33 callgsubr
          -97 2 -54 25 60 vvcurveto
          46 31 66 65 92 vhcurveto
          154 217 rlineto
          503 hlineto
          19 -336 6 -139 -51 -27 -131 -6 rlinecurve
          -9 -41 rlineto
          4 54 94 2 98 hhcurveto
          45 49 -1 -1 44 hvcurveto
          -129 -44 -185 -91 -135 vvcurveto
          -72 52 -47 100 88 90 35 82 86 vhcurveto
          -322 858 rmoveto
          -472 hlineto
          438 619 rlineto
          endchar
        </CharString>
        <CharString name="Aring">
          67 callsubr
          80 43 288 43 hstem
          773 247 callsubr
          943 1520 rmoveto
          83 callgsubr
          63 -98 -123 -100 -92 -119 -102 73 -61 97 hvcurveto
          45 331 rmoveto
          63 68 -41 -77 -99 -82 -71 -86 -62 -63 41 82 86 78 79 84 hvcurveto
          -38 -391 -103 callgsubr
        </CharString>
        <CharString name="Atilde">
          67 callsubr
          141 102 48 102 hstem
          -178 1569 vstem
          1354 1802 rmoveto
          -86 -47 -47 -33 -49 -141 -27 150 -186 hhcurveto
          52 callgsubr
          139 callsubr
          96 107 59 152 63 hvcurveto
          -441 -332 -103 callgsubr
        </CharString>
        <CharString name="B">
          -47 callgsubr
        </CharString>
        <CharString name="C">
          34 callsubr
          hintmask 00000000
          hintmask 10011000
          1415 1450 -99 callsubr
        </CharString>
        <CharString name="CR">
          -1295 endchar
        </CharString>
        <CharString name="Cacute">
          34 callsubr
          hintmask 10101000
          895 1581 rmoveto
          -65 callgsubr
          -95 callgsubr
          -13 -21 hvcurveto
          -96 -57 -22 callgsubr
          rrcurveto
          hintmask 10011000
          534 -154 -99 callsubr
        </CharString>
        <CharString name="Cacute.loclPLK">
          34 callsubr
          hintmask 10101000
          973 1554 rmoveto
          93 callsubr
          56 rrcurveto
          -26 callgsubr
          rrcurveto
          hintmask 10011000
          463 -119 -99 callsubr
        </CharString>
        <CharString name="Ccaron">
          34 callsubr
          hintmask 10101000
          1076 -15 callsubr
          hintmask 10011000
          339 -303 -99 callsubr
        </CharString>
        <CharString name="Ccedilla">
          77 133 callsubr
          105 36 13 -21 1442 146 callgsubr
          318 131 hintmask 00000000
          hintmask 10100110
          203 callgsubr
          hintmask 11101011
          67 -64 -65 66 -177 hhcurveto
          -516 -377 -561 -465 -305 163 -163 279 -13 hvcurveto
          -81 -169 rlineto
          -73 callgsubr
          56 118 168 4 91 59 109 70 rlinecurve
          12 18 14 6 11 hhcurveto
          hintmask 10011010
          16 8 -15 -37 -19 -2 -22 -4 -29 hvcurveto
          45 hlineto
          19 104 34 140 68 248 rrcurveto
          -45 hlineto
          -66 -160 -45 -90 -73 -74 rrcurveto
          hintmask 10101010
          -105 -103 -147 -55 -115 hhcurveto
          -180 -113 133 269 456 330 576 354 113 104 -58 -102 52 hvcurveto
          21 -44 11 -52 -67 vvcurveto
          -41 -4 -46 -8 -53 vhcurveto
          45 hlineto
          hintmask 10100110
          47 219 43 145 41 107 rrcurveto
          endchar
        </CharString>
        <CharString name="Ccircumflex">
          34 callsubr
          hintmask 10101000
          1037 -89 callsubr
          hintmask 10011000
          378 -270 -99 callsubr
        </CharString>
        <CharString name="Cdotaccent">
          34 callsubr
          641 256 hintmask 10101100
          950 1690 -2 callgsubr
          hintmask 10011100
          465 -240 rmoveto
          -86 -32 -25 -36 -24 hhcurveto
          -10 -10 7 11 -11 hvcurveto
          hintmask 10101100
          67 -64 -65 66 -177 hhcurveto
          -516 -377 -561 -465 -318 177 -164 301 180 94 60 73 113 hvcurveto
          12 18 14 6 11 hhcurveto
          hintmask 01101100
          16 8 -15 -37 -19 -2 -22 -4 -29 hvcurveto
          45 hlineto
          19 104 34 140 68 248 rrcurveto
          -45 hlineto
          -66 -160 -45 -90 -73 -74 rrcurveto
          hintmask 10101100
          -105 -103 -147 -55 -115 hhcurveto
          -180 -113 133 269 456 330 576 354 113 104 -58 -102 52 hvcurveto
          21 -44 11 -52 -67 vvcurveto
          -41 -4 -46 -8 -53 vhcurveto
          45 hlineto
          hintmask 10011100
          47 219 43 145 41 107 rrcurveto
          endchar
        </CharString>
        <CharString name="D">
          190 0 37 1376 37 hstem
          1245 197 vstem
          1442 997 -11 callgsubr
        </CharString>
        <CharString name="Dcaron">
          190 0 37 1376 37 hstem
          1245 197 vstem
          910 -15 callsubr
          532 -756 -11 callgsubr
        </CharString>
        <CharString name="Dcroat">
          -41 callgsubr
        </CharString>
        <CharString name="Delta">
          -138 0 61 1418 -20 hstem
          47 905 vstem
          557 257 callgsubr
          -33 hlineto
          -477 -1479 rlineto
          152 4 151 2 152 149 152 -2 149 hflex1
          -843 61 rmoveto
          333 1049 289 -1049 rlineto
          endchar
        </CharString>
        <CharString name="E">
          139 callgsubr
          907 248 callgsubr
          hintmask 11011000
          148 callsubr
          6 -201 hvcurveto
          -10 -41 rlineto
          -106 callgsubr
          hintmask 11101000
          -75 callsubr
          rrcurveto
          hintmask 11011000
          164 callsubr
          hintmask 11101000
          36 callsubr
        </CharString>
        <CharString name="Eacute">
          139 callgsubr
          1204 -66 callgsubr
          -297 -330 rmoveto
          hintmask 11011000
          148 callsubr
          6 -201 hvcurveto
          -10 -41 rlineto
          -106 callgsubr
          hintmask 11101000
          -75 callsubr
          rrcurveto
          hintmask 11011000
          164 callsubr
          hintmask 11101000
          36 callsubr
        </CharString>
        <CharString name="Ebreve">
          -46 0 47 662 41 653 47 -41 41 152 137 hstemhm
          1161 47 hintmask 11101100
          872 102 callsubr
          hintmask 11011100
          -569 -193 rmoveto
          -106 callgsubr
          hintmask 11101100
          -75 callsubr
          164 callsubr
          -121 -6 -168 0 -119 148 callsubr
          -201 hflex1
          endchar
        </CharString>
        <CharString name="Ecaron">
          -46 0 47 662 41 653 47 -41 41 hstemhm
          1161 47 hintmask 11101000
          881 -33 callgsubr
          hintmask 11011000
          -541 -188 rmoveto
          -106 callgsubr
          hintmask 11101000
          -75 callsubr
          164 callsubr
          -121 -6 -168 0 -119 148 callsubr
          -201 hflex1
          endchar
        </CharString>
        <CharString name="Ecircumflex">
          139 callgsubr
          891 -89 callsubr
          16 -276 rmoveto
          hintmask 11011000
          148 callsubr
          6 -201 hvcurveto
          -10 -41 rlineto
          -106 callgsubr
          hintmask 11101000
          -75 callsubr
          rrcurveto
          hintmask 11011000
          164 callsubr
          hintmask 11101000
          36 callsubr
        </CharString>
        <CharString name="Edieresis">
          46 callsubr
          198 callsubr
          534 240 387 47 hintmask 11101110
          637 1581 rmoveto
          -80 callsubr
          -64 -70 -63 -60 41 -45 62 hvcurveto
          434 hmoveto
          -56 callsubr
          -60 41 -45 61 hvcurveto
          -164 -137 rmoveto
          hintmask 11011110
          148 callsubr
          6 -201 hvcurveto
          -10 -41 rlineto
          -106 callgsubr
          hintmask 11101110
          -75 callsubr
          rrcurveto
          hintmask 11011110
          164 callsubr
          hintmask 11101110
          36 callsubr
        </CharString>
        <CharString name="Edotaccent">
          46 callsubr
          hstemhm
          804 256 101 47 hintmask 11101100
          907 1581 88 callgsubr
          -137 vmoveto
          hintmask 11011100
          148 callsubr
          6 -201 hvcurveto
          -10 -41 rlineto
          -106 callgsubr
          hintmask 11101100
          -75 callsubr
          rrcurveto
          hintmask 11011100
          164 callsubr
          hintmask 11101100
          36 callsubr
        </CharString>
        <CharString name="Egrave">
          139 callgsubr
          598 1821 rmoveto
          21 callsubr
          21 20 rcurveline
          -61 callsubr
          309 -377 rmoveto
          hintmask 11011000
          148 callsubr
          6 -201 hvcurveto
          -10 -41 rlineto
          -106 callgsubr
          hintmask 11101000
          -75 callsubr
          rrcurveto
          hintmask 11011000
          164 callsubr
          hintmask 11101000
          36 callsubr
        </CharString>
        <CharString name="Emacron">
          46 callsubr
          227 52 hstemhm
          1161 47 hintmask 11101100
          1220 104 callgsubr
          408 -233 rmoveto
          hintmask 11011100
          148 callsubr
          6 -201 hvcurveto
          -10 -41 rlineto
          -106 callgsubr
          hintmask 11101100
          -75 callsubr
          rrcurveto
          hintmask 11011100
          164 callsubr
          hintmask 11101100
          36 callsubr
        </CharString>
        <CharString name="Eng">
          141 -385 33 352 155 callgsubr
          hstem
          483 199 vstem
          1393 248 callgsubr
          -70 -90 2 4 -47 hvcurveto
          -49 callgsubr
          113 -4 41 -23 -68 vvcurveto
          -26 -6 -34 -11 -42 vhcurveto
          -240 -913 -414 1151 rlineto
          -47 -4 -57 -2 -61 -72 20 callsubr
          -264 -995 -39 -150 -35 -41 107 callgsubr
          48 4 75 2 70 70 90 -2 47 33 callgsubr
          -113 4 -42 23 67 vvcurveto
          27 7 33 11 43 vhcurveto
          289 1099 497 -1347 rlineto
          -190 -62 -101 -152 -156 hhcurveto
          -25 -29 4 6 -18 hvcurveto
          42 20 40 37 48 vvcurveto
          47 -36 38 -50 -63 -50 -55 -61 -81 95 -36 90 196 131 168 354 80 vhcurveto
          285 1075 39 150 35 41 184 callsubr
          -4 -47 -76 -2 -69 hhcurveto
          endchar
        </CharString>
        <CharString name="Eogonek">
          -46 -385 98 287 47 -41 41 76 callgsubr
          hstemhm
          584 156 421 47 hintmask 11011011
          907 248 callgsubr
          hintmask 11010111
          148 callsubr
          6 -201 18 callsubr
          6 199 270 0 123 hhcurveto
          hintmask 10111011
          108 143 0 -3 124 hvcurveto
          -128 -44 -183 -91 -134 -42 callsubr
          hvcurveto
          hintmask 11011011
          288 callgsubr
          vhcurveto
          24 -1 17 104 24 107 14 51 rlinecurve
          15 57 16 54 15 37 rrcurveto
          -48 hlineto
          -271 -100 -76 -92 -256 130 callsubr
          -40 130 callgsubr
          12 43 hvcurveto
          132 492 rlineto
          134 hlineto
          113 28 -57 -75 -43 -9 -48 -7 -48 hvcurveto
          47 hlineto
          31 156 16 68 19 67 18 68 15 67 51 156 rrcurveto
          -47 hlineto
          -98 -43 -41 -172 -179 hhcurveto
          -135 hlineto
          129 483 rlineto
          -75 callsubr
          rrcurveto
          hintmask 11010111
          164 callsubr
          hintmask 11011011
          36 callsubr
        </CharString>
        <CharString name="Eth">
          -41 callgsubr
        </CharString>
        <CharString name="Euro">
          -64 -29 35 602 41 164 41 590 35 hstem
          231 189 360 232 59 227 vstem
          1239 1407 rmoveto
          31 -35 -59 41 -119 hhcurveto
          -325 -248 -303 -322 -127 hvcurveto
          -181 295 callgsubr
          177 hlineto
          -20 -55 -16 -55 -13 -54 rrcurveto
          -171 295 callgsubr
          174 hlineto
          -14 -71 -7 -67 -62 vvcurveto
          -279 150 -158 235 123 86 43 29 47 vhcurveto
          168 callsubr
          -141 -74 109 213 84 12 97 21 99 hvcurveto
          280 hlineto
          37 41 rlineto
          -308 hlineto
          14 54 15 56 19 54 rrcurveto
          395 hlineto
          35 41 rlineto
          -416 hlineto
          311 112 192 279 210 hhcurveto
          76 70 -35 -39 14 hvcurveto
          -70 -18 -57 -58 -65 vvcurveto
          -49 35 -29 51 78 63 305 callsubr
        </CharString>
        <CharString name="Euro.smcp">
          -124 -29 35 500 41 164 41 487 35 hstemhm
          203 188 340 232 -23 227 hintmask 11111010
          1108 1202 rmoveto
          31 -35 -59 41 -119 hhcurveto
          -275 -226 -247 -275 -113 hvcurveto
          -164 211 callgsubr
          161 hlineto
          -20 -55 -15 -55 -11 -54 rrcurveto
          -158 295 callgsubr
          163 hlineto
          -6 -41 -3 -40 -38 vvcurveto
          -295 104 -121 260 123 86 43 29 47 vhcurveto
          hintmask 11111100
          168 callsubr
          -127 -68 103 233 54 4 55 6 55 hvcurveto
          304 hlineto
          36 41 rlineto
          -334 hlineto
          9 56 12 55 15 53 rrcurveto
          434 hlineto
          34 41 rlineto
          -455 hlineto
          273 87 168 214 196 hhcurveto
          76 70 -35 -39 14 hvcurveto
          hintmask 11111010
          -72 -18 -55 -57 -66 vvcurveto
          -49 35 -29 51 76 65 305 callsubr
        </CharString>
        <CharString name="F">
          -136 0 41 647 41 674 41 -41 47 hstemhm
          1145 47 hintmask 11101000
          907 248 callgsubr
          hintmask 11011000
          148 callsubr
          6 -201 18 callsubr
          58 4 96 2 106 111 119 -2 71 hflex1
          11 41 rlineto
          -127 4 -49 13 68 vvcurveto
          23 6 30 10 38 vhcurveto
          126 471 rlineto
          150 hlineto
          112 28 -55 -73 -43 -10 -50 -7 -49 hvcurveto
          47 hlineto
          33 155 17 68 16 68 18 67 15 68 51 155 rrcurveto
          -47 hlineto
          -98 -41 -43 -172 -178 hhcurveto
          -150 hlineto
          135 504 rlineto
          hintmask 11101000
          149 41 31 21 139 hhcurveto
          109 hlineto
          181 55 -49 -130 -53 -9 -68 -14 -83 hvcurveto
          47 hlineto
          8 43 12 59 19 66 rrcurveto
          hintmask 11011000
          14 51 33 107 37 104 rrcurveto
          hintmask 11101000
          36 callsubr
        </CharString>
        <CharString name="G">
          149 -29 82 callgsubr
          hintmask 10110100
          647 12 -78 callsubr
        </CharString>
        <CharString name="Gacute">
          149 -29 82 callgsubr
          hintmask 10110100
          888 1581 rmoveto
          -65 callgsubr
          -95 callgsubr
          -13 -21 hvcurveto
          -96 -57 -22 callgsubr
          rrcurveto
          -227 -1592 -78 callsubr
        </CharString>
        <CharString name="Gbreve">
          149 -29 41 9 -21 582 41 819 37 -29 -20 172 137 hstemhm
          102 191 hintmask 10110110
          1046 1739 rmoveto
          -150 -90 26 84 -71 hvcurveto
          -33 -10 -62 callgsubr
          -399 -1727 -44 callgsubr
          hintmask 10101110
          47 219 43 145 41 107 rrcurveto
          -45 hlineto
          -87 -30 -25 -36 -26 hhcurveto
          -12 -12 7 12 -12 hvcurveto
          hintmask 10110110
          73 -75 -82 60 -179 hhcurveto
          -534 -363 -576 -463 -299 181 -170 335 134 108 43 68 107 hvcurveto
          31 49 12 4 16 hhcurveto
          hintmask 01110110
          -69 callsubr
          hintmask 10110110
          -14 -51 -21 -43 -59 -35 rrcurveto
          -29 -50 -86 -35 -98 hhcurveto
          endchar
        </CharString>
        <CharString name="Gcircumflex">
          149 -29 82 callgsubr
          hintmask 10110100
          1030 -89 callsubr
          -383 -1708 -78 callsubr
        </CharString>
        <CharString name="Gcommaaccent">
          149 295 callsubr
          112 82 callgsubr
          389 64 hintmask 01011011
          647 12 -44 callgsubr
          hintmask 01010111
          47 219 43 145 41 107 rrcurveto
          -45 hlineto
          -87 -30 -25 -36 -26 hhcurveto
          -12 -12 7 12 -12 hvcurveto
          hintmask 01011011
          73 -75 -82 60 -179 hhcurveto
          -534 -363 -576 -463 -299 181 -170 335 134 108 43 68 107 hvcurveto
          31 49 12 4 16 hhcurveto
          hintmask 00111011
          -69 callsubr
          hintmask 01011011
          -14 -51 -21 -43 -59 -35 rrcurveto
          -29 -50 -86 -35 -98 hhcurveto
          hintmask 11011011
          -147 -284 rmoveto
          99 callsubr
          vhcurveto
          -68 callsubr
          -76 -57 -62 -69 vhcurveto
          endchar
        </CharString>
        <CharString name="Gdotaccent">
          149 -29 82 callgsubr
          650 256 hintmask 10110110
          943 1690 -2 callgsubr
          -296 -1678 -44 callgsubr
          hintmask 10101110
          47 219 43 145 41 107 rrcurveto
          -45 hlineto
          -87 -30 -25 -36 -26 hhcurveto
          -12 -12 7 12 -12 hvcurveto
          hintmask 10110110
          73 -75 -82 60 -179 hhcurveto
          -534 -363 -576 -463 -299 181 -170 335 134 108 43 68 107 hvcurveto
          31 49 12 4 16 hhcurveto
          hintmask 01110110
          -69 callsubr
          hintmask 10110110
          -14 -51 -21 -43 -59 -35 rrcurveto
          -29 -50 -86 -35 -98 hhcurveto
          endchar
        </CharString>
        <CharString name="H">
          152 callsubr
          1415 1444 273 callgsubr
          -62 hvcurveto
          -49 callgsubr
          98 -4 41 279 callsubr
          -12 -42 vhcurveto
          -129 -483 rlineto
          -657 246 callgsubr
          39 149 31 21 141 6 rlinecurve
          10 41 rlineto
          -65 -105 callsubr
          210 callgsubr
          657 hlineto
          -131 -492 -39 -149 -32 -21 -140 -6 rlinecurve
          -8 77 callgsubr
          57 hflex1
          9 41 rlineto
          -100 4 -39 12 60 vvcurveto
          25 7 74 callsubr
          -4 -59 200 callsubr
        </CharString>
        <CharString name="Hbar">
          255 0 41 668 41 301 41 317 41 hstem
          -64 1747 vstem
          1683 1450 rmoveto
          -59 280 callsubr
          -94 -102 2 -62 hflex1
          -49 callgsubr
          98 -4 41 279 callsubr
          -12 -42 vhcurveto
          -38 -141 rlineto
          -657 hlineto
          37 141 0 callsubr
          -37 -141 rlineto
          -149 hlineto
          -10 callgsubr
          149 hlineto
          -222 -834 86 callgsubr
          -39 -149 -32 -21 -140 -6 rlinecurve
          -8 77 callgsubr
          57 hflex1
          9 132 callgsubr
          222 834 rlineto
          192 hlineto
          -23 callsubr
          -191 hlineto
          37 141 25 callsubr
          -450 -358 rmoveto
          -80 -301 rlineto
          -657 hlineto
          80 301 rlineto
          endchar
        </CharString>
        <CharString name="Hcircumflex">
          152 callsubr
          1028 -89 callsubr
          387 -276 273 callgsubr
          -62 hvcurveto
          -49 callgsubr
          98 -4 41 279 callsubr
          -12 -42 vhcurveto
          -129 -483 rlineto
          -657 246 callgsubr
          39 149 31 21 141 6 rlinecurve
          10 41 rlineto
          -65 -105 callsubr
          210 callgsubr
          657 hlineto
          -131 -492 -39 -149 -32 -21 -140 -6 rlinecurve
          -8 77 callgsubr
          57 hflex1
          9 41 rlineto
          -100 4 -39 12 60 vvcurveto
          25 7 74 callsubr
          -4 -59 200 callsubr
        </CharString>
        <CharString name="I">
          123 callgsubr
          hstem
          -68 899 vstem
          610 1233 rmoveto
          -40 callgsubr
          10 41 rcurveline
          -65 -105 callsubr
          endchar
        </CharString>
        <CharString name="IJ">
          388 -385 33 352 41 668 41 271 38 176 59 56 163 hstem
          221 86 258 199 vstem
          1839 1495 rmoveto
          7 -9 -9 4 -9 hhcurveto
          -37 -43 -50 -70 -44 hvcurveto
          -55 -132 -88 -37 -139 -325 -156 219 -332 hhcurveto
          -170 -125 -112 -148 -166 167 -55 143 -11 hvcurveto
          -234 -804 -43 -147 -29 -23 194 callgsubr
          -103 1 -37 20 56 vvcurveto
          25 7 33 12 41 vhcurveto
          238 818 61 15 62 24 51 34 rlinecurve
          -16 31 rlineto
          -52 -80 -98 -28 -89 hhcurveto
          -122 -187 33 129 86 78 43 113 hvcurveto
          307 162 -115 305 hhcurveto
          133 139 55 68 129 hvcurveto
          -210 -180 -167 -129 -98 -299 rrcurveto
          -254 hlineto
          -8 -41 rlineto
          249 hlineto
          -9 -33 -9 -35 -8 -37 -65 -307 rcurveline
          -328 -72 -39 -321 -225 hhcurveto
          -29 -24 4 6 -19 hvcurveto
          41 19 37 36 47 vvcurveto
          48 -38 40 -52 -65 -44 -56 -57 -81 88 -39 125 258 148 244 274 59 vhcurveto
          125 563 3 13 rlineto
          222 hlineto
          9 41 rlineto
          -222 hlineto
          68 286 83 181 175 147 rrcurveto
          106 41 41 36 28 vvcurveto
          10 -5 8 -9 8 vhcurveto
          endchar
        </CharString>
        <CharString name="Iacute">
          123 callgsubr
          hstem
          -68 1094 vstem
          499 1581 rmoveto
          -65 callgsubr
          -95 callgsubr
          -13 -21 hvcurveto
          -96 -57 -22 callgsubr
          rrcurveto
          125 -371 rmoveto
          -40 callgsubr
          10 41 rcurveline
          -65 -105 callsubr
          endchar
        </CharString>
        <CharString name="Ibreve">
          123 callgsubr
          152 137 hstem
          -68 1198 vstem
          657 1739 rmoveto
          -150 -90 26 84 -71 hvcurveto
          -33 -10 -62 callgsubr
          -47 -506 rmoveto
          -40 callgsubr
          10 41 rcurveline
          -65 -105 callsubr
          endchar
        </CharString>
        <CharString name="Icircumflex">
          123 callgsubr
          hstem
          -68 1080 vstem
          641 -89 callsubr
          -31 -487 rmoveto
          -40 callgsubr
          10 41 rcurveline
          -65 -105 callsubr
          endchar
        </CharString>
        <CharString name="Idieresis">
          0 41 1368 278 callgsubr
          284 55 callsubr
          hintmask 00000000
          hintmask 11111000
          284 1686 -79 callsubr
          -109 -453 rmoveto
          -40 callgsubr
          10 41 rcurveline
          -65 -105 callsubr
          endchar
        </CharString>
        <CharString name="Idotaccent">
          123 callgsubr
          hstemhm
          554 256 hintmask 00000000
          hintmask 11100000
          554 1690 -2 callgsubr
          56 -457 rmoveto
          -40 callgsubr
          10 41 rcurveline
          -65 -105 callsubr
          endchar
        </CharString>
        <CharString name="Igrave">
          123 callgsubr
          hstem
          -68 899 vstem
          692 1595 rmoveto
          -61 callsubr
          21 callsubr
          rrcurveto
          -61 -342 rmoveto
          -40 callgsubr
          10 41 rcurveline
          -65 -105 callsubr
          endchar
        </CharString>
        <CharString name="Imacron">
          123 callgsubr
          227 52 hstem
          -68 1050 vstem
          970 104 callgsubr
          361 -444 rmoveto
          -40 callgsubr
          10 41 rcurveline
          -65 -105 callsubr
          endchar
        </CharString>
        <CharString name="Iogonek">
          -385 98 308 -21 1409 41 0 -20 hstemhm
          76 156 hintmask 11011000
          569 248 callgsubr
          -106 -98 2 4 -56 hvcurveto
          hintmask 11101000
          -64 callsubr
          110 callgsubr
          60 callgsubr
          -135 173 callsubr
          4 60 94 2 107 hhcurveto
          66 70 -1 -2 58 hvcurveto
          -128 -44 -183 -91 -134 -42 callsubr
          115 137 73 105 29 hvcurveto
          -20 hlineto
          7 35 rlineto
          -99 4 -39 12 61 vvcurveto
          24 6 74 callsubr
          hintmask 11011000
          -4 -65 -102 -2 -95 hhcurveto
          endchar
        </CharString>
        <CharString name="Itilde">
          123 callgsubr
          131 102 48 102 hstem
          -68 1137 vstem
          535 -24 callgsubr
          75 -600 rmoveto
          -40 callgsubr
          10 41 rcurveline
          -65 -105 callsubr
          endchar
        </CharString>
        <CharString name="J">
          96 callgsubr
          1509 1495 -83 callgsubr
        </CharString>
        <CharString name="Jcircumflex">
          96 callgsubr
          1014 -89 callsubr
          495 -225 -83 callgsubr
        </CharString>
        <CharString name="K">
          103 callgsubr
          hintmask 00000000
          hintmask 10101110
          1327 257 callgsubr
          -37 -39 -11 -36 -47 hvcurveto
          -166 -140 38 -473 -355 -43 rrcurveto
          14 -56 -40 7 -29 hhcurveto
          -46 -15 -17 -24 -24 15 -17 48 27 38 5 14 53 hvcurveto
          47 -40 28 -46 -129 vvcurveto
          -24 -1 -26 -2 -29 vhcurveto
          -14 -231 rlineto
          -1 -12 0 -12 -11 vvcurveto
          -132 54 -71 119 117 82 68 151 51 vhcurveto
          53 158 rlineto
          -41 hlineto
          -34 -104 rlineto
          155 callsubr
          -70 hhcurveto
          -51 -11 32 48 hvcurveto
          8 1 8 8 vvcurveto
          8 232 rlineto
          12 1 12 11 vvcurveto
          236 -88 38 -126 28 vhcurveto
          346 41 -15 475 148 134 20 16 19 11 35 217 callgsubr
          -29 -52 -40 vvcurveto
          -41 22 -41 58 88 31 95 47 60 -32 50 -89 vhcurveto
          -717 -246 rmoveto
          hintmask 01010100
          -40 callgsubr
          10 41 rcurveline
          -65 -105 callsubr
          endchar
        </CharString>
        <CharString name="Kcommaaccent">
          87 -29 113 -84 41 674 82 612 41 -14 43 hstemhm
          584 64 143 179 279 199 hintmask 00000000
          hintmask 10101111
          1327 257 callgsubr
          -37 -39 -11 -36 -47 hvcurveto
          -166 -140 38 -473 -355 -43 rrcurveto
          14 -56 -40 7 -29 hhcurveto
          -46 -15 -17 -24 -24 15 -17 48 27 38 5 14 53 hvcurveto
          47 -40 28 -46 -129 vvcurveto
          -24 -1 -26 -2 -29 vhcurveto
          -14 -231 rlineto
          -1 -12 0 -12 -11 vvcurveto
          -132 54 -71 119 117 82 68 151 51 vhcurveto
          53 158 rlineto
          -41 hlineto
          -34 -104 rlineto
          155 callsubr
          -70 hhcurveto
          -51 -11 32 48 hvcurveto
          8 1 8 8 vvcurveto
          8 232 rlineto
          12 1 12 11 vvcurveto
          236 -88 38 -126 28 vhcurveto
          346 41 -15 475 148 134 20 16 19 11 35 217 callgsubr
          -29 -52 -40 vvcurveto
          -41 22 -41 58 88 31 95 47 60 -32 50 -89 vhcurveto
          hintmask 01010110
          -866 -1438 rmoveto
          -99 4 -39 12 61 vvcurveto
          24 6 32 11 43 vhcurveto
          270 1016 0 callsubr
          110 callgsubr
          -56 callgsubr
          82 -141 rmoveto
          -76 -57 -62 -69 -58 39 -30 53 35 35 14 18 20 hvcurveto
          -68 callsubr
          vhcurveto
          endchar
        </CharString>
        <CharString name="L">
          -95 244 callgsubr
          hstem
          -72 1168 vstem
          -1 callsubr
          endchar
        </CharString>
        <CharString name="Lacute">
          -95 244 callgsubr
          hstem
          -72 1168 vstem
          464 1581 rmoveto
          -65 callgsubr
          -95 callgsubr
          -13 -21 hvcurveto
          -96 -57 -22 callgsubr
          rrcurveto
          599 -1174 -85 callgsubr
          endchar
        </CharString>
        <CharString name="Lcaron">
          -95 244 callgsubr
          23 -20 hstemhm
          -72 1238 -174 174 hintmask 11010000
          876 985 rmoveto
          hintmask 10101000
          228 callsubr
          hintmask 11001000
          170 callgsubr
          202 -563 -85 callgsubr
          endchar
        </CharString>
        <CharString name="Lcommaaccent">
          -95 295 callsubr
          141 47 1362 41 hstem
          575 64 vstem
          -1 callsubr
          -703 -702 rmoveto
          99 callsubr
          vhcurveto
          -68 callsubr
          -76 -57 -62 -69 vhcurveto
          endchar
        </CharString>
        <CharString name="Ldot">
          -72 244 callgsubr
          hstemhm
          -72 1266 -257 257 hintmask 11100000
          -1 callsubr
          hintmask 11010000
          -159 271 rmoveto
          -82 callsubr
          endchar
        </CharString>
        <CharString name="Lslash">
          -93 244 callgsubr
          hstem
          -68 1168 vstem
          1053 430 31 callsubr
          109 407 591 298 13 47 -591 -297 150 561 0 callgsubr
          -174 -651 -209 -105 -12 -47 208 105 -85 -318 -41 -149 -31 -28 callgsubr
          199 6 270 0 123 137 193 0 139 hflex1
          17 104 24 107 14 51 19 66 16 59 17 43 rrcurveto
          endchar
        </CharString>
        <CharString name="M">
          -46 callgsubr
        </CharString>
        <CharString name="N">
          79 callgsubr
          1663 1544 -102 callgsubr
          endchar
        </CharString>
        <CharString name="NULL">
          -1295 endchar
        </CharString>
        <CharString name="Nacute">
          79 callgsubr
          1405 -66 callgsubr
          258 -230 -102 callgsubr
          endchar
        </CharString>
        <CharString name="Nacute.loclPLK">
          79 callgsubr
          1276 1776 rmoveto
          -26 callgsubr
          21 -15 rcurveline
          93 callsubr
          56 rrcurveto
          387 -232 -102 callgsubr
          endchar
        </CharString>
        <CharString name="Ncaron">
          79 callgsubr
          1082 -33 callgsubr
          618 -53 -102 callgsubr
          endchar
        </CharString>
        <CharString name="Ncommaaccent">
          31 callgsubr
          84 64 884 199 vstem
          1663 1544 -102 callgsubr
          -1073 -1685 rmoveto
          -76 -57 -62 -69 -58 39 -30 53 35 35 14 18 20 hvcurveto
          -68 callsubr
          vhcurveto
          endchar
        </CharString>
        <CharString name="Ntilde">
          282 -152 43 120 226 callsubr
          51 43 37 102 48 102 184 callgsubr
          1032 199 vstem
          900 1731 rmoveto
          141 27 -150 186 -13 callsubr
          -141 -27 150 -186 hhcurveto
          52 callgsubr
          hhcurveto
          763 -187 -102 callgsubr
          endchar
        </CharString>
        <CharString name="O">
          -2 callsubr
          111 463 -97 callsubr
        </CharString>
        <CharString name="OE">
          663 -29 37 -2 41 -26 -21 709 41 653 41 -41 47 -8 37 hstemhm
          115 217 hintmask 01011001
          1651 248 callgsubr
          -109 -217 0 4 -190 hvcurveto
          hintmask 10010011
          20 -60 -69 11 -78 hhcurveto
          -492 -321 -564 -452 -313 161 -179 279 70 75 13 18 64 hvcurveto
          hintmask 01011001
          4 182 205 0 102 hhcurveto
          hintmask 00111001
          131 179 0 -6 133 hvcurveto
          12 104 27 107 14 51 16 57 11 54 16 37 rrcurveto
          -45 hlineto
          hintmask 01011001
          -271 -90 -80 -92 -197 hhcurveto
          -190 hlineto
          -96 -38 11 60 -66 callsubr
          hvcurveto
          210 callgsubr
          203 266 callgsubr
          23 135 14 56 17 59 22 197 callgsubr
          -110 -123 hhcurveto
          -200 246 callgsubr
          rlineto
          149 39 31 21 135 hhcurveto
          170 161 callsubr
          -48 -10 -57 hvcurveto
          45 hlineto
          31 8 47 19 49 vhcurveto
          hintmask 01010101
          14 47 27 99 37 96 rrcurveto
          hintmask 01011001
          237 callsubr
          -768 -1227 rmoveto
          hintmask 10010011
          -166 -43 -95 -43 -172 hhcurveto
          -141 -100 160 268 494 280 512 322 129 101 -18 -115 -21 -3 -26 -8 -29 hvcurveto
          endchar
        </CharString>
        <CharString name="Oacute">
          -2 callsubr
          899 1581 rmoveto
          -65 callgsubr
          -95 callgsubr
          -13 -21 hvcurveto
          -96 -57 -22 callgsubr
          rrcurveto
          -774 -1141 -97 callsubr
        </CharString>
        <CharString name="Oacute.loclPLK">
          -2 callsubr
          977 1554 rmoveto
          93 callsubr
          56 rrcurveto
          -26 callgsubr
          rrcurveto
          -845 -1106 -97 callsubr
        </CharString>
        <CharString name="Obreve">
          198 109 callgsubr
          123 137 hstem
          111 217 901 219 vstem
          1057 1739 rmoveto
          -150 -90 26 84 -71 hvcurveto
          -33 -10 -62 callgsubr
          -946 -1276 -97 callsubr
        </CharString>
        <CharString name="Ocircumflex">
          -2 callsubr
          1041 -89 callsubr
          -930 -1257 -97 callsubr
        </CharString>
        <CharString name="Odieresis">
          198 109 callgsubr
          102 238 hstemhm
          111 217 356 55 callsubr
          -129 219 hintmask 11111010
          684 1686 -51 callsubr
          hintmask 11111100
          435 hmoveto
          -60 41 -45 61 -56 callsubr
          vhcurveto
          -1008 -1223 rmoveto
          -313 178 -179 303 vhcurveto
          hintmask 11111010
          514 342 564 450 315 -180 179 -303 hvcurveto
          hintmask 11111100
          -516 -338 -564 -452 hvcurveto
          835 979 rmoveto
          hintmask 11111010
          166 117 -160 -268 -494 -301 -512 -318 -166 -116 160 268 hvcurveto
          hintmask 11111100
          54 callgsubr
          vhcurveto
          endchar
        </CharString>
        <CharString name="Ograve">
          -2 callsubr
          1092 1595 rmoveto
          -61 callsubr
          21 callsubr
          rrcurveto
          -960 -1112 -97 callsubr
        </CharString>
        <CharString name="Ohungarumlaut">
          -2 callsubr
          1133 -43 callgsubr
          -627 -1143 -97 callsubr
        </CharString>
        <CharString name="Omacron">
          198 109 callgsubr
          198 52 hstem
          111 217 901 219 vstem
          1370 104 callgsubr
          -538 -1214 -97 callsubr
        </CharString>
        <CharString name="Omega">
          335 0 47 1395 37 hstemhm
          240 204 -184 41 913 205 hintmask 11101000
          829 257 callgsubr
          -380 -209 -193 -319 -367 264 -194 190 -359 hvcurveto
          -98 hlineto
          hintmask 11011000
          -201 -71 86 256 -23 hvcurveto
          -47 hlineto
          4 -37 2 -53 -57 vvcurveto
          -47 -4 -99 -10 -96 vhcurveto
          59 6 92 0 58 84 92 -4 114 hflex1
          33 vlineto
          hintmask 11101000
          -100 149 -201 344 400 vvcurveto
          323 103 193 282 283 102 -193 -323 -400 -200 -344 -101 -149 vhcurveto
          -33 vlineto
          115 2 92 4 84 58 92 0 59 hflex1
          -10 96 -4 99 47 vvcurveto
          57 2 53 4 37 vhcurveto
          -47 hlineto
          -256 -23 -71 -86 -201 hhcurveto
          -98 hlineto
          190 359 264 194 367 vvcurveto
          319 -209 193 -381 vhcurveto
          endchar
        </CharString>
        <CharString name="Oslash">
          -2 callsubr
          1612 1556 rmoveto
          -31 27 -242 -253 rlineto
          97 -83 -128 52 -163 hhcurveto
          -516 -338 -564 -452 -133 32 -109 61 -82 hvcurveto
          -245 -260 35 -29 239 255 rlineto
          -87 82 122 -47 155 hhcurveto
          514 342 564 450 126 -29 105 -54 79 hvcurveto
          -419 147 rmoveto
          122 96 -87 -152 42 hvcurveto
          -861 -930 rlineto
          -11 49 -6 54 60 vvcurveto
          54 callgsubr
          vhcurveto
          -336 -1434 rmoveto
          -115 -92 77 137 -44 hvcurveto
          858 930 rlineto
          8 -42 4 -46 -50 vvcurveto
          -494 -301 -512 -318 vhcurveto
          endchar
        </CharString>
        <CharString name="Otilde">
          198 109 callgsubr
          102 102 48 102 hstem
          111 217 901 219 vstem
          935 -24 callgsubr
          -824 -1370 -97 callsubr
        </CharString>
        <CharString name="P">
          -27 callsubr
        </CharString>
        <CharString name="Q">
          304 -385 139 78 35 14 221 19 45 332 47 313 221 0 -20 383 37 hstemhm
          -92 39 301 209 555 41 151 223 -100 213 hintmask 0000000000000000
          hintmask 1111101111110000
          1325 102 rmoveto
          -70 -51 -59 -63 -56 37 -43 64 20 23 4 9 20 hvcurveto
          -109 -65 -105 -31 -125 hhcurveto
          -227 -145 103 102 -129 hvcurveto
          hintmask 1101101111101000
          449 213 519 445 438 vvcurveto
          264 -201 160 -327 -383 -381 -260 -363 -211 129 -147 235 260 181 178 203 120 -64 80 -98 -82 -59 -53 -72 vhcurveto
          hintmask 1101110111101000
          -55 34 -41 62 59 64 35 57 28 vhcurveto
          11 -18 4 -37 -27 vvcurveto
          -145 -133 -178 -189 -133 -100 88 205 292 205 312 315 227 123 -162 -238 -413 -390 -443 -397 -201 vhcurveto
          94 -118 -109 87 -155 hhcurveto
          -144 -106 -74 -108 -95 78 -57 135 81 101 22 39 110 hvcurveto
          -134 127 148 -144 215 hhcurveto
          hintmask 1101101111110000
          244 280 184 187 hvcurveto
          hintmask 1111101111110000
          73 -43 43 -59 vhcurveto
          hintmask 1101101111101000
          -1182 -235 rmoveto
          -120 -76 35 86 84 76 49 73 102 89 -95 -107 102 hvcurveto
          -32 -87 -85 -20 -74 hhcurveto
          endchar
        </CharString>
        <CharString name="R">
          91 callsubr
          1212 248 rmoveto
          -10 -29 rlineto
          hintmask 10111010
          97 callgsubr
          hintmask 01110110
          41 callgsubr
          hintmask 01110010
          177 callgsubr
          -59 callgsubr
          -784 481 28 callsubr
          endchar
        </CharString>
        <CharString name="Racute">
          91 callsubr
          1171 -66 callgsubr
          41 -1526 rmoveto
          -10 -29 rlineto
          hintmask 10111010
          97 callgsubr
          hintmask 01110110
          41 callgsubr
          hintmask 01110010
          177 callgsubr
          -59 callgsubr
          -784 481 28 callsubr
          endchar
        </CharString>
        <CharString name="Rcaron">
          91 callsubr
          848 -33 callgsubr
          459 -438 rmoveto
          -59 callgsubr
          -48 hlineto
          -10 -29 rlineto
          97 callgsubr
          hintmask 01110110
          41 callgsubr
          hintmask 01110010
          177 callgsubr
          -794 -430 28 callsubr
          endchar
        </CharString>
        <CharString name="Rcommaaccent">
          65 -29 76 -47 41 647 41 680 39 hstemhm
          647 64 111 192 -171 191 29 207 hintmask 01111101
          1212 248 rmoveto
          -10 -29 rlineto
          hintmask 10111101
          97 callgsubr
          hintmask 01111011
          41 callgsubr
          hintmask 01111101
          177 callgsubr
          174 -133 115 -275 vhcurveto
          -102 -98 -4 -99 hhcurveto
          -90 -106 147 callsubr
          104 -1 35 -22 -57 vvcurveto
          -25 -7 -31 -11 -40 vhcurveto
          110 callgsubr
          -10 callsubr
          -107 1 -33 22 53 vvcurveto
          26 8 33 11 41 vhcurveto
          125 471 rlineto
          hintmask 01111011
          308 -2 70 -59 -166 vvcurveto
          -20 -1 -21 -2 -23 vhcurveto
          hintmask 10111101
          -17 -229 rlineto
          -6 -1 -6 -6 vvcurveto
          -93 58 -86 128 129 67 84 166 47 vhcurveto
          9 27 rlineto
          -784 481 28 callsubr
          59 -870 rmoveto
          -76 -57 -62 -69 -58 39 -30 53 35 35 14 18 20 hvcurveto
          -68 callsubr
          vhcurveto
          endchar
        </CharString>
        <CharString name="S">
          12 callgsubr
          hintmask 00000000
          hintmask 10011100
          1139 1464 -101 callgsubr
        </CharString>
        <CharString name="Sacute">
          12 callgsubr
          hintmask 10101100
          675 1581 rmoveto
          -65 callgsubr
          -95 callgsubr
          -13 -21 hvcurveto
          -96 -57 -22 callgsubr
          rrcurveto
          hintmask 10011100
          478 -140 -101 callgsubr
        </CharString>
        <CharString name="Sacute.loclPLK">
          12 callgsubr
          hintmask 10101100
          753 1554 rmoveto
          93 callsubr
          56 rrcurveto
          -26 callgsubr
          rrcurveto
          hintmask 10011100
          407 -105 -101 callgsubr
        </CharString>
        <CharString name="Scaron">
          12 callgsubr
          hintmask 10101100
          856 -15 callsubr
          hintmask 10011100
          283 -289 -101 callgsubr
        </CharString>
        <CharString name="Scedilla">
          -160 133 callsubr
          104 41 -39 39 -5 -21 1454 39 -15 -20 hstemhm
          287 166 24 131 152 211 hintmask 0000000000000000
          hintmask 1010001101000000
          263 callsubr
          hintmask 1010010101000000
          -14 -21 12 25 -32 hvcurveto
          59 -78 -74 27 -115 hhcurveto
          -223 -227 -136 -264 hvcurveto
          -379 473 -88 -344 vvcurveto
          -178 -123 -78 -178 -226 -100 113 186 -8 vhcurveto
          -2 58 10 51 10 57 rrcurveto
          -41 hlineto
          hintmask 1000110101000000
          -61 -284 -41 -119 -37 -88 rrcurveto
          41 hlineto
          73 31 18 37 35 hhcurveto
          hintmask 1101010111000000
          16 27 -6 -24 31 hvcurveto
          43 -34 65 -48 126 -11 -81 -170 rcurveline
          -73 callgsubr
          hintmask 1010010101000000
          56 118 rlineto
          2 hlineto
          237 281 119 283 hvcurveto
          340 -518 157 310 vvcurveto
          178 122 82 164 207 84 -127 -150 -37 -4 -41 -8 -38 vhcurveto
          41 hlineto
          hintmask 1010001101000000
          95 callgsubr
        </CharString>
        <CharString name="Scircumflex">
          12 callgsubr
          hintmask 10101100
          817 -89 callsubr
          hintmask 10011100
          322 -256 -101 callgsubr
        </CharString>
        <CharString name="Scommaaccent">
          -160 295 callsubr
          112 41 -5 -21 1454 39 -15 -20 hstemhm
          287 166 34 64 209 211 hintmask 00000000
          hintmask 01001111
          263 callsubr
          hintmask 01010111
          -14 -21 12 25 -32 hvcurveto
          59 -78 -74 27 -115 hhcurveto
          -223 -227 -136 -264 hvcurveto
          -379 473 -88 -344 vvcurveto
          -178 -123 -78 -178 -226 -100 113 186 -8 vhcurveto
          -2 58 10 51 10 57 rrcurveto
          -41 hlineto
          hintmask 00110111
          -61 -284 -41 -119 -37 -88 rrcurveto
          41 hlineto
          73 31 18 37 35 hhcurveto
          hintmask 01010111
          16 27 -6 -24 31 hvcurveto
          -39 49 78 -56 164 hhcurveto
          237 281 119 283 hvcurveto
          340 -518 157 310 vvcurveto
          178 122 82 164 207 84 -127 -150 -37 -4 -41 -8 -38 vhcurveto
          41 hlineto
          hintmask 11001111
          55 callgsubr
          71 rrcurveto
          -875 -1736 rmoveto
          99 callsubr
          vhcurveto
          -68 callsubr
          -76 -57 -62 -69 vhcurveto
          endchar
        </CharString>
        <CharString name="T">
          55 0 119 callsubr
          1078 192 hintmask 10111000
          1573 1673 -72 callgsubr
        </CharString>
        <CharString name="Tbar">
          87 0 41 668 41 610 41 20 37 hstemhm
          207 192 1078 192 hintmask 11011100
          1577 1673 267 callsubr
          75 callsubr
          hintmask 11011100
          -238 -193 57 -243 hhcurveto
          -47 -136 -2 -45 -92 hvcurveto
          -84 -41 -24 -63 -56 vvcurveto
          -61 30 -41 60 72 30 63 56 41 -16 49 -21 28 vhcurveto
          29 43 101 6 86 hhcurveto
          86 88 -10 -13 90 hvcurveto
          -173 -648 rlineto
          -329 201 callgsubr
          328 hlineto
          -125 -471 -45 -148 -43 -43 -172 -6 rlinecurve
          -9 -41 rlineto
          -5 callsubr
          125 471 rlineto
          330 hlineto
          -23 callsubr
          -329 hlineto
          hintmask 11111100
          166 624 rlineto
          -8 69 70 -6 71 hhcurveto
          148 106 24 43 70 hvcurveto
          53 33 43 51 64 vvcurveto
          hintmask 11011100
          53 -29 45 -63 vhcurveto
          endchar
        </CharString>
        <CharString name="Tcaron">
          55 0 119 callsubr
          1078 192 hintmask 10111000
          977 -33 callgsubr
          633 76 -72 callgsubr
        </CharString>
        <CharString name="Tcedilla">
          55 133 callsubr
          133 119 callsubr
          217 131 730 192 hintmask 11101111
          1573 234 callsubr
          hintmask 11111111
          75 callsubr
          hintmask 11101111
          -238 -193 57 -243 hhcurveto
          -47 -136 -2 -45 -92 hvcurveto
          -84 -41 -24 -63 -56 vvcurveto
          -61 30 -41 60 72 30 63 56 41 -16 49 -21 28 vhcurveto
          29 43 101 6 86 hhcurveto
          86 88 -10 -13 90 hvcurveto
          -309 -1160 -45 -148 -43 -43 -172 -6 rlinecurve
          -9 -41 rlineto
          4 61 105 2 107 hhcurveto
          -97 -203 rlineto
          -73 callgsubr
          73 153 rlineto
          107 103 -2 -4 66 hvcurveto
          43 callsubr
          hintmask 11111111
          302 1136 rlineto
          -8 69 70 -6 71 hhcurveto
          148 106 24 43 70 hvcurveto
          53 33 43 51 64 vvcurveto
          hintmask 11101111
          53 -29 45 -63 vhcurveto
          endchar
        </CharString>
        <CharString name="Thorn">
          -56 0 41 270 41 787 39 231 41 hstem
          1012 207 vstem
          365 312 rmoveto
          81 -1 rlineto
          459 314 236 321 187 -134 123 -274 -73 -72 -2 -1 -71 hvcurveto
          15 58 39 149 31 21 141 6 rlinecurve
          10 41 rlineto
          -65 -105 callsubr
          36 135 rmoveto
          207 780 rlineto
          4 47 37 3 85 hhcurveto
          184 76 -78 -160 -305 -140 -244 -405 hvcurveto
          endchar
        </CharString>
        <CharString name="U">
          122 callsubr
          178 callgsubr
          1124 573 -107 callsubr
        </CharString>
        <CharString name="Uacute">
          122 callsubr
          178 callgsubr
          858 1581 rmoveto
          -65 callgsubr
          -95 callgsubr
          -13 -21 hvcurveto
          -96 -57 -22 callgsubr
          rrcurveto
          280 -1031 -107 callsubr
        </CharString>
        <CharString name="Ubreve">
          122 callsubr
          152 137 178 callgsubr
          1016 1739 rmoveto
          -150 -90 26 84 -71 hvcurveto
          -33 -10 -62 callgsubr
          108 -1166 -107 callsubr
        </CharString>
        <CharString name="Ucircumflex">
          122 callsubr
          178 callgsubr
          1000 -89 callsubr
          124 -1147 -107 callsubr
        </CharString>
        <CharString name="Udieresis">
          122 callsubr
          131 238 hstem
          170 184 289 55 callsubr
          vstem
          643 1686 -79 callsubr
          46 -1113 -107 callsubr
        </CharString>
        <CharString name="Ugrave">
          122 callsubr
          178 callgsubr
          1051 1595 rmoveto
          -61 callsubr
          21 callsubr
          rrcurveto
          94 -1002 -107 callsubr
        </CharString>
        <CharString name="Uhungarumlaut">
          122 callsubr
          178 callgsubr
          1092 -43 callgsubr
          427 -1033 -107 callsubr
        </CharString>
        <CharString name="Umacron">
          122 callsubr
          227 52 178 callgsubr
          1329 104 callgsubr
          516 -1104 -107 callsubr
        </CharString>
        <CharString name="Uogonek">
          102 -385 98 258 72 1366 41 hstemhm
          170 184 -2 156 hintmask 11110000
          1372 248 callgsubr
          -69 -91 2 4 -47 hvcurveto
          257 callsubr
          -5 47 -24 -77 vvcurveto
          -25 -5 -30 -9 -36 vhcurveto
          -168 -639 -52 callsubr
          181 678 38 78 callgsubr
          142 6 rlinecurve
          12 188 callgsubr
          -96 -2 -94 -107 -102 2 -55 hflex1
          -13 -32 callsubr
          -170 -643 rlineto
          -32 -122 -19 -97 -81 vvcurveto
          -85 21 -66 51 -57 vhcurveto
          -80 69 113 -31 133 hhcurveto
          26 1 rlineto
          hintmask 11101000
          -113 -51 -118 -79 -108 -42 callsubr
          97 97 67 94 36 hvcurveto
          111 29 97 62 70 82 -12 callsubr
          159 616 rcurveline
          37 150 39 41 140 callsubr
          hintmask 11110000
          -4 -47 -76 -2 -70 hhcurveto
          endchar
        </CharString>
        <CharString name="Uring">
          122 callsubr
          70 43 288 43 hstem
          170 184 456 247 callsubr
          1033 91 callgsubr
          136 -990 -107 callsubr
        </CharString>
        <CharString name="Utilde">
          122 callsubr
          131 102 48 102 178 callgsubr
          894 -24 callgsubr
          230 -1260 -107 callsubr
        </CharString>
        <CharString name="V">
          -1 11 226 callsubr
          hstem
          197 1323 vstem
          1364 248 callgsubr
          -72 -86 2 4 -76 hvcurveto
          -49 callgsubr
          99 -2 53 -24 -62 vvcurveto
          -46 -28 -65 -60 -92 vhcurveto
          -568 -870 -116 989 rlineto
          -2 20 -2 17 16 vvcurveto
          103 56 11 112 5 vhcurveto
          -23 callsubr
          -60 -4 -79 -2 -107 -78 -90 2 -53 hflex1
          -10 -41 39 -2 55 -31 12 -98 rlinecurve
          162 -1288 rlineto
          31 hlineto
          807 1241 77 123 72 43 57 12 271 callgsubr
          -43 -43 -2 -70 hhcurveto
          endchar
        </CharString>
        <CharString name="W">
          119 callgsubr
          1880 1444 -96 callsubr
        </CharString>
        <CharString name="Wacute">
          119 callgsubr
          1515 -66 callgsubr
          365 -330 -96 callsubr
        </CharString>
        <CharString name="Wcircumflex">
          119 callgsubr
          1202 -89 callsubr
          678 -276 -96 callsubr
        </CharString>
        <CharString name="Wdieresis">
          552 11 -21 1419 278 callgsubr
          845 55 callsubr
          hintmask 00000000
          hintmask 11111000
          948 1581 rmoveto
          -80 callsubr
          -64 -70 -63 -60 41 -45 62 hvcurveto
          434 hmoveto
          -56 callsubr
          -60 41 -45 61 hvcurveto
          498 -137 -96 callsubr
        </CharString>
        <CharString name="Wgrave">
          119 callgsubr
          909 1821 rmoveto
          21 callsubr
          21 20 rcurveline
          -61 callsubr
          971 -377 -96 callsubr
        </CharString>
        <CharString name="X">
          -61 callgsubr
        </CharString>
        <CharString name="Y">
          77 0 41 1325 154 callsubr
          1350 198 306 callgsubr
          1434 1479 -85 callsubr
          hintmask 10110000
          -35 callgsubr
          hintmask 11010000
          208 callsubr
        </CharString>
        <CharString name="Yacute">
          110 callsubr
          1305 -66 callgsubr
          hintmask 11001000
          129 -295 -85 callsubr
          hintmask 10101000
          -35 callgsubr
          hintmask 11001000
          208 callsubr
        </CharString>
        <CharString name="Ycircumflex">
          110 callsubr
          992 -89 callsubr
          hintmask 11001000
          442 -241 -85 callsubr
          hintmask 10101000
          -35 callgsubr
          hintmask 11001000
          208 callsubr
        </CharString>
        <CharString name="Ydieresis">
          77 0 41 1325 113 -43 43 102 238 hstemhm
          635 55 callsubr
          41 198 hintmask 00000000
          hintmask 11011110
          738 1581 rmoveto
          -80 callsubr
          -64 -70 -63 -60 41 -45 62 hvcurveto
          434 hmoveto
          -56 callsubr
          -60 41 -45 61 hvcurveto
          262 -102 -85 callsubr
          hintmask 10100010
          -35 callgsubr
          hintmask 11011110
          208 callsubr
        </CharString>
        <CharString name="Ygrave">
          110 callsubr
          699 1821 rmoveto
          21 callsubr
          21 20 rcurveline
          -61 callsubr
          hintmask 11001000
          735 -342 -85 callsubr
          hintmask 10101000
          -35 callgsubr
          hintmask 11001000
          208 callsubr
        </CharString>
        <CharString name="Z">
          16 callgsubr
          725 78 hintmask 0000000000000000
          hintmask 1011101110000000
          1460 1460 -98 callgsubr
        </CharString>
        <CharString name="Zacute">
          16 callgsubr
          725 78 hintmask 1011110110000000
          1253 -66 callgsubr
          hintmask 1011101110000000
          207 -314 -98 callgsubr
        </CharString>
        <CharString name="Zacute.loclPLK">
          16 callgsubr
          725 78 hintmask 1011110110000000
          1124 1776 rmoveto
          -26 callgsubr
          21 -15 rcurveline
          93 callsubr
          56 rrcurveto
          hintmask 1011101110000000
          336 -316 -98 callgsubr
        </CharString>
        <CharString name="Zcaron">
          16 callgsubr
          725 78 hintmask 1011110110000000
          930 -33 callgsubr
          hintmask 1011101110000000
          567 -137 -98 callgsubr
        </CharString>
        <CharString name="Zdotaccent">
          16 callgsubr
          515 256 -46 78 hintmask 0000000000000000
          hintmask 1011101110000000
          956 1581 88 callgsubr
          504 -121 121 callgsubr
          -43 -59 -49 -70 -48 hvcurveto
          -56 -111 -77 -36 -115 hhcurveto
          hintmask 0111110101000000
          -195 -73 219 -201 hhcurveto
          -154 -94 -107 -145 -158 113 -61 104 -19 274 callgsubr
          -94 19 -53 49 82 vvcurveto
          84 47 51 92 vhcurveto
          176 88 -115 174 hhcurveto
          115 125 43 68 115 hvcurveto
          -571 -561 rlineto
          -359 hlineto
          -14 -41 rlineto
          332 hlineto
          -576 -566 rlineto
          -110 -42 -43 -50 -34 vvcurveto
          -11 4 -9 8 -7 vhcurveto
          -7 8 10 -4 11 hhcurveto
          42 60 49 70 49 hvcurveto
          56 110 78 36 115 hhcurveto
          hintmask 1011101101000000
          194 74 -219 201 hhcurveto
          154 94 107 145 158 -113 61 -104 19 hvcurveto
          -9 -41 rlineto
          95 -19 53 -49 -82 vvcurveto
          -84 -47 -51 -92 vhcurveto
          -176 -89 115 -174 hhcurveto
          -114 -125 -43 -68 -115 hvcurveto
          580 570 rlineto
          336 hlineto
          16 41 rlineto
          -311 hlineto
          567 557 rlineto
          110 42 43 50 34 vvcurveto
          hintmask 1011101110000000
          114 callsubr
        </CharString>
        <CharString name="a">
          64 callgsubr
          932 334 -73 callsubr
        </CharString>
        <CharString name="a.smcp">
          67 callgsubr
          hstem
          -170 1305 vstem
          907 1260 -104 callsubr
        </CharString>
        <CharString name="aacute">
          66 callsubr
          212 -20 77 callsubr
          hintmask 11011010
          1038 84 callgsubr
          -63 -584 rmoveto
          hintmask 10111010
          38 callgsubr
          hintmask 11011010
          -46 callsubr
          hintmask 11011110
          -90 callsubr
          hintmask 11011010
          -16 callsubr
          hintmask 11011110
          27 callgsubr
        </CharString>
        <CharString name="aacute.smcp">
          67 callgsubr
          hstem
          -170 1452 vstem
          1278 1679 rmoveto
          25 -11 -22 9 -25 hhcurveto
          -27 -30 -11 -12 -21 hvcurveto
          -96 -58 -63 callsubr
          35 19 37 35 36 vvcurveto
          7 -1 6 -3 7 vhcurveto
          -371 -419 -104 callsubr
        </CharString>
        <CharString name="abreve">
          66 callsubr
          263 138 77 callsubr
          hintmask 11011010
          1176 1614 rmoveto
          97 callsubr
          -23 callgsubr
          -221 -510 rmoveto
          hintmask 10111010
          38 callgsubr
          hintmask 11011010
          -46 callsubr
          hintmask 11011110
          -90 callsubr
          hintmask 11011010
          -16 callsubr
          hintmask 11011110
          27 callgsubr
        </CharString>
        <CharString name="abreve.smcp">
          67 callgsubr
          157 137 hstem
          -170 1532 vstem
          854 102 callgsubr
          53 -137 -104 callsubr
        </CharString>
        <CharString name="acircumflex">
          64 callgsubr
          781 1642 -7 callsubr
          158 -561 rmoveto
          hintmask 10110100
          -55 -18 -68 -8 -66 -2 -32 -125 rcurveline
          hintmask 11010100
          98 -8 -51 55 -72 hhcurveto
          -310 -295 -534 -328 -145 64 -103 129 hvcurveto
          hintmask 11011100
          -90 callsubr
          hintmask 11010100
          -16 callsubr
          hintmask 11011100
          -341 -102 -202 -292 -115 hhcurveto
          endchar
        </CharString>
        <CharString name="acircumflex.smcp">
          67 callgsubr
          hstem
          -170 1458 vstem
          967 1671 rmoveto
          -105 -104 -178 -101 -199 -61 11 -29 rcurveline
          147 33 168 61 106 46 99 -54 78 -51 186 -35 8 29 rcurveline
          -139 55 -76 92 -70 119 rrcurveto
          -96 -411 -104 callsubr
        </CharString>
        <CharString name="acute">
          -838 1245 -20 hstem
          260 452 vstem
          281 1227 rmoveto
          -9 callsubr
          -81 callgsubr
          rrcurveto
          endchar
        </CharString>
        <CharString name="acute.case">
          -732 1581 337 hstem
          41 541 vstem
          55 1581 rmoveto
          -65 callgsubr
          -95 callgsubr
          -13 -21 hvcurveto
          -96 -57 -22 callgsubr
          rrcurveto
          endchar
        </CharString>
        <CharString name="acute.loclPLK">
          -838 1229 449 hstem
          176 300 vstem
          199 -40 callsubr
          endchar
        </CharString>
        <CharString name="acute.loclPLK.case">
          -980 1554 371 hstem
          55 293 vstem
          76 1554 rmoveto
          93 callsubr
          56 rrcurveto
          -26 callgsubr
          rrcurveto
          endchar
        </CharString>
        <CharString name="acute.loclPLK.smcp">
          -980 1350 371 hstem
          55 293 vstem
          76 1350 rmoveto
          93 callsubr
          55 rrcurveto
          -26 callsubr
          rrcurveto
          endchar
        </CharString>
        <CharString name="acute.smcp">
          -732 1376 337 hstem
          41 541 vstem
          55 1376 rmoveto
          -65 callgsubr
          -95 callgsubr
          -12 -21 hvcurveto
          -96 -58 -22 callgsubr
          rrcurveto
          endchar
        </CharString>
        <CharString name="adieresis">
          66 callsubr
          251 238 hstemhm
          18 181 229 240 -114 150 25 25 109 239 hintmask 1101110110000000
          531 117 callsubr
          10 callgsubr
          -25 -441 rmoveto
          hintmask 1011110110000000
          38 callgsubr
          hintmask 1101110110000000
          -46 callsubr
          hintmask 1101101110000000
          -90 callsubr
          hintmask 1101110110000000
          -16 callsubr
          hintmask 1101101110000000
          27 callgsubr
        </CharString>
        <CharString name="adieresis.smcp">
          67 callgsubr
          136 238 hstemhm
          565 55 callsubr
          hintmask 00000000
          hintmask 11111100
          668 192 callgsubr
          10 callgsubr
          -230 -354 -104 callsubr
        </CharString>
        <CharString name="ae">
          55 -29 66 -66 86 961 43 -19 39 hstemhm
          6 180 308 192 471 164 hintmask 01101110
          1321 926 rmoveto
          hintmask 01011110
          104 -84 51 -109 -94 -88 -35 -57 -78 vhcurveto
          hintmask 01101110
          55 -35 -53 17 -47 hhcurveto
          -338 -389 -504 -358 -133 64 -95 141 119 100 63 120 77 hvcurveto
          -121 33 92 -62 132 hhcurveto
          212 callsubr
          -99 hhcurveto
          -86 -55 58 139 65 7 67 13 65 hvcurveto
          304 callgsubr
          hintmask 10011110
          134 callgsubr
          -807 -1005 rmoveto
          -63 -27 55 82 hvcurveto
          hintmask 01101110
          430 344 414 218 17 44 -5 -44 32 vhcurveto
          -210 -171 -137 -326 -212 vvcurveto
          -21 1 -20 3 -19 vhcurveto
          hintmask 10011110
          -119 -75 -86 -44 -61 hhcurveto
          endchar
        </CharString>
        <CharString name="ae.smcp">
          569 0 41 -41 47 559 41 551 41 -41 47 -41 41 hstemhm
          -154 187 -187 2024 hintmask 01101001
          1444 174 callsubr
          hintmask 01110001
          -92 -169 0 2 -163 hvcurveto
          100 113 rlineto
          -53 hlineto
          hintmask 01101001
          -99 -112 -110 3 rlineto
          hintmask 01100101
          -10 -41 33 -1 26 -3 20 -4 rlinecurve
          -904 -1024 rlineto
          hintmask 10101010
          -76 -86 -62 -43 -39 -2 rrcurveto
          hintmask 01101010
          -41 vlineto
          33 4 55 2 50 67 72 -2 37 hflex1
          hintmask 10101010
          253 callgsubr
          366 413 rlineto
          398 hlineto
          -104 -389 rlineto
          hintmask 01101001
          -75 callgsubr
          -9 -41 rcurveline
          201 6 266 0 123 138 186 0 139 hflex1
          14 104 25 107 14 51 15 57 14 219 callgsubr
          -96 -38 11 60 -66 callsubr
          hvcurveto
          104 389 rlineto
          218 265 callsubr
          25 135 12 55 16 60 23 197 callgsubr
          -111 -123 hhcurveto
          -215 hlineto
          102 381 rlineto
          150 39 31 20 135 hhcurveto
          190 161 callsubr
          -47 -10 -57 hvcurveto
          45 hlineto
          4 30 9 47 14 50 14 47 29 98 35 96 rrcurveto
          -6 -130 -172 0 -124 hhcurveto
          -577 -592 rmoveto
          -373 hlineto
          471 532 rlineto
          15 -11 6 -17 -25 -86 callsubr
          endchar
        </CharString>
        <CharString name="agrave">
          64 callgsubr
          750 -79 callgsubr
          209 -893 -73 callsubr
        </CharString>
        <CharString name="agrave.smcp">
          67 callgsubr
          hstem
          -170 1305 vstem
          975 1391 -76 callsubr
          -47 -110 -104 callsubr
        </CharString>
        <CharString name="amacron">
          66 callsubr
          374 51 77 callsubr
          hintmask 11011010
          1088 1458 rmoveto
          -639 hlineto
          -12 -51 rlineto
          638 hlineto
          -100 -326 rmoveto
          hintmask 10111010
          38 callgsubr
          hintmask 11011010
          -46 callsubr
          hintmask 11011110
          -90 callsubr
          hintmask 11011010
          -16 callsubr
          hintmask 11011110
          27 callgsubr
        </CharString>
        <CharString name="amacron.smcp">
          67 callgsubr
          233 51 hstem
          -170 1431 vstem
          1261 1524 rmoveto
          -721 hlineto
          -12 -51 rlineto
          721 hlineto
          -342 -213 -104 callsubr
        </CharString>
        <CharString name="ampersand">
          378 -29 152 180 33 520 86 164 37 262 33 10 31 hstemhm
          78 153 144 127 139 55 293 43 238 227 -188 41 372 56 hintmask 1111011111011000
          1522 257 callgsubr
          -52 -51 -9 -20 -47 hvcurveto
          hintmask 1111011111101000
          -55 -25 -47 -45 -59 vvcurveto
          -55 39 -31 53 70 65 53 64 30 -14 31 -29 17 vhcurveto
          12 8 25 6 33 hhcurveto
          114 88 -76 -100 -103 -90 -67 -121 -58 hvcurveto
          -153 -73 -279 -92 -98 -37 rrcurveto
          -209 -78 -131 -92 -168 vvcurveto
          -154 111 -47 110 139 68 74 61 37 vhcurveto
          -27 19 rlineto
          -29 -18 -66 -92 -125 hhcurveto
          -92 -82 49 88 113 131 57 84 33 hvcurveto
          69 27 94 34 97 36 rrcurveto
          hintmask 1111111111011000
          97 -70 41 -106 -93 vvcurveto
          -232 -246 -149 -318 -296 -218 129 246 186 127 162 187 55 vhcurveto
          -14 28 62 285 callsubr
          -25 -55 -4 -8 -49 hvcurveto
          -33 55 -12 59 56 vvcurveto
          176 121 129 168 112 86 -57 -93 -71 -53 -41 -74 vhcurveto
          -4 -37 rlineto
          82 92 49 105 106 -98 72 -154 -184 -221 -103 -188 -90 49 -88 94 -51 hvcurveto
          -250 -70 -190 -199 -246 vvcurveto
          -270 229 -162 361 434 248 238 268 126 -55 101 -94 80 vhcurveto
          123 45 124 47 80 39 rrcurveto
          176 89 74 104 137 vvcurveto
          hintmask 1111011111011000
          164 -107 70 -149 vhcurveto
          endchar
        </CharString>
        <CharString name="ampersand.smcp">
          329 -29 152 174 33 403 86 144 34 246 31 63 31 hstemhm
          47 154 143 127 223 56 196 41 176 228 -101 53 273 55 hintmask 1111111111011000
          1415 1368 rmoveto
          -49 -53 -8 -21 -47 hvcurveto
          hintmask 1111111111101000
          -56 -24 -47 -45 -60 vvcurveto
          -55 39 -31 53 70 66 54 63 31 -15 31 -28 16 vhcurveto
          8 6 14 10 45 hhcurveto
          117 86 -67 -107 -123 -117 -63 -96 -43 hvcurveto
          -119 -53 -219 -80 -10 -4 rrcurveto
          -209 -82 -152 -76 -170 vvcurveto
          -129 86 -43 92 68 59 22 56 48 vhcurveto
          -21 22 rlineto
          -51 -43 -57 -16 -49 hhcurveto
          -68 -59 32 76 74 59 41 176 78 hvcurveto
          45 20 40 17 35 14 rrcurveto
          hintmask 1111111111011000
          151 -44 34 -90 -77 vvcurveto
          -264 -397 -84 -231 -254 -207 102 207 164 129 133 184 49 vhcurveto
          -14 29 61 285 callsubr
          -24 -56 -4 -8 -49 hvcurveto
          -37 61 -8 66 41 vvcurveto
          153 113 115 166 122 74 -63 -76 -70 -59 -37 -74 vhcurveto
          -34 vlineto
          90 84 49 92 100 -100 70 -148 -182 -213 -107 -166 -69 37 -80 106 -57 hvcurveto
          -247 -62 -193 -178 -209 vvcurveto
          -240 256 -135 322 364 354 174 297 108 -46 102 -150 47 vhcurveto
          125 49 68 18 81 39 rrcurveto
          162 78 88 100 147 vvcurveto
          162 -106 76 -150 vhcurveto
          endchar
        </CharString>
        <CharString name="aogonek">
          -224 -385 98 258 66 -39 -21 1065 39 -28 -20 hstemhm
          18 181 198 156 1 150 25 25 hintmask 1101010010000000
          932 334 rmoveto
          -25 -76 rlineto
          hintmask 1101010110000000
          -158 -51 -53 -51 -53 hhcurveto
          -35 -11 23 28 27 10 258 callgsubr
          256 905 rlineto
          hintmask 1100110010000000
          38 callgsubr
          hintmask 1101010010000000
          -46 callsubr
          hintmask 1101010110000000
          142 135 122 316 135 hvcurveto
          -37 -149 rlineto
          -15 -56 -17 -57 -50 vvcurveto
          hintmask 1011010110000000
          -27 5 -24 12 -21 vhcurveto
          15 -23 24 -17 30 -8 rrcurveto
          hintmask 1101011010000000
          -116 -50 -127 -81 -110 23 callgsubr
          81 73 62 76 38 hvcurveto
          76 7 87 53 55 152 51 150 rcurveline
          -701 -297 rmoveto
          -45 -26 41 117 362 237 485 180 -16 callsubr
          27 callgsubr
        </CharString>
        <CharString name="aogonek.smcp">
          -1 -385 98 287 120 callsubr
          hstem
          674 156 vstem
          1062 3 rmoveto
          23 -1 21 -1 18 -1 11 41 rcurveline
          -41 2 -47 31 -13 98 -127 1088 rcurveline
          -30 hlineto
          -824 -1029 -63 -79 -82 -91 -78 -20 rlinecurve
          -41 vlineto
          35 4 96 2 47 74 72 -2 41 hflex1
          41 vlineto
          -88 7 -36 33 48 vvcurveto
          45 31 58 50 61 vhcurveto
          140 174 rlineto
          519 hlineto
          31 -254 rlineto
          2 -15 1 -13 -12 vvcurveto
          -104 -62 -23 -117 -5 vhcurveto
          -10 callgsubr
          4 54 94 2 98 hhcurveto
          90 -1 rlineto
          -128 -43 -189 -92 -136 -42 callsubr
          111 129 72 103 31 hvcurveto
          -256 505 rmoveto
          -481 hlineto
          418 519 rlineto
          endchar
        </CharString>
        <CharString name="approxequal">
          48 290 callgsubr
          2 110 50 110 hstemhm
          133 1167 hintmask 10111000
          909 758 rmoveto
          152 145 84 135 94 hvcurveto
          -24 10 rlineto
          -88 -78 -84 -31 -76 -192 -43 160 -209 hhcurveto
          -152 -147 -84 -135 -94 hvcurveto
          26 -10 rlineto
          88 76 84 31 76 192 45 -160 209 hhcurveto
          hintmask 11011000
          -69 -273 rmoveto
          151 148 84 136 94 hvcurveto
          -27 10 rlineto
          -88 -76 -83 -31 -76 -193 -45 160 -209 hhcurveto
          -151 -146 -84 -135 -94 hvcurveto
          25 -11 rlineto
          88 78 83 31 76 193 43 -160 209 hhcurveto
          endchar
        </CharString>
        <CharString name="aring">
          66 callsubr
          212 43 289 43 hstemhm
          18 181 355 150 -126 53 98 25 170 53 hintmask 1101110111000000
          748 89 callsubr
          182 -496 rmoveto
          hintmask 1011110111000000
          38 callgsubr
          hintmask 1101110111000000
          -46 callsubr
          hintmask 1101111011000000
          -90 callsubr
          hintmask 1101110111000000
          -16 callsubr
          hintmask 1101111011000000
          27 callgsubr
        </CharString>
        <CharString name="aring.smcp">
          67 callgsubr
          75 43 289 43 hstem
          748 247 callsubr
          918 1315 rmoveto
          83 callgsubr
          64 -98 -123 -100 -93 -118 -103 73 -61 97 hvcurveto
          45 332 rmoveto
          63 68 -41 -78 -98 -82 -72 -86 -62 -63 41 82 86 78 80 84 hvcurveto
          -56 -387 -104 callsubr
        </CharString>
        <CharString name="arrowboth">
          87 524 33 hstem
          51 1280 vstem
          872 924 rmoveto
          58 -122 29 -120 2 -125 rrcurveto
          -539 hlineto
          2 125 29 120 57 122 86 callsubr
          -56 121 -29 120 -3 125 rrcurveto
          539 hlineto
          -3 -125 -29 -120 -57 -121 rrcurveto
          35 hlineto
          94 207 136 118 194 58 -194 57 -136 119 -94 207 rrcurveto
          endchar
        </CharString>
        <CharString name="arrowdown">
          -283 1 -21 hstem
          489 33 vstem
          506 829 rmoveto
          261 callsubr
          207 -94 119 -135 57 -195 57 195 119 135 207 94 254 callsubr
          -184 vmoveto
          261 callsubr
          188 -86 116 -119 62 -168 rrcurveto
          -258 vlineto
          -125 3 -120 29 -121 56 rrcurveto
          -35 vlineto
          207 -94 119 -135 57 -194 57 194 119 135 207 94 rrcurveto
          35 vlineto
          -122 -57 -120 -29 -125 -2 rrcurveto
          256 vlineto
          62 169 116 120 189 86 254 callsubr
          endchar
        </CharString>
        <CharString name="arrowdownleft">
          106 1 -21 490 32 98 33 hstem
          624 32 98 33 vstem
          735 582 rmoveto
          35 76 17 76 83 vvcurveto
          89 -20 96 -42 112 vhcurveto
          -25 -24 rlineto
          36 -95 18 -89 -85 vvcurveto
          -105 -28 -100 -54 -98 vhcurveto
          54 99 100 28 105 hhcurveto
          84 88 -17 -36 95 hvcurveto
          25 24 rlineto
          42 -112 -97 20 -89 hhcurveto
          -82 -76 -17 -34 -77 hvcurveto
          -131 -131 rmoveto
          35 77 17 77 83 vvcurveto
          89 -20 96 -40 110 vhcurveto
          -25 -25 rlineto
          35 -94 18 -88 -84 vvcurveto
          -87 -19 -84 -38 -83 vhcurveto
          -183 -185 -86 92 -64 104 -48 126 rlinecurve
          -24 -24 rlineto
          36 -95 17 -88 -84 vvcurveto
          -105 -28 -100 -54 -99 vhcurveto
          54 98 100 28 105 hhcurveto
          85 89 -18 -36 95 hvcurveto
          24 25 -126 47 -105 64 -91 87 rlinecurve
          183 182 rlineto
          38 84 85 19 89 hhcurveto
          83 87 -17 -35 94 hvcurveto
          25 24 rlineto
          40 -110 -97 20 -89 hhcurveto
          -83 -77 -17 -34 -77 hvcurveto
          endchar
        </CharString>
        <CharString name="arrowdownright">
          106 1 -21 491 32 98 33 hstem
          614 33 98 32 vstem
          729 519 rmoveto
          -54 98 -28 100 105 vvcurveto
          84 18 89 36 95 vhcurveto
          -25 24 rlineto
          -42 -112 -20 -96 -89 vvcurveto
          -82 17 -76 35 -77 vhcurveto
          35 -77 -76 17 -83 hhcurveto
          -89 -96 -20 -42 -112 hvcurveto
          25 -25 rlineto
          36 95 89 18 84 hhcurveto
          105 100 -28 -54 98 hvcurveto
          486 57 rmoveto
          -48 -126 -64 -105 -86 -92 -183 185 rcurveline
          -38 83 -19 84 88 vvcurveto
          84 18 88 35 94 vhcurveto
          -25 24 rlineto
          -40 -110 -20 -96 -88 vvcurveto
          -84 17 -77 35 -77 vhcurveto
          35 -77 -78 17 -83 hhcurveto
          -89 -96 -20 -40 -110 hvcurveto
          25 -25 rlineto
          35 94 88 18 83 hhcurveto
          89 84 -20 -38 83 hvcurveto
          184 -182 -91 -87 -105 -64 -126 -47 rlinecurve
          24 -24 rlineto
          35 95 88 18 85 hhcurveto
          105 100 -28 -54 99 hvcurveto
          -54 99 -28 100 105 vvcurveto
          84 17 88 36 95 vhcurveto
          endchar
        </CharString>
        <CharString name="arrowleft">
          100 524 33 hstem
          51 1221 vstem
          717 541 rmoveto
          164 61 110 115 96 207 rrcurveto
          -34 hlineto
          -87 -189 -120 -116 -169 -62 rrcurveto
          -255 hlineto
          2 125 29 120 57 122 86 callsubr
          -56 121 -29 120 -3 125 rrcurveto
          258 hlineto
          167 -63 119 -114 87 -189 rrcurveto
          34 hlineto
          -96 207 -110 114 -164 62 rrcurveto
          184 hmoveto
          164 61 111 115 96 207 86 callsubr
          -96 207 -111 114 -164 62 rrcurveto
          endchar
        </CharString>
        <CharString name="arrowright">
          100 524 33 hstem
          123 1221 vstem
          582 541 rmoveto
          286 callsubr
          -35 hlineto
          96 -207 111 -115 164 -61 -164 -62 -111 -114 -96 -207 263 callgsubr
          rrcurveto
          303 383 rmoveto
          57 -122 29 -120 2 -125 rrcurveto
          -255 hlineto
          -169 62 -120 116 -87 189 rrcurveto
          -34 hlineto
          96 -207 110 -115 164 -61 -164 -62 -110 -114 -96 -207 rrcurveto
          34 hlineto
          87 189 119 114 167 63 rrcurveto
          258 hlineto
          -3 -125 -29 -120 -56 -121 263 callgsubr
          286 callsubr
          endchar
        </CharString>
        <CharString name="arrowup">
          -283 1 -21 hstem
          489 33 vstem
          889 776 rmoveto
          -207 94 -119 136 -57 194 -57 -194 -119 -136 -207 -94 rrcurveto
          -35 vlineto
          121 57 120 29 125 2 rrcurveto
          -257 vlineto
          -62 -168 -116 -119 -188 -86 rrcurveto
          -35 vlineto
          207 96 114 111 62 164 61 -164 115 -111 207 -96 rrcurveto
          35 vlineto
          -189 86 -116 120 -62 169 rrcurveto
          255 vlineto
          125 -2 120 -28 122 -58 rrcurveto
          -383 -303 rmoveto
          -57 -194 -119 -135 -207 -95 rrcurveto
          -34 vlineto
          207 96 114 110 62 164 61 -164 115 -110 207 -96 rrcurveto
          34 vlineto
          -207 95 -119 135 -57 194 rrcurveto
          endchar
        </CharString>
        <CharString name="arrowupleft">
          250 callsubr
          624 32 98 33 hintmask 11101110
          1112 676 rmoveto
          -35 -94 -88 -18 -83 hhcurveto
          -89 -84 20 38 -83 hvcurveto
          -184 182 rlineto
          hintmask 11110110
          91 87 105 64 126 47 rrcurveto
          hintmask 11101110
          -24 24 rlineto
          -35 -95 -88 -18 -85 hhcurveto
          -105 -100 28 54 -99 hvcurveto
          54 -99 28 -100 -105 vvcurveto
          -84 -17 -88 -36 -95 vhcurveto
          24 -25 48 126 64 105 86 92 rlinecurve
          183 -185 rlineto
          38 -83 19 -84 -88 vvcurveto
          -84 -18 -88 -35 -94 vhcurveto
          25 -24 rlineto
          40 110 20 96 88 vvcurveto
          84 -17 77 -35 77 vhcurveto
          -35 77 78 -17 83 hhcurveto
          89 96 20 40 110 hvcurveto
          106 -104 rmoveto
          -36 -95 -89 -18 -84 hhcurveto
          -105 -100 28 54 -98 hvcurveto
          54 -98 28 -100 -105 vvcurveto
          -84 -18 -89 -36 -95 vhcurveto
          25 -24 rlineto
          42 112 20 96 89 vvcurveto
          82 -17 76 -35 77 vhcurveto
          -35 77 76 -17 83 hhcurveto
          89 96 20 42 112 hvcurveto
          endchar
        </CharString>
        <CharString name="arrowupright">
          250 callsubr
          614 33 98 32 hintmask 11101110
          1268 1114 rmoveto
          -54 -99 -100 -28 -105 hhcurveto
          -85 -88 18 35 -95 hvcurveto
          hintmask 11110110
          -24 -24 126 -47 105 -64 91 -87 rlinecurve
          -184 -182 rlineto
          -38 -83 -84 -20 -89 hhcurveto
          -83 -88 18 35 -94 hvcurveto
          -25 -25 rlineto
          -40 110 96 -20 89 hhcurveto
          83 78 17 35 77 hvcurveto
          -35 -77 -17 -77 -84 vvcurveto
          -88 20 -96 40 -110 vhcurveto
          25 24 rlineto
          -35 94 -18 88 84 vvcurveto
          88 19 84 38 83 vhcurveto
          183 185 86 -92 64 -105 48 -126 rlinecurve
          24 25 rlineto
          -36 95 -17 88 84 vvcurveto
          hintmask 11101110
          105 28 100 54 99 vhcurveto
          -1135 -592 rmoveto
          -42 112 96 -20 89 hhcurveto
          83 76 17 35 77 hvcurveto
          -35 -77 -17 -76 -82 vvcurveto
          -89 20 -96 42 -112 vhcurveto
          25 24 rlineto
          -36 95 -18 89 84 vvcurveto
          105 28 100 54 98 vhcurveto
          -54 -98 -100 -28 -105 hhcurveto
          -84 -89 18 36 -95 hvcurveto
          endchar
        </CharString>
        <CharString name="asciicircum">
          -199 1081 -20 hstem
          174 803 vstem
          592 905 rmoveto
          70 -90 143 -96 147 -60 25 29 rcurveline
          -156 86 -100 154 -23 153 rrcurveto
          -36 hlineto
          -105 -153 -182 -154 -201 -86 8 -29 rcurveline
          148 60 159 96 103 90 rrcurveto
          endchar
        </CharString>
        <CharString name="asciicircum.case">
          -390 1087 -20 414 -20 hstem
          166 803 vstem
          584 1305 249 callsubr
          87 -100 153 284 callgsubr
          -153 -201 -87 255 callsubr
        </CharString>
        <CharString name="asciicircum.smcp">
          -240 1085 -20 414 -20 hstem
          258 803 vstem
          676 1303 249 callsubr
          86 -100 154 284 callgsubr
          -154 -201 -86 255 callsubr
        </CharString>
        <CharString name="asciitilde">
          34 290 callgsubr
          hstem
          139 1059 vstem
          860 485 6 callsubr
        </CharString>
        <CharString name="asciitilde.case">
          -185 624 111 49 111 hstem
          80 1059 vstem
          801 624 6 callsubr
        </CharString>
        <CharString name="asciitilde.smcp">
          42 290 callgsubr
          hstem
          143 1059 vstem
          864 485 6 callsubr
        </CharString>
        <CharString name="asterisk">
          -281 1059 -20 24 -20 25 -20 24 -20 hstemhm
          199 849 -568 161 -34 160 hintmask 00011000
          1044 1276 rmoveto
          20 -7 -17 15 -31 hhcurveto
          -20 -27 -7 -16 -33 hvcurveto
          -69 -38 -84 -79 -122 -99 rrcurveto
          hintmask 00100010
          65 146 51 89 12 75 rrcurveto
          4 17 1 14 13 vvcurveto
          49 -25 18 -29 -37 -45 -29 -82 -19 vhcurveto
          -4 -23 -1 -24 -28 vvcurveto
          -63 8 -77 7 -99 vhcurveto
          -91 105 -43 75 -60 38 rrcurveto
          17 -24 -23 7 -20 hhcurveto
          -29 -22 -14 -18 -13 hvcurveto
          -12 -14 -7 -17 -18 vvcurveto
          hintmask 10000100
          -25 13 -26 37 -23 vhcurveto
          54 -36 101 -18 128 -42 -153 -42 -93 -14 -78 -38 rrcurveto
          -63 -35 -25 -36 -29 vvcurveto
          -7 2 -6 2 -6 vhcurveto
          -20 7 17 -15 31 hhcurveto
          20 27 7 16 33 hvcurveto
          72 38 85 81 126 102 rrcurveto
          1 hlineto
          -72 -151 -52 -88 -13 -77 rrcurveto
          -4 -17 -1 -15 -12 vvcurveto
          -49 25 -17 27 39 45 28 82 21 vhcurveto
          3 21 1 24 25 vvcurveto
          hintmask 01000100
          62 -6 76 -3 97 vhcurveto
          87 -101 42 -71 58 -36 rrcurveto
          -17 25 23 -7 20 hhcurveto
          28 22 14 18 13 hvcurveto
          12 14 7 17 19 vvcurveto
          24 -13 26 -36 23 vhcurveto
          -55 36 -102 18 -128 42 155 42 93 14 78 38 rrcurveto
          62 33 25 37 30 vvcurveto
          hintmask 00011000
          7 -2 6 -2 6 vhcurveto
          endchar
        </CharString>
        <CharString name="at">
          442 -330 37 346 223 callgsubr
          59 144 callgsubr
          hintmask 1101111101000000
          1094 53 -49 callsubr
        </CharString>
        <CharString name="at.case">
          444 -154 37 105 -21 262 223 callgsubr
          106 144 callgsubr
          hintmask 1110111110100000
          1141 229 rmoveto
          239 355 291 461 399 -283 164 -356 -551 -439 -524 -551 -434 273 -189 381 182 154 49 72 102 hvcurveto
          -14 27 rlineto
          -80 -133 -142 -31 -147 hhcurveto
          -353 -262 168 422 555 449 479 502 321 275 -145 -379 -453 -349 -250 -137 -40 -20 14 39 18 4 23 9 29 hvcurveto
          217 752 rlineto
          hintmask 1101111101100000
          -23 -53 -68 -6 -63 hhcurveto
          -29 -104 rlineto
          97 -7 -49 36 -79 hhcurveto
          -254 -278 -367 -311 -139 55 -109 156 hvcurveto
          hintmask 1101111110100000
          134 89 81 166 80 hvcurveto
          -9 -32 -10 -42 -40 vvcurveto
          hintmask 1110111110100000
          -69 30 -64 118 vhcurveto
          hintmask 1101111101100000
          -363 62 rmoveto
          -69 -37 63 135 287 168 332 198 69 41 -40 -104 1 hvcurveto
          -68 -242 rlineto
          -283 -105 -93 -148 -105 hhcurveto
          endchar
        </CharString>
        <CharString name="at.smcp">
          444 -269 37 346 223 callgsubr
          75 144 callgsubr
          hintmask 1101111101000000
          1110 114 -49 callsubr
        </CharString>
        <CharString name="atilde">
          66 callsubr
          288 102 47 103 77 callsubr
          hintmask 11011101
          1089 1542 rmoveto
          -86 -47 -47 -33 -49 -125 -23 150 -165 hhcurveto
          52 callsubr
          125 23 -149 166 hhcurveto
          96 107 59 152 63 hvcurveto
          -151 -451 rmoveto
          hintmask 10111101
          38 callgsubr
          hintmask 11011101
          -46 callsubr
          hintmask 11011111
          -90 callsubr
          hintmask 11011101
          -16 callsubr
          hintmask 11011111
          27 callgsubr
        </CharString>
        <CharString name="atilde.smcp">
          67 callgsubr
          136 103 47 102 hstem
          -170 1469 vstem
          1262 1597 rmoveto
          -86 -47 -47 -32 -50 -141 -26 149 -187 hhcurveto
          51 callgsubr
          139 callsubr
          97 106 60 151 64 hvcurveto
          -392 -327 -104 callsubr
        </CharString>
        <CharString name="b">
          -263 -29 47 -30 -21 36 -21 1034 65 420 43 hstemhm
          778 176 hintmask 10011100
          741 1081 rmoveto
          -138 -122 -122 -298 -130 hvcurveto
          265 967 -102 268 callgsubr
          -10 -43 rlineto
          103 34 -26 -54 -16 -3 -18 -5 -21 hvcurveto
          -359 -1266 rlineto
          hintmask 00111100
          -8 -41 -12 -41 -19 -36 rrcurveto
          hintmask 01011100
          31 -15 58 47 58 47 58 47 rlinecurve
          hintmask 10011100
          -88 24 68 -49 80 33 callsubr
          -63 -48 29 85 -35 hvcurveto
          71 257 rlineto
          346 121 171 281 113 268 callsubr
          -194 -512 -232 hvcurveto
          endchar
        </CharString>
        <CharString name="b.smcp">
          -45 callgsubr
        </CharString>
        <CharString name="backslash">
          -287 -8 -21 1508 -20 hstem
          270 531 vstem
          801 -29 rmoveto
          -467 1508 rlineto
          -64 hlineto
          463 -1508 rlineto
          endchar
        </CharString>
        <CharString name="bar">
          -644 -378 -21 hstem
          305 82 vstem
          387 -399 rmoveto
          2156 -82 -2156 vlineto
          endchar
        </CharString>
        <CharString name="blacksquare">
          -29 104 852 hstem
          207 813 260 callgsubr
          endchar
        </CharString>
        <CharString name="blacksquare.case">
          -11 303 852 hstem
          254 854 vstem
          1108 1155 214 callgsubr
          endchar
        </CharString>
        <CharString name="blacksquare.smcp">
          34 197 852 hstem
          244 854 vstem
          1098 1049 214 callgsubr
          endchar
        </CharString>
        <CharString name="braceleft">
          -668 -385 39 932 37 hstemhm
          52 167 -57 153 hintmask 11100000
          336 -346 rmoveto
          -76 2 -41 17 84 vvcurveto
          -2 63 21 103 41 166 rrcurveto
          hintmask 11010000
          19 75 17 82 77 vvcurveto
          125 -45 111 -153 46 vhcurveto
          164 45 166 104 90 367 98 403 39 37 133 2 10 39 rcurveline
          -256 -112 -104 -377 -96 hvcurveto
          -97 -383 -55 -105 -129 -10 rrcurveto
          -10 hlineto
          -6 -37 rlineto
          10 hlineto
          63 -4 31 -33 2 -84 rrcurveto
          -75 -22 -119 -46 -182 vhcurveto
          hintmask 11100000
          -23 -93 -19 -87 -73 vvcurveto
          -133 62 -88 212 vhcurveto
          endchar
        </CharString>
        <CharString name="braceleft.case">
          -681 -152 39 818 36 hstemhm
          113 166 -76 150 hintmask 11100000
          395 -113 rmoveto
          -75 2 -41 17 84 vvcurveto
          51 14 94 33 133 vhcurveto
          hintmask 11010000
          15 65 12 65 61 vvcurveto
          117 -44 101 -151 46 vhcurveto
          155 45 164 88 84 367 70 311 26 27 93 2 10 39 rcurveline
          -211 -96 -82 -297 -76 hvcurveto
          -96 -381 -52 -90 -116 -11 rrcurveto
          -11 hlineto
          -6 -36 rlineto
          11 hlineto
          61 -5 33 -32 2 -84 rrcurveto
          -64 -25 -98 -37 -154 vhcurveto
          hintmask 11100000
          -17 -73 -11 -66 -57 vvcurveto
          -140 66 -84 206 vhcurveto
          endchar
        </CharString>
        <CharString name="braceleft.smcp">
          -672 -119 39 705 18 hstemhm
          92 164 -86 152 hintmask 11010000
          696 1356 rmoveto
          -209 -77 -80 -279 -82 hvcurveto
          -292 -86 -6 -62 -144 hhcurveto
          -10 hlineto
          -6 -37 rlineto
          10 hlineto
          49 -4 33 -45 2 -113 rrcurveto
          -104 -78 -184 -103 vvcurveto
          hintmask 11100000
          -108 88 -64 182 vhcurveto
          11 39 rlineto
          -78 2 -39 17 84 vvcurveto
          hintmask 11010000
          116 66 117 115 vvcurveto
          168 -91 55 -94 31 vhcurveto
          148 4 139 98 74 270 80 291 16 27 92 2 rrcurveto
          endchar
        </CharString>
        <CharString name="braceright">
          -668 -364 -21 979 37 932 39 hstemhm
          314 153 -57 167 hintmask 11101000
          293 1563 rmoveto
          76 -2 41 -17 -84 vvcurveto
          2 -63 -21 -103 -41 -166 rrcurveto
          hintmask 11110000
          -19 -75 -17 -82 -77 vvcurveto
          -125 45 -111 153 -46 vhcurveto
          -164 -45 -166 -104 -90 -367 -98 -403 -39 -37 -133 -2 -10 -39 rcurveline
          256 112 104 377 96 hvcurveto
          97 383 55 105 129 10 rrcurveto
          10 hlineto
          6 37 rlineto
          -10 hlineto
          -63 4 -31 33 -2 84 rrcurveto
          75 22 119 46 182 vhcurveto
          hintmask 11101000
          23 93 19 87 73 vvcurveto
          133 -62 88 -212 vhcurveto
          endchar
        </CharString>
        <CharString name="braceright.case">
          -683 709 36 818 39 hstemhm
          327 150 -76 166 hintmask 11010000
          285 1563 rmoveto
          75 -2 41 -17 -84 vvcurveto
          -51 -14 -94 -33 -133 vhcurveto
          hintmask 11100000
          -15 -65 -12 -65 -61 vvcurveto
          -117 44 -101 151 -46 vhcurveto
          -155 -45 -164 -88 -84 -367 -70 -311 -26 -27 -93 -2 -10 -39 rcurveline
          211 96 82 297 76 hvcurveto
          96 381 52 90 116 11 rrcurveto
          11 hlineto
          6 36 rlineto
          -11 hlineto
          -61 5 -33 32 -2 84 rrcurveto
          64 25 98 37 154 vhcurveto
          hintmask 11010000
          17 73 11 66 57 vvcurveto
          140 -66 84 -206 vhcurveto
          endchar
        </CharString>
        <CharString name="braceright.smcp">
          -674 606 19 692 39 hstemhm
          309 152 -86 164 hintmask 11100000
          258 1317 rmoveto
          hintmask 11010000
          78 -2 39 -17 -84 vvcurveto
          hintmask 11100000
          -116 -66 -117 -115 vvcurveto
          -153 90 -60 95 -28 vhcurveto
          -148 -4 -139 -97 -74 -284 -80 -291 -16 -27 -92 -2 -11 -39 rcurveline
          209 80 80 279 80 hvcurveto
          309 88 4 57 144 hhcurveto
          10 hlineto
          6 37 rlineto
          -10 hlineto
          -49 4 -33 47 -2 99 rrcurveto
          104 78 184 103 vvcurveto
          hintmask 11010000
          108 -88 64 -183 vhcurveto
          endchar
        </CharString>
        <CharString name="bracketleft">
          300 callsubr
          -50 834 vstem
          436 1581 rmoveto
          -486 -1952 rlineto
          349 290 callsubr
          469 1874 rlineto
          166 hlineto
          8 39 rlineto
          endchar
        </CharString>
        <CharString name="bracketleft.case">
          -677 -131 39 1634 39 hstem
          16 772 vstem
          440 1581 rmoveto
          -424 -1712 rlineto
          349 290 callsubr
          407 1634 rlineto
          166 hlineto
          8 39 rlineto
          endchar
        </CharString>
        <CharString name="bracketleft.smcp">
          296 callsubr
          29 712 vstem
          733 1317 rmoveto
          8 39 rlineto
          -348 hlineto
          -364 -1467 rlineto
          348 290 callsubr
          348 1389 rlineto
          endchar
        </CharString>
        <CharString name="bracketright">
          300 callsubr
          -170 834 vstem
          178 -371 rmoveto
          486 1952 rlineto
          -349 288 callsubr
          -469 -1874 rlineto
          -166 hlineto
          -8 -39 rlineto
          endchar
        </CharString>
        <CharString name="bracketright.case">
          -679 -131 39 1634 39 hstem
          -106 772 vstem
          242 -131 rmoveto
          424 1712 rlineto
          -349 288 callsubr
          -407 -1634 rlineto
          -166 hlineto
          -8 -39 rlineto
          endchar
        </CharString>
        <CharString name="bracketright.smcp">
          296 callsubr
          -92 712 vstem
          -84 -72 rmoveto
          -8 -39 rlineto
          348 hlineto
          364 1467 rlineto
          -348 288 callsubr
          -348 -1389 rlineto
          endchar
        </CharString>
        <CharString name="breve">
          -68 1296 138 hstem
          299 735 vstem
          590 1434 rmoveto
          -23 callgsubr
          -20 23 rlineto
          97 callsubr
          endchar
        </CharString>
        <CharString name="breve.case">
          -377 1602 303 callgsubr
          1739 rmoveto
          -150 -90 26 84 -71 hvcurveto
          -33 -10 -62 callgsubr
          endchar
        </CharString>
        <CharString name="breve.smcp">
          -377 1397 303 callgsubr
          1534 rmoveto
          -150 -90 27 84 -71 hvcurveto
          -33 -11 -62 callgsubr
          endchar
        </CharString>
        <CharString name="brevecy">
          -402 1317 45 hstem
          322 225 vstem
          451 1399 rmoveto
          58 callsubr
          -31 22 rlineto
          161 callgsubr
          endchar
        </CharString>
        <CharString name="brevecy.case">
          -369 1550 43 hstem
          340 225 vstem
          469 1630 rmoveto
          57 19 39 45 59 289 callsubr
          -55 -76 -127 178 -31 117 205 200 74 156 158 vhcurveto
          -29 24 rlineto
          -135 -143 -174 -76 -203 hhcurveto
          -78 -73 17 20 -29 hvcurveto
          endchar
        </CharString>
        <CharString name="brevecy.smcp">
          -414 1348 43 hstem
          289 225 vstem
          418 1427 rmoveto
          57 19 39 45 59 vvcurveto
          58 -35 28 -53 -74 -63 -55 -76 -127 178 -30 117 188 189 79 170 145 vhcurveto
          -29 25 rlineto
          -147 -131 -162 -84 -186 hhcurveto
          -78 -74 16 20 -28 hvcurveto
          endchar
        </CharString>
        <CharString name="brokenbar">
          -636 -378 -21 hstem
          309 82 vstem
          391 786 rmoveto
          971 -82 -971 vlineto
          -118 vmoveto
          -1067 82 1067 vlineto
          endchar
        </CharString>
        <CharString name="bullet">
          -384 219 584 hstem
          138 587 vstem
          139 510 9 callsubr
        </CharString>
        <CharString name="bullet.case">
          -388 459 584 hstem
          193 587 vstem
          194 750 9 callsubr
        </CharString>
        <CharString name="bullet.smcp">
          -377 338 584 hstem
          173 587 vstem
          174 629 9 callsubr
        </CharString>
        <CharString name="c">
          72 callsubr
          662 1040 -80 callgsubr
        </CharString>
        <CharString name="c.smcp">
          34 callgsubr
          hintmask 10101000
          561 -29 -100 callgsubr
        </CharString>
        <CharString name="cacute">
          -410 -29 86 983 41 164 -20 hstem
          37 190 420 230 vstem
          574 1227 rmoveto
          -9 callsubr
          -81 callgsubr
          rrcurveto
          109 -205 -80 callgsubr
        </CharString>
        <CharString name="cacute.loclPLK">
          72 callsubr
          617 -40 callsubr
          68 -201 -80 callgsubr
        </CharString>
        <CharString name="cacute.loclPLK.smcp">
          34 callgsubr
          hintmask 10101000
          859 1350 rmoveto
          93 callsubr
          55 rrcurveto
          -26 callsubr
          rrcurveto
          -277 -1393 -100 callgsubr
        </CharString>
        <CharString name="cacute.smcp">
          34 callgsubr
          hintmask 10101000
          780 1376 rmoveto
          -65 callgsubr
          -95 callgsubr
          -12 -21 hvcurveto
          -96 -58 -22 callgsubr
          rrcurveto
          -205 -1428 -100 callgsubr
        </CharString>
        <CharString name="caron">
          -472 1262 380 hstem
          256 721 vstem
          608 -21 callgsubr
          endchar
        </CharString>
        <CharString name="caron.case">
          -431 1597 299 callgsubr
          -15 callsubr
          endchar
        </CharString>
        <CharString name="caron.smcp">
          -431 1393 299 callgsubr
          -14 callgsubr
          endchar
        </CharString>
        <CharString name="ccaron">
          72 callsubr
          754 -21 callgsubr
          -92 -390 -80 callgsubr
        </CharString>
        <CharString name="ccaron.smcp">
          34 callgsubr
          hintmask 10101000
          984 -14 callgsubr
          -423 -1577 -100 callgsubr
        </CharString>
        <CharString name="ccedilla">
          -410 133 callsubr
          104 86 -61 -21 1065 41 hstemhm
          37 190 66 131 223 230 hintmask 10101111
          655 1081 rmoveto
          -383 -235 -493 -316 hvcurveto
          hintmask 11011111
          -178 84 -99 133 -20 vhcurveto
          -82 -172 rlineto
          -14 callsubr
          hintmask 10101111
          55 118 rlineto
          212 callsubr
          -98 hhcurveto
          -86 -58 58 139 106 callgsubr
          165 callsubr
          253 callsubr
          109 -101 65 -121 vhcurveto
          endchar
        </CharString>
        <CharString name="ccedilla.smcp">
          67 133 callsubr
          105 36 13 -21 1237 210 callsubr
          205 317 131 hintmask 00000000
          hintmask 10100111
          1341 1245 rmoveto
          -81 -30 -27 -41 -26 hhcurveto
          -10 -9 6 12 -10 hvcurveto
          hintmask 11101011
          69 -60 -79 64 -164 hhcurveto
          -518 -322 -469 -404 -265 163 -153 278 -11 hvcurveto
          -81 -169 rlineto
          -73 callgsubr
          56 118 158 5 107 56 103 72 rlinecurve
          12 17 14 6 11 hhcurveto
          hintmask 10011011
          18 8 -17 -35 -19 -2 -22 -4 -29 hvcurveto
          45 hlineto
          18 104 35 140 68 248 rrcurveto
          -45 hlineto
          -66 -160 -43 -86 -76 -78 rrcurveto
          hintmask 10101011
          -105 -102 -146 -55 -120 hhcurveto
          -177 -112 123 229 388 278 489 338 123 107 -53 -107 51 hvcurveto
          22 -45 11 -39 -61 vvcurveto
          -39 -4 -49 -9 -70 vhcurveto
          45 hlineto
          hintmask 10100111
          58 238 41 133 34 100 rrcurveto
          endchar
        </CharString>
        <CharString name="ccircumflex">
          72 callsubr
          660 -74 callsubr
          2 -435 -80 callgsubr
        </CharString>
        <CharString name="ccircumflex.smcp">
          34 callgsubr
          hintmask 10101000
          942 -88 callgsubr
          -381 -1545 -100 callgsubr
        </CharString>
        <CharString name="cdotaccent">
          -410 -29 86 983 41 hstemhm
          37 190 363 256 -199 230 hintmask 11110000
          590 1409 rmoveto
          59 callgsubr
          72 -369 rmoveto
          165 callsubr
          hintmask 11101000
          253 callsubr
          109 -101 65 -121 -383 -235 -493 -316 -200 106 -101 164 174 158 138 137 80 vhcurveto
          24 callsubr
          hvcurveto
          hintmask 11110000
          106 callgsubr
          vhcurveto
          endchar
        </CharString>
        <CharString name="cdotaccent.smcp">
          34 callgsubr
          547 256 hintmask 10101100
          838 1485 -2 callgsubr
          -277 -1514 rmoveto
          170 111 58 75 108 hvcurveto
          12 17 14 6 11 hhcurveto
          hintmask 01101100
          18 8 -17 -35 -19 -2 -22 -4 -29 hvcurveto
          45 hlineto
          18 104 35 140 68 248 rrcurveto
          -45 hlineto
          -66 -160 -43 -86 -76 -78 rrcurveto
          hintmask 10101100
          -105 -102 -146 -55 -120 hhcurveto
          -177 -112 123 229 388 278 489 338 123 107 -53 -107 51 hvcurveto
          22 -45 11 -39 -61 vvcurveto
          -39 -4 -49 -9 -70 vhcurveto
          45 hlineto
          hintmask 10011100
          58 238 41 133 34 100 rrcurveto
          -45 hlineto
          -81 -30 -27 -41 -26 hhcurveto
          -10 -9 6 12 -10 hvcurveto
          hintmask 10101100
          69 -60 -79 64 -164 hhcurveto
          -518 -322 -469 -404 -276 176 -154 299 hvcurveto
          endchar
        </CharString>
        <CharString name="cedilla">
          -828 133 callsubr
          hstem
          283 131 vstem
          311 hmoveto
          -55 hlineto
          -94 -197 rlineto
          -14 callsubr
          endchar
        </CharString>
        <CharString name="cedilla.case">
          -791 133 callsubr
          hstem
          336 131 vstem
          328 8 rmoveto
          -56 hlineto
          -98 -205 rlineto
          -73 callgsubr
          endchar
        </CharString>
        <CharString name="cedilla.smcp">
          -791 133 callsubr
          hstem
          336 131 vstem
          328 8 rmoveto
          -56 hlineto
          -98 -205 rlineto
          -73 callgsubr
          endchar
        </CharString>
        <CharString name="cent">
          -408 -350 -21 342 86 -65 -21 1069 41 369 -20 hstemhm
          31 190 420 230 hintmask 10111100
          628 1080 rmoveto
          99 370 rlineto
          -45 hlineto
          -100 -374 rlineto
          -343 -54 -208 -453 -297 vvcurveto
          -193 99 -101 155 -7 vhcurveto
          -92 -342 rlineto
          45 hlineto
          92 343 163 15 144 130 76 129 rlinecurve
          -41 16 rlineto
          hintmask 11011110
          -153 -105 -104 -52 -98 hhcurveto
          -12 hlineto
          263 979 rlineto
          2 13 14 2 13 hhcurveto
          69 43 -24 -39 27 hvcurveto
          253 callsubr
          109 -101 65 -121 vhcurveto
          -339 -1015 rmoveto
          -55 22 -34 59 107 vvcurveto
          357 166 322 179 85 vhcurveto
          endchar
        </CharString>
        <CharString name="cent.smcp">
          -177 95 36 931 -20 72 36 304 -20 hstem
          53 199 vstem
          1085 1143 rmoveto
          -53 -22 -27 -28 -29 hhcurveto
          -10 -11 3 8 -11 hvcurveto
          -47 36 -56 36 -103 5 87 304 rcurveline
          -41 hlineto
          -87 -303 rlineto
          -373 -8 -302 -367 -340 vvcurveto
          -219 150 -118 222 -5 vhcurveto
          -87 -303 rlineto
          41 hlineto
          87 304 112 5 79 38 74 36 rlinecurve
          8 17 13 4 11 hhcurveto
          24 10 -18 -33 -3 0 -2 -1 -3 hvcurveto
          -8 -1 -8 -1 -9 vhcurveto
          47 hlineto
          16 84 31 109 55 197 rrcurveto
          -47 hlineto
          -59 -136 -37 -63 -74 -64 rrcurveto
          -67 -76 -98 -31 -84 hhcurveto
          281 983 78 -4 67 -35 37 -59 rlinecurve
          27 -47 10 -35 -70 vvcurveto
          -24 -2 -29 -2 -37 vhcurveto
          47 hlineto
          53 187 31 102 29 80 rrcurveto
          -881 -742 rmoveto
          261 177 427 288 24 vhcurveto
          -281 -979 rlineto
          -112 17 -72 91 159 vvcurveto
          endchar
        </CharString>
        <CharString name="circumflex">
          -472 1262 380 hstem
          96 721 vstem
          465 -74 callsubr
          endchar
        </CharString>
        <CharString name="circumflex.case">
          -431 1581 295 hstem
          31 803 vstem
          463 -89 callsubr
          endchar
        </CharString>
        <CharString name="circumflex.smcp">
          -431 1376 295 hstem
          57 803 vstem
          489 -88 callgsubr
          endchar
        </CharString>
        <CharString name="colon">
          -726 270 callsubr
          hstemhm
          32 257 -52 257 306 callgsubr
          237 924 rmoveto
          -82 callsubr
          hintmask 11100000
          -205 -848 rmoveto
          -82 callsubr
          endchar
        </CharString>
        <CharString name="comma">
          -779 -8 -21 hstem
          170 94 vstem
          264 113 -28 callsubr
          endchar
        </CharString>
        <CharString name="commaaccentcomb">
          -1295 295 callsubr
          hstemhm
          133 64 hintmask 00000000
          hintmask 11000000
          84 -141 -53 callsubr
        </CharString>
        <CharString name="commaaccentcomb.case">
          -1295 295 callsubr
          hstemhm
          262 64 hintmask 00000000
          hintmask 11000000
          80 -272 rmoveto
          99 callsubr
          vhcurveto
          -68 callsubr
          -76 -57 -62 -69 vhcurveto
          endchar
        </CharString>
        <CharString name="commaaccentcomb.smcp">
          -941 295 callsubr
          hstemhm
          133 64 hintmask 00000000
          hintmask 11000000
          -49 -272 rmoveto
          99 callsubr
          vhcurveto
          -68 callsubr
          -76 -57 -62 -69 vhcurveto
          endchar
        </CharString>
        <CharString name="copyright">
          597 -29 66 194 88 988 36 193 66 hstem
          180 82 289 199 391 221 367 81 vstem
          180 786 rmoveto
          -450 365 -365 450 451 364 365 450 451 -364 365 -451 -450 -365 -365 -451 vhcurveto
          82 hmoveto
          414 328 336 405 406 328 -336 -414 -413 -328 -336 -406 -405 -328 336 413 vhcurveto
          780 -467 rmoveto
          -155 -137 127 353 395 157 113 135 78 80 -37 -49 27 hvcurveto
          -51 -11 -35 -36 -58 vvcurveto
          -69 51 -41 61 62 47 41 73 137 -162 86 -170 -285 -194 -233 -336 -338 199 -205 256 217 116 152 133 41 vhcurveto
          -39 14 rlineto
          -155 -71 -119 -56 -109 hhcurveto
          endchar
        </CharString>
        <CharString name="currency">
          -130 227 76 625 76 hstem
          199 84 608 84 vstem
          197 283 -3 callsubr
        </CharString>
        <CharString name="currency.smcp">
          -154 260 76 625 76 hstem
          193 84 608 84 vstem
          191 316 -3 callsubr
        </CharString>
        <CharString name="d">
          236 callsubr
          420 43 hstemhm
          25 182 385 152 hintmask 10111000
          967 332 rmoveto
          -25 -76 rlineto
          hintmask 01111100
          48 callgsubr
          hintmask 10111100
          153 callsubr
          vhcurveto
          96 callsubr
          -709 -295 42 callsubr
        </CharString>
        <CharString name="d.smcp">
          188 0 37 1171 37 hstem
          1196 197 vstem
          1393 793 -11 callsubr
        </CharString>
        <CharString name="dagger">
          -498 1253 -20 20 93 hstemhm
          523 118 hintmask 00000000
          hintmask 01100000
          598 1346 rmoveto
          hintmask 10100000
          -51 -25 -60 -33 -10 hvcurveto
          8 3 -8 -13 hvcurveto
          -51 -45 -128 -60 -3 0 -2 -3 vvcurveto
          1 -10 3 -8 5 -4 rrcurveto
          17 hlineto
          hintmask 01100000
          28 57 29 262 45 hhcurveto
          3 11 3 15 14 vvcurveto
          27 -10 26 -33 vhcurveto
          207 -414 rmoveto
          -64 51 -254 -51 -225 51 -92 -51 66 -51 251 49 228 -49 rlineto
          -234 22 rmoveto
          -32 -12 -25 -41 -10 -39 -39 -23 rlinecurve
          -55 -201 -170 -667 -198 vvcurveto
          -18 1 -13 3 -10 vhcurveto
          94 118 219 770 59 219 rrcurveto
          -18 13 -3 19 22 vvcurveto
          15 2 17 -1 17 vhcurveto
          endchar
        </CharString>
        <CharString name="daggerdbl">
          -476 -340 92 1501 -20 20 93 hstemhm
          115 118 302 118 hintmask 00000000
          hintmask 10101000
          610 1346 rmoveto
          hintmask 11001000
          -51 -27 -60 -33 -8 hvcurveto
          8 3 -8 -13 hvcurveto
          -50 -45 -127 -61 -2 0 -3 -2 vvcurveto
          1 -12 3 -8 6 -4 rrcurveto
          16 hlineto
          hintmask 10101000
          28 55 31 262 45 hhcurveto
          3 12 3 15 14 vvcurveto
          27 -9 25 -34 vhcurveto
          207 -414 rmoveto
          -65 51 -252 -51 -228 51 -90 -51 64 -51 252 49 227 -49 rlineto
          -233 22 rmoveto
          -33 -12 -25 -41 -8 -39 -41 -23 rlinecurve
          -27 -96 9 23 -48 -207 -63 -207 2 12 -27 -96 15 -11 4 -16 1 -18 rrcurveto
          1 -11 -1 -11 -12 vvcurveto
          -8 0 -7 1 -8 vhcurveto
          24 -13 33 13 23 41 10 39 41 22 rlinecurve
          27 96 -7 -12 48 207 65 209 -6 -25 27 96 rrcurveto
          -18 15 -3 21 24 vvcurveto
          14 1 14 -1 15 vhcurveto
          70 -817 rmoveto
          -64 51 -254 -51 -225 51 -90 -51 65 -51 250 49 228 -49 rlineto
          -244 20 rmoveto
          hintmask 11010000
          -29 -55 -31 -262 -45 hhcurveto
          -3 -12 -3 -15 -14 vvcurveto
          -26 9 -25 34 51 27 59 33 8 vhcurveto
          -8 -3 8 13 hvcurveto
          50 45 127 61 3 0 3 2 vvcurveto
          -1 12 -3 8 -6 4 rrcurveto
          endchar
        </CharString>
        <CharString name="dcaron">
          236 callsubr
          420 43 -4 41 hstemhm
          25 182 385 152 534 174 hintmask 10101100
          967 332 rmoveto
          -25 -76 rlineto
          hintmask 01110110
          48 callgsubr
          hintmask 10101111
          153 callsubr
          vhcurveto
          96 callsubr
          444 1274 rmoveto
          -4 callgsubr
          29 -8 rlineto
          51 callsubr
          -1153 -1569 42 callsubr
        </CharString>
        <CharString name="dcaron.smcp">
          188 0 37 1171 37 hstem
          1196 197 vstem
          852 -14 callgsubr
          541 -755 -11 callsubr
        </CharString>
        <CharString name="dcroat">
          236 callsubr
          243 callsubr
          25 182 385 152 hintmask 10111110
          1051 1245 rmoveto
          192 hlineto
          12 41 rlineto
          -192 hlineto
          94 342 -104 -53 -109 -29 -149 -2 rlinecurve
          -13 -43 rlineto
          103 37 -26 -54 -16 -3 -18 -6 -21 hvcurveto
          -21 -80 rlineto
          -341 295 callgsubr
          342 hlineto
          -70 -262 rlineto
          64 -20 -54 34 -51 hhcurveto
          -379 -282 -512 -327 153 callsubr
          hvcurveto
          96 callsubr
          -39 hlineto
          -25 -76 rlineto
          hintmask 01111110
          -156 -53 -43 -53 -53 hhcurveto
          -37 -12 24 33 21 5 25 7 24 hvcurveto
          hintmask 10111110
          -459 -137 42 callsubr
        </CharString>
        <CharString name="dcroat.smcp">
          -39 callgsubr
        </CharString>
</ttFont>
